<?xml version="1.0" encoding="UTF-8" standalone="no" ?>
<COLLADA version="1.4.1" xmlns="http://www.collada.org/2005/11/COLLADASchema">

  <asset>
    <contributor>
      <authoring_tool>ONSHAPE BY PTC INC, 1.214</authoring_tool>
    </contributor>
    <created>2026-05-02T22:50:06</created>
    <modified>2026-05-02T22:50:06</modified>
    <unit meter="1" name="meters"/>
    <up_axis>Z_UP</up_axis>
  </asset>

  <library_materials>
    <material id="ID9" name="ID9">
      <instance_effect url="#ID9-fx"/>
    </material>
    <material id="ID10" name="ID10">
      <instance_effect url="#ID10-fx"/>
    </material>
    <material id="ID11" name="ID11">
      <instance_effect url="#ID11-fx"/>
    </material>
  </library_materials>

  <library_effects>
    <effect id="ID9-fx" name="ID9">
      <profile_COMMON>
        <technique sid="COMMON">
          <lambert>
            <diffuse>
              <color sid="diffuse">0 0 0 1</color>
            </diffuse>
            <transparent opaque="A_ONE">
              <color sid="transparent">1 1 1 1</color>
            </transparent>
            <transparency>
              <float sid="transparency">1</float>
            </transparency>
          </lambert>
        </technique>
        <extra>
          <technique profile="OTHER">
            <double_sided>1</double_sided>
          </technique>
        </extra>
      </profile_COMMON>
    </effect>
    <effect id="ID10-fx" name="ID10">
      <profile_COMMON>
        <technique sid="COMMON">
          <lambert>
            <diffuse>
              <color sid="diffuse">0.647059 0.647059 0.647059 1</color>
            </diffuse>
            <transparent opaque="A_ONE">
              <color sid="transparent">1 1 1 1</color>
            </transparent>
            <transparency>
              <float sid="transparency">1</float>
            </transparency>
          </lambert>
        </technique>
        <extra>
          <technique profile="OTHER">
            <double_sided>1</double_sided>
          </technique>
        </extra>
      </profile_COMMON>
    </effect>
    <effect id="ID11-fx" name="ID11">
      <profile_COMMON>
        <technique sid="COMMON">
          <lambert>
            <diffuse>
              <color sid="diffuse">0.901961 0.901961 0.901961 1</color>
            </diffuse>
            <transparent opaque="A_ONE">
              <color sid="transparent">1 1 1 1</color>
            </transparent>
            <transparency>
              <float sid="transparency">1</float>
            </transparency>
          </lambert>
        </technique>
        <extra>
          <technique profile="OTHER">
            <double_sided>1</double_sided>
          </technique>
        </extra>
      </profile_COMMON>
    </effect>
  </library_effects>

  <library_geometries>
    <geometry id="ID3">
      <mesh>
        <source id="ID4">
          <float_array count="504" id="ID5">-0.3 -0.3 0 -0.3 0.3 -0.03 -0.3 0.3 0 -0.3 -0.3 -0.03 0.3 -0.3 0 0.3 -0.3 -0.03 -0.3 -0.3 -0.03 -0.3 -0.3 0 0.3 -0.3 0 0.3 0.3 -0.03 0.3 -0.3 -0.03 0.3 0.3 0 0.3 0.3 0 -0.3 0.3 -0.03 0.3 0.3 -0.03 -0.3 0.3 0 -0.3 0.3 -0.03 0.3 -0.3 -0.03 0.3 0.3 -0.03 -0.3 -0.3 -0.03 0.3 -0.3 0 0.25 0.25 0 0.3 0.3 0 -0.25 -0.25 0 0.25 -0.25 0 -0.3 0.3 0 -0.25 0.25 0 -0.3 -0.3 0 0.25 -0.25 0 -0.25 -0.25 0.003 0.25 -0.25 0.003 -0.25 -0.25 0 0.25 -0.25 0 0.25 -0.25 0.003 0.25 0.25 0.003 0.25 0.25 0 0.25 0.25 0 0.25 0.25 0.003 -0.25 0.25 0.003 -0.25 0.25 0 -0.0357143 0.0357143 0 -0.0357143 0.0357143 0.003 -0.178571 0.0357143 0.003 -0.178571 0.0357143 0 -0.178571 0.0357143 0 -0.178571 0.0357143 0.003 -0.178571 0.107143 0.003 -0.178571 0.107143 0 -0.0357143 0.107143 0 -0.178571 0.107143 0.003 -0.0357143 0.107143 0.003 -0.178571 0.107143 0 -0.107143 -0.107143 0 -0.107143 -0.107143 0.003 -0.178571 -0.107143 0.003 -0.178571 -0.107143 0 -0.178571 -0.107143 0 -0.178571 -0.107143 0.003 -0.178571 -0.0357143 0.003 -0.178571 -0.0357143 0 -0.107143 -0.0357143 0 -0.178571 -0.0357143 0.003 -0.107143 -0.0357143 0.003 -0.178571 -0.0357143 0 0.178571 0.0357143 0 0.178571 0.0357143 0.003 0.178571 -0.107143 0.003 0.178571 -0.107143 0 0.178571 -0.107143 0 0.178571 -0.107143 0.003 0.107143 -0.107143 0.003 0.107143 -0.107143 0 0.107143 -0.107143 0.003 0.107143 -0.178571 0.003 0.107143 -0.178571 0 0.107143 -0.107143 0 0.107143 -0.178571 0 0.107143 -0.178571 0.003 -0.0357143 -0.178571 0.003 -0.0357143 -0.178571 0 -0.0357143 -0.178571 0 -0.0357143 -0.0357143 0.003 -0.0357143 -0.0357143 0 -0.0357143 -0.178571 0.003 0.107143 -0.0357143 0 -0.0357143 -0.0357143 0.003 0.107143 -0.0357143 0.003 -0.0357143 -0.0357143 0 0.107143 -0.0357143 0 0.107143 0.0357143 0.003 0.107143 0.0357143 0 0.107143 -0.0357143 0.003 0.107143 0.107143 0 0.107143 0.178571 0.003 0.107143 0.178571 0 0.107143 0.107143 0.003 0.178571 0.178571 0 0.107143 0.178571 0.003 0.178571 0.178571 0.003 0.107143 0.178571 0 0.178571 0.178571 0 0.178571 0.178571 0.003 0.178571 0.107143 0.003 0.178571 0.107143 0 -0.0357143 0.107143 0.003 -0.0357143 0.0357143 0.003 -0.0357143 0.0357143 0 -0.0357143 0.107143 0 -0.107143 -0.0357143 0.003 -0.107143 -0.107143 0.003 -0.107143 -0.107143 0 -0.107143 -0.0357143 0 0.178571 0.0357143 0 0.107143 0.0357143 0.003 0.178571 0.0357143 0.003 0.107143 0.0357143 0 0.178571 0.107143 0 0.178571 0.107143 0.003 0.107143 0.107143 0.003 0.107143 0.107143 0 -0.25 0.25 0.003 -0.25 -0.25 0.003 -0.25 -0.25 0 -0.25 0.25 0 -0.0357143 0.107143 0.003 -0.178571 0.107143 0.003 -0.25 0.25 0.003 -0.178571 -0.0357143 0.003 -0.25 -0.25 0.003 -0.178571 0.0357143 0.003 -0.107143 -0.0357143 0.003 -0.0357143 0.0357143 0.003 0.107143 0.0357143 0.003 0.107143 -0.0357143 0.003 0.25 0.25 0.003 0.107143 0.178571 0.003 0.107143 -0.178571 0.003 0.25 -0.25 0.003 -0.0357143 -0.178571 0.003 -0.0357143 -0.0357143 0.003 -0.178571 -0.107143 0.003 -0.107143 -0.107143 0.003 0.178571 0.0357143 0.003 0.107143 -0.107143 0.003 0.178571 -0.107143 0.003 0.178571 0.178571 0.003 0.107143 0.107143 0.003 0.178571 0.107143 0.003 -0.178571 0.107143 0 -0.0357143 0.107143 0 -0.0357143 0.0357143 0 -0.178571 0.0357143 0 -0.178571 -0.0357143 0 -0.107143 -0.0357143 0 -0.107143 -0.107143 0 -0.178571 -0.107143 0 0.107143 -0.0357143 0 0.107143 0.0357143 0 0.178571 0.0357143 0 0.178571 -0.107143 0 0.107143 -0.107143 0 0.107143 -0.178571 0 -0.0357143 -0.178571 0 -0.0357143 -0.0357143 0 0.107143 0.178571 0 0.178571 0.107143 0 0.107143 0.107143 0 0.178571 0.178571 0</float_array>
          <technique_common>
            <accessor count="168" source="#ID5" stride="3">
              <param name="X" type="float"/>
              <param name="Y" type="float"/>
              <param name="Z" type="float"/>
            </accessor>
          </technique_common>
        </source>
        <source id="ID6">
          <float_array count="504" id="ID7">-1 -1.85037e-16 -0 -1 -1.85037e-16 -0 -1 -1.85037e-16 -0 -1 -1.85037e-16 -0 0 -1 0 0 -1 0 0 -1 0 0 -1 0 1 1.85037e-16 0 1 1.85037e-16 0 1 1.85037e-16 0 1 1.85037e-16 0 0 1 0 0 1 0 0 1 0 0 1 0 -0 -0 -1 -0 -0 -1 -0 -0 -1 -0 -0 -1 0 0 1 0 0 1 0 0 1 0 0 1 0 0 1 0 0 1 0 0 1 0 0 1 -0 -1 -0 -0 -1 -0 -0 -1 -0 -0 -1 -0 1 2.22045e-16 0 1 2.22045e-16 0 1 2.22045e-16 0 1 2.22045e-16 0 0 1 0 0 1 0 0 1 0 0 1 0 0 1 0 0 1 0 0 1 0 0 1 0 1 3.88578e-16 0 1 3.88578e-16 0 1 3.88578e-16 0 1 3.88578e-16 0 -0 -1 -0 -0 -1 -0 -0 -1 -0 -0 -1 -0 0 1 0 0 1 0 0 1 0 0 1 0 1 3.88578e-16 0 1 3.88578e-16 0 1 3.88578e-16 0 1 3.88578e-16 0 -0 -1 -0 -0 -1 -0 -0 -1 -0 -0 -1 -0 -1 0 0 -1 0 0 -1 0 0 -1 0 0 0 1 0 0 1 0 0 1 0 0 1 0 -1 -0 -0 -1 -0 -0 -1 -0 -0 -1 -0 -0 0 1 0 0 1 0 0 1 0 0 1 0 1 0 0 1 0 0 1 0 0 1 0 0 -0 -1 -0 -0 -1 -0 -0 -1 -0 -0 -1 -0 1 0 0 1 0 0 1 0 0 1 0 0 1 0 0 1 0 0 1 0 0 1 0 0 -0 -1 -0 -0 -1 -0 -0 -1 -0 -0 -1 -0 -1 0 0 -1 0 0 -1 0 0 -1 0 0 -1 -0 -0 -1 -0 -0 -1 -0 -0 -1 -0 -0 -1 -0 -0 -1 -0 -0 -1 -0 -0 -1 -0 -0 -0 -1 -0 -0 -1 -0 -0 -1 -0 -0 -1 -0 0 1 0 0 1 0 0 1 0 0 1 0 -1 -2.22045e-16 0 -1 -2.22045e-16 0 -1 -2.22045e-16 0 -1 -2.22045e-16 0 0 0 1 0 0 1 0 0 1 0 0 1 0 0 1 0 0 1 0 0 1 0 0 1 0 0 1 0 0 1 0 0 1 0 0 1 0 0 1 0 0 1 0 0 1 0 0 1 0 0 1 0 0 1 0 0 1 0 0 1 0 0 1 0 0 1 0 0 1 0 0 1 0 0 1 0 0 1 0 0 1 0 0 1 0 0 1 0 0 1 0 0 1 0 0 1 0 0 1 0 0 1 0 0 1 0 0 1 0 0 1 0 0 1 0 0 1 0 0 1 0 0 1 0 0 1 0 0 1 0 0 1</float_array>
          <technique_common>
            <accessor count="168" source="#ID7" stride="3">
              <param name="X" type="float"/>
              <param name="Y" type="float"/>
              <param name="Z" type="float"/>
            </accessor>
          </technique_common>
        </source>
        <vertices id="ID8">
          <input semantic="POSITION" source="#ID4"/>
          <input semantic="NORMAL" source="#ID6"/>
        </vertices>
        <triangles count="30" material="ID9">
          <input offset="0" semantic="VERTEX" source="#ID8"/>
          <p>124 126 125 126 128 127 129 127 130 129 126 127 125 126 129 131 133 132 134 126 135 136 138 137 133 131 139 138 140 128 130 131 129 128 140 127 141 138 139 137 134 142 136 144 143 137 142 144 130 139 131 138 141 140 144 136 137 137 138 128 139 130 141 131 132 124 145 134 135 124 132 146 142 146 132 126 124 135 146 135 124 134 145 147 146 142 147 134 147 142</p>
        </triangles>
        <triangles count="66" material="ID10">
          <input offset="0" semantic="VERTEX" source="#ID8"/>
          <p>0 2 1 1 3 0 4 6 5 6 4 7 8 10 9 8 9 11 12 14 13 13 15 12 16 18 17 17 19 16 20 22 21 23 20 24 25 26 21 25 27 23 20 23 27 23 26 25 20 21 24 25 21 22 28 30 29 29 31 28 32 34 33 32 35 34 36 38 37 38 36 39 40 42 41 42 40 43 44 46 45 44 47 46 48 50 49 49 51 48 52 54 53 54 52 55 56 58 57 56 59 58 60 62 61 61 63 60 64 66 65 66 64 67 68 70 69 70 68 71 72 74 73 72 75 74 76 78 77 78 76 79 80 82 81 80 81 83 84 86 85 85 87 84 88 90 89 88 89 91 92 94 93 92 93 95 96 98 97 97 99 96 100 102 101 102 100 103 104 106 105 104 107 106 108 110 109 108 111 110 112 114 113 113 115 112 116 118 117 118 116 119 120 122 121 122 120 123</p>
        </triangles>
        <triangles count="12" material="ID11">
          <input offset="0" semantic="VERTEX" source="#ID8"/>
          <p>148 150 149 150 148 151 152 154 153 154 152 155 156 158 157 156 159 158 160 162 161 160 156 163 159 156 160 160 163 162 164 166 165 164 165 167</p>
        </triangles>
      </mesh>
    </geometry>
  </library_geometries>

  <library_visual_scenes>
    <visual_scene id="ID1">
      <node id="ID2">
        <instance_geometry url="#ID3">
          <bind_material>
            <technique_common>
              <instance_material symbol="ID9" target="#ID9"/>
              <instance_material symbol="ID10" target="#ID10"/>
              <instance_material symbol="ID11" target="#ID11"/>
            </technique_common>
          </bind_material>
        </instance_geometry>
      </node>
    </visual_scene>
  </library_visual_scenes>

  <scene>
    <instance_visual_scene url="#ID1"/>
  </scene>

  <library_nodes/>

</COLLADA>
