<?xml version="1.0" encoding="UTF-8" standalone="no" ?>
<COLLADA version="1.4.1" xmlns="http://www.collada.org/2005/11/COLLADASchema">

  <asset>
    <contributor>
      <authoring_tool>ONSHAPE BY PTC INC, 1.214</authoring_tool>
    </contributor>
    <created>2026-05-02T17:53:47</created>
    <modified>2026-05-02T17:53:47</modified>
    <unit meter="1" name="meters"/>
    <up_axis>Z_UP</up_axis>
  </asset>

  <library_materials>
    <material id="ID9" name="ID9">
      <instance_effect url="#ID9-fx"/>
    </material>
    <material id="ID10" name="ID10">
      <instance_effect url="#ID10-fx"/>
    </material>
  </library_materials>

  <library_effects>
    <effect id="ID9-fx" name="ID9">
      <profile_COMMON>
        <technique sid="COMMON">
          <lambert>
            <diffuse>
              <color sid="diffuse">0 0 0 1</color>
            </diffuse>
            <transparent opaque="A_ONE">
              <color sid="transparent">1 1 1 1</color>
            </transparent>
            <transparency>
              <float sid="transparency">1</float>
            </transparency>
          </lambert>
        </technique>
        <extra>
          <technique profile="OTHER">
            <double_sided>1</double_sided>
          </technique>
        </extra>
      </profile_COMMON>
    </effect>
    <effect id="ID10-fx" name="ID10">
      <profile_COMMON>
        <technique sid="COMMON">
          <lambert>
            <diffuse>
              <color sid="diffuse">0.647059 0.647059 0.647059 1</color>
            </diffuse>
            <transparent opaque="A_ONE">
              <color sid="transparent">1 1 1 1</color>
            </transparent>
            <transparency>
              <float sid="transparency">1</float>
            </transparency>
          </lambert>
        </technique>
        <extra>
          <technique profile="OTHER">
            <double_sided>1</double_sided>
          </technique>
        </extra>
      </profile_COMMON>
    </effect>
  </library_effects>

  <library_geometries>
    <geometry id="ID3">
      <mesh>
        <source id="ID4">
          <float_array count="648" id="ID5">0.0356743 0.0347543 0.003 0.0356743 0.0347543 0 0.0356743 -0.178571 0 0.0356743 -0.178571 0.003 -0.0366243 0.107053 0.003 -0.107143 0.107053 0.003 -0.107143 0.107053 0 -0.0366243 0.107053 0 -0.0356243 0.178571 0 0.0356743 0.108063 0 0.0356743 0.178571 0 -0.0356243 0.108063 0 0.0366743 0.107063 0 0.0366743 0.0357543 0 0.178571 0.0357543 0 0.178571 0.107063 0 -0.3 -0.3 0 -0.3 0.3 0 -0.3 0.3 -0.03 -0.3 -0.3 -0.03 0.3 -0.3 0 -0.3 -0.3 -0.03 0.3 -0.3 -0.03 -0.3 -0.3 0 0.3 -0.3 0 0.3 -0.3 -0.03 0.3 0.3 -0.03 0.3 0.3 0 0.3 0.3 0 0.3 0.3 -0.03 -0.3 0.3 -0.03 -0.3 0.3 0 -0.3 0.3 -0.03 0.3 0.3 -0.03 0.3 -0.3 -0.03 -0.3 -0.3 -0.03 0.3 -0.3 0 0.3 0.3 0 0.25 0.25 0 -0.25 -0.25 0 0.25 -0.25 0 -0.3 0.3 0 -0.25 0.25 0 -0.3 -0.3 0 0.25 -0.25 0 0.25 -0.25 0.003 -0.25 -0.25 0.003 -0.25 -0.25 0 0.25 -0.25 0 0.25 0.25 0.003 0.25 -0.25 0.003 0.25 0.25 0 0.25 0.25 0 -0.25 0.25 0.003 0.25 0.25 0.003 -0.25 0.25 0 0.107143 -0.0356743 0.003 0.178571 -0.0356743 0 0.178571 -0.0356743 0.003 0.107143 -0.0356743 0 0.178571 -0.0356743 0.003 0.178571 -0.107103 0 0.178571 -0.107103 0.003 0.178571 -0.0356743 0 0.178571 -0.107103 0 0.107143 -0.107103 0.003 0.178571 -0.107103 0.003 0.107143 -0.107103 0 -0.107143 0.178571 0 -0.107143 0.178571 0.003 -0.178571 0.178571 0.003 -0.178571 0.178571 0 -0.107143 0.178571 0.003 -0.107143 0.107183 0 -0.107143 0.107183 0.003 -0.107143 0.178571 0 -0.107143 0.107183 0 -0.178571 0.107183 0.003 -0.107143 0.107183 0.003 -0.178571 0.107183 0 -0.0356243 0.178571 0.003 -0.0356243 0.108063 0 -0.0356243 0.178571 0 -0.0356243 0.108063 0.003 0.0356743 0.178571 0 0.0356743 0.178571 0.003 -0.0356243 0.178571 0.003 -0.0356243 0.178571 0 0.0356743 0.178571 0 0.0356743 0.108063 0.003 0.0356743 0.178571 0.003 0.0356743 0.108063 0 0.0366743 0.107063 0.003 0.178571 0.107063 0 0.178571 0.107063 0.003 0.0366743 0.107063 0 0.178571 0.107063 0.003 0.178571 0.0357543 0 0.178571 0.0357543 0.003 0.178571 0.107063 0 0.178571 0.0357543 0 0.0366743 0.0357543 0.003 0.178571 0.0357543 0.003 0.0366743 0.0357543 0 0.0356743 -0.178571 0 -0.178571 -0.178571 0.003 0.0356743 -0.178571 0.003 -0.178571 -0.178571 0 -0.178571 -0.178571 0 -0.178571 -0.0356743 0.003 -0.178571 -0.178571 0.003 -0.178571 -0.0356743 0 -0.107143 -0.0356743 0 -0.107143 -0.0356743 0.003 -0.178571 -0.0356743 0.003 -0.178571 -0.0356743 0 -0.107143 -0.0356743 0 -0.107143 0.107053 0 -0.107143 0.107053 0.003 -0.107143 -0.0356743 0.003 0.107143 -0.107103 0.003 0.107143 -0.0356743 0 0.107143 -0.0356743 0.003 0.107143 -0.107103 0 -0.178571 0.178571 0 -0.178571 0.178571 0.003 -0.178571 0.107183 0.003 -0.178571 0.107183 0 -0.25 0.25 0.003 -0.25 -0.25 0 -0.25 -0.25 0.003 -0.25 0.25 0 -0.25 0.25 0.003 -0.25 -0.25 0.003 -0.178571 -0.0356743 0.003 0.25 -0.25 0.003 0.178571 -0.107103 0.003 0.107143 -0.107103 0.003 0.0356743 0.178571 0.003 0.25 0.25 0.003 -0.178571 0.178571 0.003 -0.107143 0.178571 0.003 0.178571 0.0357543 0.003 0.178571 -0.0356743 0.003 0.0356743 0.0347543 0.003 0.0356743 -0.178571 0.003 -0.0356243 0.178571 0.003 -0.178571 0.107183 0.003 -0.107143 0.107183 0.003 -0.0366243 0.107053 0.003 -0.107143 -0.0356743 0.003 -0.0366243 0.0347543 0.003 -0.178571 -0.178571 0.003 0.107143 -0.0356743 0.003 -0.107143 0.107053 0.003 0.0366743 0.0357543 0.003 0.178571 0.107063 0.003 0.0366743 0.107063 0.003 -0.0356243 0.108063 0.003 0.0356743 0.108063 0.003 0.178571 -0.107103 0 0.178571 -0.0356743 0 0.107143 -0.0356743 0 0.107143 -0.107103 0 -0.178571 0.178571 0 -0.178571 0.107183 0 -0.107143 0.107183 0 -0.107143 0.178571 0 0.0356743 -0.178571 0 -0.107103 -0.107143 0 -0.178571 -0.178571 0 -0.0366243 0.0347543 0 -0.0366243 0.107053 0 -0.107143 0.107053 0 -0.107143 -0.0356743 0 -0.107103 -0.0356743 0 -0.178571 -0.0356743 0 -0.0356343 -0.107143 0 -0.0356343 -0.0356743 0 0.0356743 0.0347543 0 -0.0356343 -0.0356743 0 -0.107103 -0.0356743 0.003 -0.0356343 -0.0356743 0.003 -0.107103 -0.0356743 0 -0.107103 -0.0356743 0.003 -0.107103 -0.107143 0 -0.107103 -0.107143 0.003 -0.107103 -0.0356743 0 -0.0356343 -0.107143 0 -0.0356343 -0.107143 0.003 -0.107103 -0.107143 0.003 -0.107103 -0.107143 0 -0.0356343 -0.107143 0 -0.0356343 -0.0356743 0 -0.0356343 -0.0356743 0.003 -0.0356343 -0.107143 0.003 -0.107103 -0.0356743 0.003 -0.107103 -0.107143 0.003 -0.0356343 -0.107143 0.003 -0.0356343 -0.0356743 0.003 0.0356743 0.108063 0 -0.0356243 0.108063 0.003 0.0356743 0.108063 0.003 -0.0356243 0.108063 0 -0.0366243 0.0347543 0.003 -0.0366243 0.107053 0.003 -0.0366243 0.107053 0 -0.0366243 0.0347543 0 0.0366743 0.0357543 0.003 0.0366743 0.107063 0 0.0366743 0.107063 0.003 0.0366743 0.0357543 0 0.0356743 0.0347543 0 0.0356743 0.0347543 0.003 -0.0366243 0.0347543 0.003 -0.0366243 0.0347543 0</float_array>
          <technique_common>
            <accessor count="216" source="#ID5" stride="3">
              <param name="X" type="float"/>
              <param name="Y" type="float"/>
              <param name="Z" type="float"/>
            </accessor>
          </technique_common>
        </source>
        <source id="ID6">
          <float_array count="648" id="ID7">-1 -4.53256e-16 0 -1 -4.53256e-16 0 -1 -4.53256e-16 0 -1 -4.53256e-16 0 3.88089e-16 -1 0 3.88089e-16 -1 0 3.88089e-16 -1 0 3.88089e-16 -1 0 0 0 1 0 0 1 0 0 1 0 0 1 0 0 1 0 0 1 0 0 1 0 0 1 -1 -1.85037e-16 -0 -1 -1.85037e-16 -0 -1 -1.85037e-16 -0 -1 -1.85037e-16 -0 0 -1 0 0 -1 0 0 -1 0 0 -1 0 1 1.85037e-16 0 1 1.85037e-16 0 1 1.85037e-16 0 1 1.85037e-16 0 0 1 0 0 1 0 0 1 0 0 1 0 -0 -0 -1 -0 -0 -1 -0 -0 -1 -0 -0 -1 0 0 1 0 0 1 0 0 1 0 0 1 0 0 1 0 0 1 0 0 1 0 0 1 -0 -1 -0 -0 -1 -0 -0 -1 -0 -0 -1 -0 1 2.22045e-16 0 1 2.22045e-16 0 1 2.22045e-16 0 1 2.22045e-16 0 0 1 0 0 1 0 0 1 0 0 1 0 3.88578e-16 -1 0 3.88578e-16 -1 0 3.88578e-16 -1 0 3.88578e-16 -1 0 -1 -3.88578e-16 0 -1 -3.88578e-16 0 -1 -3.88578e-16 0 -1 -3.88578e-16 0 -3.88578e-16 1 0 -3.88578e-16 1 0 -3.88578e-16 1 0 -3.88578e-16 1 0 -0 -1 -0 -0 -1 -0 -0 -1 -0 -0 -1 -0 -1 -0 -0 -1 -0 -0 -1 -0 -0 -1 -0 -0 0 1 0 0 1 0 0 1 0 0 1 0 1 0 0 1 0 0 1 0 0 1 0 0 -0 -1 -0 -0 -1 -0 -0 -1 -0 -0 -1 -0 -1 -3.88143e-16 -0 -1 -3.88143e-16 -0 -1 -3.88143e-16 -0 -1 -3.88143e-16 -0 3.88469e-16 -1 0 3.88469e-16 -1 0 3.88469e-16 -1 0 3.88469e-16 -1 0 -1 -3.89232e-16 0 -1 -3.89232e-16 0 -1 -3.89232e-16 0 -1 -3.89232e-16 0 -3.39911e-16 1 0 -3.39911e-16 1 0 -3.39911e-16 1 0 -3.39911e-16 1 0 0 1 0 0 1 0 0 1 0 0 1 0 1 1.94235e-16 0 1 1.94235e-16 0 1 1.94235e-16 0 1 1.94235e-16 0 -0 -1 -0 -0 -1 -0 -0 -1 -0 -0 -1 -0 1 0 0 1 0 0 1 0 0 1 0 0 1 3.88578e-16 0 1 3.88578e-16 0 1 3.88578e-16 0 1 3.88578e-16 0 1 0 0 1 0 0 1 0 0 1 0 0 -1 -2.22045e-16 0 -1 -2.22045e-16 0 -1 -2.22045e-16 0 -1 -2.22045e-16 0 0 0 1 0 0 1 0 0 1 0 0 1 0 0 1 0 0 1 0 0 1 0 0 1 0 0 1 0 0 1 0 0 1 0 0 1 0 0 1 0 0 1 0 0 1 0 0 1 0 0 1 0 0 1 0 0 1 0 0 1 0 0 1 0 0 1 0 0 1 0 0 1 0 0 1 0 0 1 0 0 1 0 0 1 0 0 1 0 0 1 0 0 1 0 0 1 0 0 1 0 0 1 0 0 1 0 0 1 0 0 1 0 0 1 0 0 1 0 0 1 0 0 1 0 0 1 0 0 1 0 0 1 0 0 1 0 0 1 0 0 1 0 0 1 0 1 0 0 1 0 0 1 0 0 1 0 -1 -0 -0 -1 -0 -0 -1 -0 -0 -1 -0 -0 -0 -1 -0 -0 -1 -0 -0 -1 -0 -0 -1 -0 1 0 0 1 0 0 1 0 0 1 0 0 0 0 1 0 0 1 0 0 1 0 0 1 0 1 0 0 1 0 0 1 0 0 1 0 -1 -9.46532e-17 -0 -1 -9.46532e-17 -0 -1 -9.46532e-17 -0 -1 -9.46532e-17 -0 1 9.46532e-17 0 1 9.46532e-17 0 1 9.46532e-17 0 1 9.46532e-17 0 -0 -1 -0 -0 -1 -0 -0 -1 -0 -0 -1 -0</float_array>
          <technique_common>
            <accessor count="216" source="#ID7" stride="3">
              <param name="X" type="float"/>
              <param name="Y" type="float"/>
              <param name="Z" type="float"/>
            </accessor>
          </technique_common>
        </source>
        <vertices id="ID8">
          <input semantic="POSITION" source="#ID4"/>
          <input semantic="NORMAL" source="#ID6"/>
        </vertices>
        <triangles count="38" material="ID9">
          <input offset="0" semantic="VERTEX" source="#ID8"/>
          <p>132 133 134 135 136 137 132 138 139 140 141 132 139 142 135 135 143 136 144 145 137 146 138 132 140 132 147 148 149 141 134 150 147 151 144 149 133 152 134 132 134 147 144 137 153 142 153 143 133 135 145 135 137 145 133 145 152 147 154 148 154 147 150 149 148 154 149 144 155 142 155 153 135 142 143 153 155 144 156 139 138 155 157 158 142 139 156 149 158 141 156 138 157 157 159 158 157 138 159 149 155 158 141 158 146 132 141 146 196 197 198 196 198 199</p>
        </triangles>
        <triangles count="102" material="ID10">
          <input offset="0" semantic="VERTEX" source="#ID8"/>
          <p>0 1 2 0 2 3 4 5 6 6 7 4 8 9 10 9 8 11 12 13 14 12 14 15 16 17 18 18 19 16 20 21 22 21 20 23 24 25 26 24 26 27 28 29 30 30 31 28 32 33 34 34 35 32 36 37 38 39 36 40 41 42 38 41 43 39 36 39 43 39 42 41 36 38 40 41 38 37 44 45 46 46 47 44 48 49 50 48 51 49 52 53 54 53 52 55 56 57 58 57 56 59 60 61 62 61 60 63 64 65 66 64 67 65 68 69 70 70 71 68 72 73 74 72 75 73 76 77 78 77 76 79 80 81 82 81 80 83 84 85 86 86 87 84 88 89 90 88 91 89 92 93 94 93 92 95 96 97 98 97 96 99 100 101 102 100 103 101 104 105 106 105 104 107 108 109 110 108 111 109 112 113 114 114 115 112 116 117 118 116 118 119 120 121 122 121 120 123 124 125 126 126 127 124 128 129 130 129 128 131 160 161 162 160 162 163 164 165 166 164 166 167 168 169 170 171 172 173 174 175 173 169 176 170 168 177 169 171 178 179 174 169 175 173 175 171 179 178 168 171 175 178 168 178 177 176 169 174 180 181 182 181 180 183 184 185 186 184 187 185 188 189 190 190 191 188 192 193 194 192 194 195 200 201 202 201 200 203 204 205 206 206 207 204 208 209 210 209 208 211 212 213 214 214 215 212</p>
        </triangles>
      </mesh>
    </geometry>
  </library_geometries>

  <library_visual_scenes>
    <visual_scene id="ID1">
      <node id="ID2">
        <instance_geometry url="#ID3">
          <bind_material>
            <technique_common>
              <instance_material symbol="ID9" target="#ID9"/>
              <instance_material symbol="ID10" target="#ID10"/>
            </technique_common>
          </bind_material>
        </instance_geometry>
      </node>
    </visual_scene>
  </library_visual_scenes>

  <scene>
    <instance_visual_scene url="#ID1"/>
  </scene>

  <library_nodes/>

</COLLADA>
