<?xml version="1.0" encoding="UTF-8" standalone="no" ?>
<COLLADA version="1.4.1" xmlns="http://www.collada.org/2005/11/COLLADASchema">

  <asset>
    <contributor>
      <authoring_tool>ONSHAPE BY PTC INC, 1.214</authoring_tool>
    </contributor>
    <created>2026-05-02T22:21:10</created>
    <modified>2026-05-02T22:21:10</modified>
    <unit meter="1" name="meters"/>
    <up_axis>Z_UP</up_axis>
  </asset>

  <library_materials>
    <material id="ID9" name="ID9">
      <instance_effect url="#ID9-fx"/>
    </material>
    <material id="ID10" name="ID10">
      <instance_effect url="#ID10-fx"/>
    </material>
  </library_materials>

  <library_effects>
    <effect id="ID9-fx" name="ID9">
      <profile_COMMON>
        <technique sid="COMMON">
          <lambert>
            <diffuse>
              <color sid="diffuse">0 0 1 1</color>
            </diffuse>
            <transparent opaque="A_ONE">
              <color sid="transparent">1 1 1 1</color>
            </transparent>
            <transparency>
              <float sid="transparency">1</float>
            </transparency>
          </lambert>
        </technique>
        <extra>
          <technique profile="OTHER">
            <double_sided>1</double_sided>
          </technique>
        </extra>
      </profile_COMMON>
    </effect>
    <effect id="ID10-fx" name="ID10">
      <profile_COMMON>
        <technique sid="COMMON">
          <lambert>
            <diffuse>
              <color sid="diffuse">0.498039 0.498039 0.498039 1</color>
            </diffuse>
            <transparent opaque="A_ONE">
              <color sid="transparent">1 1 1 1</color>
            </transparent>
            <transparency>
              <float sid="transparency">1</float>
            </transparency>
          </lambert>
        </technique>
        <extra>
          <technique profile="OTHER">
            <double_sided>1</double_sided>
          </technique>
        </extra>
      </profile_COMMON>
    </effect>
  </library_effects>

  <library_geometries>
    <geometry id="ID3">
      <mesh>
        <source id="ID4">
          <float_array count="756" id="ID5">0.59365 -0.024659 0.429115 0.59365 -0.025 2.1 0.59365 -0.025 0.425 0.59365 0.025 2.1 0.59365 -0.00206448 0.449915 0.59365 0.00206448 0.449915 0.59365 -0.0236454 0.433117 0.59365 -0.0219868 0.436899 0.59365 -0.0197285 0.440355 0.59365 -0.016932 0.443393 0.59365 -0.0136737 0.445929 0.59365 -0.0100424 0.447894 0.59365 -0.00613714 0.449235 0.59365 0.00613714 0.449235 0.59365 0.0100424 0.447894 0.59365 0.0136737 0.445929 0.59365 0.016932 0.443393 0.59365 0.0197285 0.440355 0.59365 0.0219868 0.436899 0.59365 0.0236454 0.433117 0.59365 0.024659 0.429115 0.59365 0.025 0.425 0.59365 0.00855498 0.40151 0.59365 0.0043441 0.400381 0.59365 0.025 0.03 0.59365 0.0246205 0.420661 0.59365 0.025 0.425 0.59365 0.0216529 0.412504 0.59365 0.0234934 0.416453 0.59365 0.0191546 0.408935 0.59365 0.0160742 0.405853 0.59365 0.0125049 0.403353 0.59365 -7.10543e-18 0.4 0.59365 -0.025 0.03 0.59365 -0.00433946 0.40038 0.59365 -0.00854727 0.401507 0.59365 -0.0124958 0.403347 0.59365 -0.0160651 0.405845 0.59365 -0.0191468 0.408926 0.59365 -0.0216473 0.412495 0.59365 -0.0234902 0.416445 0.59365 -0.0246194 0.420656 0.59365 -0.025 0.425 0.64365 0.025 0.03 0.64365 -0.025 2.1 0.64365 0.025 2.1 0.64365 -0.025 0.03 0.59365 -0.025 0.425 0.59365 -0.025 2.1 0.64365 -0.025 2.1 0.64365 -0.025 0.03 0.59365 -0.025 0.03 0.64365 0.025 0.03 0.59365 0.025 0.425 0.59365 0.025 0.03 0.64365 0.025 2.1 0.59365 0.025 2.1 0.59365 0.025 2.1 0.64365 -0.025 2.1 0.59365 -0.025 2.1 0.64365 0.025 2.1 0.46865 0.15 0.03 0.46865 -0.15 0.03 0.46865 -0.15 0 0.46865 0.15 0 0.76865 0.15 0 0.76865 0.15 0.03 0.46865 0.15 0.03 0.46865 0.15 0 0.76865 -0.15 0 0.76865 0.15 0.03 0.76865 0.15 0 0.76865 -0.15 0.03 0.76865 -0.15 0 0.46865 -0.15 0.03 0.76865 -0.15 0.03 0.46865 -0.15 0 0.59365 0.025 0.03 0.46865 -0.15 0.03 0.46865 0.15 0.03 0.59365 -0.025 0.03 0.76865 0.15 0.03 0.76865 -0.15 0.03 0.64365 -0.025 0.03 0.64365 0.025 0.03 0.46865 0.15 0 0.76865 -0.15 0 0.76865 0.15 0 0.46865 -0.15 0 -0.90635 -0.0197285 0.440355 -0.90635 -0.016932 0.443393 0.59365 -0.016932 0.443393 -0.90635 0.025 0.425 0.59365 0.0246205 0.420661 0.59365 0.025 0.425 0.59365 -0.0197285 0.440355 -0.90635 -0.0219868 0.436899 0.59365 -0.0219868 0.436899 -0.90635 -0.0236454 0.433117 -0.90635 -0.024659 0.429115 0.59365 -0.0236454 0.433117 0.59365 -0.024659 0.429115 -0.90635 -0.025 0.425 0.59365 -0.025 0.425 -0.90635 -0.0246194 0.420656 -0.90635 -0.0234902 0.416445 0.59365 -0.0246194 0.420656 0.59365 -0.0234902 0.416445 -0.90635 -0.0216473 0.412495 0.59365 -0.0216473 0.412495 -0.90635 -0.0191468 0.408926 0.59365 -0.0191468 0.408926 -0.90635 -0.0160651 0.405845 0.59365 -0.0160651 0.405845 0.59365 -0.0124958 0.403347 -0.90635 -0.0124958 0.403347 0.59365 -0.00854727 0.401507 -0.90635 -0.00854727 0.401507 -0.90635 -0.00433946 0.40038 0.59365 -0.00433946 0.40038 -0.90635 -6.12323e-18 0.4 0.59365 -7.10543e-18 0.4 0.59365 -0.0136737 0.445929 -0.90635 -0.0136737 0.445929 0.59365 -0.0100424 0.447894 0.59365 -0.00613714 0.449235 -0.90635 -0.0100424 0.447894 -0.90635 -0.00613714 0.449235 0.59365 -0.00206448 0.449915 -0.90635 -0.00206448 0.449915 -0.90635 0.00206448 0.449915 0.59365 0.00206448 0.449915 0.59365 0.00613714 0.449235 -0.90635 0.00613714 0.449235 -0.90635 0.0100424 0.447894 0.59365 0.0100424 0.447894 -0.90635 0.0136737 0.445929 0.59365 0.0136737 0.445929 0.59365 0.016932 0.443393 -0.90635 0.016932 0.443393 -0.90635 0.0197285 0.440355 0.59365 0.0197285 0.440355 -0.90635 0.0219868 0.436899 0.59365 0.0219868 0.436899 0.59365 0.0236454 0.433117 -0.90635 0.0236454 0.433117 -0.90635 0.024659 0.429115 0.59365 0.024659 0.429115 -0.90635 0.0234934 0.416453 0.59365 0.0234934 0.416453 -0.90635 0.0246205 0.420661 -0.90635 0.0160742 0.405853 0.59365 0.0160742 0.405853 -0.90635 0.0191546 0.408935 -0.90635 0.0216529 0.412504 0.59365 0.0191546 0.408935 0.59365 0.0216529 0.412504 -0.90635 0.00855498 0.40151 0.59365 0.0043441 0.400381 0.59365 0.00855498 0.40151 0.59365 0.0125049 0.403353 -0.90635 0.0125049 0.403353 -0.90635 0.0043441 0.400381 -0.90635 0.016932 0.443393 -0.90635 0.025 2.1 -0.90635 0.0197285 0.440355 -0.90635 0.00206448 0.449915 -0.90635 -0.00206448 0.449915 -0.90635 -0.0236454 0.433117 -0.90635 -0.024659 0.429115 -0.90635 -0.025 2.1 -0.90635 -0.025 0.425 -0.90635 -0.0197285 0.440355 -0.90635 -0.0219868 0.436899 -0.90635 -0.0136737 0.445929 -0.90635 -0.016932 0.443393 -0.90635 -0.00613714 0.449235 -0.90635 -0.0100424 0.447894 -0.90635 0.00613714 0.449235 -0.90635 0.0100424 0.447894 -0.90635 0.0136737 0.445929 -0.90635 0.0236454 0.433117 -0.90635 0.0219868 0.436899 -0.90635 0.025 0.425 -0.90635 0.024659 0.429115 -1.08135 0.15 0.03 -1.08135 -0.15 0.03 -1.08135 -0.15 0 -1.08135 0.15 0 -0.78135 0.15 0 -0.78135 0.15 0.03 -1.08135 0.15 0.03 -1.08135 0.15 0 -0.78135 -0.15 0 -0.78135 0.15 0.03 -0.78135 0.15 0 -0.78135 -0.15 0.03 -0.78135 -0.15 0 -1.08135 -0.15 0.03 -0.78135 -0.15 0.03 -1.08135 -0.15 0 -1.08135 -0.15 0.03 -0.95635 -0.025 0.03 -0.90635 -0.025 0.03 -0.95635 0.025 0.03 -1.08135 0.15 0.03 -0.78135 0.15 0.03 -0.90635 0.025 0.03 -0.78135 -0.15 0.03 -1.08135 -0.15 0 -0.78135 -0.15 0 -0.78135 0.15 0 -1.08135 0.15 0 -0.90635 0.025 2.1 -0.95635 -0.025 2.1 -0.95635 0.025 2.1 -0.90635 -0.025 2.1 -0.95635 0.025 0.03 -0.90635 0.025 0.03 -0.90635 0.025 0.425 -0.90635 0.025 2.1 -0.95635 0.025 2.1 -0.90635 -0.025 0.425 -0.90635 -0.025 0.03 -0.95635 -0.025 0.03 -0.95635 -0.025 2.1 -0.90635 -0.025 2.1 -0.95635 0.025 0.03 -0.95635 0.025 2.1 -0.95635 -0.025 2.1 -0.95635 -0.025 0.03 -0.90635 0.0246205 0.420661 -0.90635 0.025 0.425 -0.90635 0.025 0.03 -0.90635 0.0216529 0.412504 -0.90635 0.0234934 0.416453 -0.90635 0.0160742 0.405853 -0.90635 0.0191546 0.408935 -0.90635 0.00855498 0.40151 -0.90635 0.0125049 0.403353 -0.90635 -6.12323e-18 0.4 -0.90635 0.0043441 0.400381 -0.90635 -0.00433946 0.40038 -0.90635 -0.025 0.03 -0.90635 -0.00854727 0.401507 -0.90635 -0.0124958 0.403347 -0.90635 -0.0160651 0.405845 -0.90635 -0.0191468 0.408926 -0.90635 -0.0216473 0.412495 -0.90635 -0.0234902 0.416445 -0.90635 -0.0246194 0.420656 -0.90635 -0.025 0.425</float_array>
          <technique_common>
            <accessor count="252" source="#ID5" stride="3">
              <param name="X" type="float"/>
              <param name="Y" type="float"/>
              <param name="Z" type="float"/>
            </accessor>
          </technique_common>
        </source>
        <source id="ID6">
          <float_array count="756" id="ID7">-1 -0 -1.43255e-16 -1 -0 -1.43255e-16 -1 -0 -1.43255e-16 -1 -0 -1.43255e-16 -1 -0 -1.43255e-16 -1 -0 -1.43255e-16 -1 -0 -1.43255e-16 -1 -0 -1.43255e-16 -1 -0 -1.43255e-16 -1 -0 -1.43255e-16 -1 -0 -1.43255e-16 -1 -0 -1.43255e-16 -1 -0 -1.43255e-16 -1 -0 -1.43255e-16 -1 -0 -1.43255e-16 -1 -0 -1.43255e-16 -1 -0 -1.43255e-16 -1 -0 -1.43255e-16 -1 -0 -1.43255e-16 -1 -0 -1.43255e-16 -1 -0 -1.43255e-16 -1 -0 -1.43255e-16 -1 -0 -1.43255e-16 -1 -0 -1.43255e-16 -1 -0 -1.43255e-16 -1 -0 -1.43255e-16 -1 -0 -1.43255e-16 -1 -0 -1.43255e-16 -1 -0 -1.43255e-16 -1 -0 -1.43255e-16 -1 -0 -1.43255e-16 -1 -0 -1.43255e-16 -1 -0 -1.43255e-16 -1 -0 -1.43255e-16 -1 -0 -1.43255e-16 -1 -0 -1.43255e-16 -1 -0 -1.43255e-16 -1 -0 -1.43255e-16 -1 -0 -1.43255e-16 -1 -0 -1.43255e-16 -1 -0 -1.43255e-16 -1 -0 -1.43255e-16 -1 -0 -1.43255e-16 1 0 0 1 0 0 1 0 0 1 0 0 0 -1 0 0 -1 0 0 -1 0 0 -1 0 0 -1 0 0 1 0 0 1 0 0 1 0 0 1 0 0 1 0 0 0 1 0 0 1 0 0 1 0 0 1 -1 -0 -0 -1 -0 -0 -1 -0 -0 -1 -0 -0 0 1 0 0 1 0 0 1 0 0 1 0 1 0 0 1 0 0 1 0 0 1 0 0 -0 -1 -0 -0 -1 -0 -0 -1 -0 -0 -1 -0 0 0 1 0 0 1 0 0 1 0 0 1 0 0 1 0 0 1 0 0 1 0 0 1 -0 -0 -1 -0 -0 -1 -0 -0 -1 -0 -0 -1 0 -0.789141 0.614213 0 -0.677282 0.735724 0 -0.677281 0.735724 0 1 4.37114e-08 0 0.984808 -0.173648 0 1 4.37114e-08 0 -0.789141 0.614213 0 -0.879474 0.475947 0 -0.879474 0.475947 0 -0.945817 0.324699 0 -0.986361 0.164595 0 -0.945817 0.324699 0 -0.986361 0.164595 0 -1 -1.19249e-08 0 -1 -1.19249e-08 0 -0.984808 -0.173648 0 -0.939693 -0.34202 0 -0.984808 -0.173648 0 -0.939693 -0.34202 0 -0.866025 -0.5 0 -0.866025 -0.5 0 -0.766044 -0.642788 0 -0.766044 -0.642788 0 -0.642788 -0.766044 0 -0.642787 -0.766045 0 -0.5 -0.866026 0 -0.5 -0.866026 0 -0.34202 -0.939693 0 -0.34202 -0.939693 0 -0.173648 -0.984808 0 -0.173648 -0.984808 0 1.74846e-07 -1 0 -3.01992e-07 -1 0 -0.546948 0.837166 0 -0.546948 0.837166 0 -0.401695 0.915773 0 -0.245485 0.9694 0 -0.401695 0.915773 0 -0.245486 0.9694 0 -0.0825795 0.996584 0 -0.0825795 0.996584 0 0.0825793 0.996584 0 0.0825793 0.996584 0 0.245485 0.9694 0 0.245486 0.9694 0 0.401695 0.915773 0 0.401695 0.915773 0 0.546948 0.837166 0 0.546948 0.837166 0 0.677282 0.735724 0 0.677282 0.735724 0 0.789141 0.614213 0 0.789141 0.614213 0 0.879474 0.475947 0 0.879474 0.475947 0 0.945817 0.324699 0 0.945817 0.3247 0 0.986361 0.164595 0 0.986361 0.164595 0 0.939693 -0.34202 0 0.939693 -0.34202 0 0.984808 -0.173648 0 0.642788 -0.766044 0 0.642788 -0.766044 0 0.766044 -0.642788 0 0.866025 -0.5 0 0.766044 -0.642788 0 0.866025 -0.5 0 0.34202 -0.939693 0 0.173648 -0.984808 0 0.34202 -0.939693 0 0.5 -0.866025 0 0.5 -0.866025 0 0.173648 -0.984808 1 0 0 1 0 0 1 0 0 1 0 0 1 0 0 1 0 0 1 0 0 1 0 0 1 0 0 1 0 0 1 0 0 1 0 0 1 0 0 1 0 0 1 0 0 1 0 0 1 0 0 1 0 0 1 0 0 1 0 0 1 0 0 1 0 0 -1 -0 -0 -1 -0 -0 -1 -0 -0 -1 -0 -0 0 1 0 0 1 0 0 1 0 0 1 0 1 0 0 1 0 0 1 0 0 1 0 0 -0 -1 -0 -0 -1 -0 -0 -1 -0 -0 -1 -0 0 0 1 0 0 1 0 0 1 0 0 1 0 0 1 0 0 1 0 0 1 0 0 1 0 0 -1 0 0 -1 0 0 -1 0 0 -1 0 0 1 0 0 1 0 0 1 0 0 1 0 1 0 0 1 0 0 1 0 0 1 0 0 1 0 0 -1 0 0 -1 0 0 -1 0 0 -1 0 0 -1 0 -1 0 -2.01859e-16 -1 0 -2.01859e-16 -1 0 -2.01859e-16 -1 0 -2.01859e-16 1 0 0 1 0 0 1 0 0 1 0 0 1 0 0 1 0 0 1 0 0 1 0 0 1 0 0 1 0 0 1 0 0 1 0 0 1 0 0 1 0 0 1 0 0 1 0 0 1 0 0 1 0 0 1 0 0 1 0 0 1 0 0</float_array>
          <technique_common>
            <accessor count="252" source="#ID7" stride="3">
              <param name="X" type="float"/>
              <param name="Y" type="float"/>
              <param name="Z" type="float"/>
            </accessor>
          </technique_common>
        </source>
        <vertices id="ID8">
          <input semantic="POSITION" source="#ID4"/>
          <input semantic="NORMAL" source="#ID6"/>
        </vertices>
        <triangles count="74" material="ID9">
          <input offset="0" semantic="VERTEX" source="#ID8"/>
          <p>89 91 90 92 94 93 89 96 95 95 91 89 97 96 98 96 97 95 99 100 98 97 98 100 99 102 101 101 100 99 103 102 104 102 103 101 105 106 104 103 104 106 105 108 107 107 106 105 109 108 110 108 109 107 109 110 111 112 113 111 111 110 112 113 115 114 115 113 112 116 114 117 115 117 114 118 119 116 116 117 118 120 119 118 120 121 119 122 90 91 123 122 124 122 123 90 125 126 124 123 124 126 125 128 127 127 126 125 128 129 127 130 129 131 128 131 129 132 133 130 130 131 132 133 135 134 135 133 132 136 134 137 135 137 134 138 139 136 136 137 138 139 141 140 141 139 138 142 140 143 141 143 140 144 145 142 142 143 144 145 147 146 147 145 144 147 94 146 148 150 149 146 94 92 151 153 152 154 156 155 157 159 158 160 159 161 121 162 158 157 158 162 120 162 121 160 161 151 161 159 157 153 155 152 151 152 160 154 148 156 153 154 155 149 150 93 156 148 149 92 93 150</p>
        </triangles>
        <triangles count="134" material="ID10">
          <input offset="0" semantic="VERTEX" source="#ID8"/>
          <p>0 2 1 3 5 4 1 7 6 0 1 6 1 9 8 7 1 8 1 11 10 9 1 10 1 4 12 11 1 12 1 3 4 3 14 13 5 3 13 3 16 15 14 3 15 3 18 17 16 3 17 3 20 19 18 3 19 20 3 21 22 24 23 25 26 24 27 28 24 24 28 25 24 30 29 27 24 29 24 22 31 30 24 31 32 23 24 32 24 33 32 33 34 33 36 35 34 33 35 33 38 37 36 33 37 33 40 39 38 33 39 33 42 41 40 33 41 43 45 44 44 46 43 47 49 48 47 51 50 50 49 47 52 54 53 55 53 56 55 52 53 57 59 58 57 58 60 61 63 62 61 64 63 65 67 66 67 65 68 69 71 70 69 70 72 73 75 74 74 76 73 77 79 78 77 78 80 81 83 82 82 83 78 81 77 84 81 84 83 81 79 77 83 80 78 85 87 86 86 88 85 163 165 164 164 167 166 168 170 169 170 171 169 172 170 173 170 168 173 174 170 175 170 172 175 176 170 177 170 174 177 170 176 167 178 179 164 178 164 166 180 163 164 180 164 179 181 164 182 165 182 164 183 164 184 164 181 184 170 167 164 185 187 186 185 188 187 189 191 190 191 189 192 193 195 194 193 194 196 197 199 198 198 200 197 201 203 202 204 205 201 206 204 207 203 208 206 206 205 204 202 204 201 201 208 203 206 207 203 209 211 210 211 209 212 213 215 214 214 216 213 217 219 218 220 219 221 217 221 219 222 224 223 222 225 224 226 225 222 227 229 228 229 227 230 231 233 232 234 233 235 233 231 235 233 237 236 234 237 233 233 239 238 236 239 233 233 241 240 238 241 233 242 243 240 244 245 243 244 243 242 246 247 243 246 243 245 248 249 243 248 243 247 240 243 233 250 243 249 251 243 250</p>
        </triangles>
      </mesh>
    </geometry>
  </library_geometries>

  <library_visual_scenes>
    <visual_scene id="ID1">
      <node id="ID2">
        <instance_geometry url="#ID3">
          <bind_material>
            <technique_common>
              <instance_material symbol="ID9" target="#ID9"/>
              <instance_material symbol="ID10" target="#ID10"/>
            </technique_common>
          </bind_material>
        </instance_geometry>
      </node>
    </visual_scene>
  </library_visual_scenes>

  <scene>
    <instance_visual_scene url="#ID1"/>
  </scene>

  <library_nodes/>

</COLLADA>
