<?xml version="1.0" encoding="UTF-8" standalone="no" ?>
<COLLADA version="1.4.1" xmlns="http://www.collada.org/2005/11/COLLADASchema">

  <asset>
    <contributor>
      <authoring_tool>ONSHAPE BY PTC INC, 1.214</authoring_tool>
    </contributor>
    <created>2026-05-02T22:21:34</created>
    <modified>2026-05-02T22:21:34</modified>
    <unit meter="1" name="meters"/>
    <up_axis>Z_UP</up_axis>
  </asset>

  <library_materials>
    <material id="ID9" name="ID9">
      <instance_effect url="#ID9-fx"/>
    </material>
    <material id="ID10" name="ID10">
      <instance_effect url="#ID10-fx"/>
    </material>
  </library_materials>

  <library_effects>
    <effect id="ID9-fx" name="ID9">
      <profile_COMMON>
        <technique sid="COMMON">
          <lambert>
            <diffuse>
              <color sid="diffuse">0.647059 0.647059 0.647059 1</color>
            </diffuse>
            <transparent opaque="A_ONE">
              <color sid="transparent">1 1 1 1</color>
            </transparent>
            <transparency>
              <float sid="transparency">1</float>
            </transparency>
          </lambert>
        </technique>
        <extra>
          <technique profile="OTHER">
            <double_sided>1</double_sided>
          </technique>
        </extra>
      </profile_COMMON>
    </effect>
    <effect id="ID10-fx" name="ID10">
      <profile_COMMON>
        <technique sid="COMMON">
          <lambert>
            <diffuse>
              <color sid="diffuse">1 0 0 1</color>
            </diffuse>
            <transparent opaque="A_ONE">
              <color sid="transparent">1 1 1 1</color>
            </transparent>
            <transparency>
              <float sid="transparency">1</float>
            </transparency>
          </lambert>
        </technique>
        <extra>
          <technique profile="OTHER">
            <double_sided>1</double_sided>
          </technique>
        </extra>
      </profile_COMMON>
    </effect>
  </library_effects>

  <library_geometries>
    <geometry id="ID3">
      <mesh>
        <source id="ID4">
          <float_array count="756" id="ID5">0.59365 -0.0136737 2.02593 0.59365 -0.0100424 2.02789 0.59365 -0.025 2.1 0.59365 -0.016932 2.02339 0.59365 -0.0197285 2.02036 0.59365 0.00613714 2.02923 0.59365 0.025 2.1 0.59365 0.00206448 2.02991 0.59365 -0.0236454 2.01312 0.59365 -0.024659 2.00911 0.59365 -0.025 2.005 0.59365 -0.0219868 2.0169 0.59365 -0.00613714 2.02923 0.59365 -0.00206448 2.02991 0.59365 0.0100424 2.02789 0.59365 0.0136737 2.02593 0.59365 0.016932 2.02339 0.59365 0.0197285 2.02036 0.59365 0.0219868 2.0169 0.59365 0.0236454 2.01312 0.59365 0.024659 2.00911 0.59365 0.025 2.005 0.59365 0.00855498 1.98151 0.59365 0.0043441 1.98038 0.59365 0.025 0.03 0.59365 0.025 2.005 0.59365 0.0246205 2.00066 0.59365 0.0234934 1.99645 0.59365 0.0216529 1.9925 0.59365 0.0191546 1.98893 0.59365 0.0160742 1.98585 0.59365 0.0125049 1.98335 0.59365 -7.10543e-18 1.98 0.59365 -0.025 0.03 0.59365 -0.00433946 1.98038 0.59365 -0.00854727 1.98151 0.59365 -0.0124958 1.98335 0.59365 -0.0160651 1.98585 0.59365 -0.0191468 1.98893 0.59365 -0.0216473 1.9925 0.59365 -0.0234902 1.99645 0.59365 -0.0246194 2.00066 0.59365 -0.025 2.005 0.64365 0.025 2.1 0.64365 0.025 0.03 0.64365 -0.025 0.03 0.64365 -0.025 2.1 0.59365 -0.025 2.005 0.59365 -0.025 2.1 0.64365 -0.025 2.1 0.64365 -0.025 0.03 0.59365 -0.025 0.03 0.64365 0.025 2.1 0.59365 0.025 2.1 0.59365 0.025 2.005 0.64365 0.025 0.03 0.59365 0.025 0.03 0.46865 0.15 0.03 0.46865 -0.15 0.03 0.46865 -0.15 0 0.46865 0.15 0 0.76865 0.15 0 0.76865 0.15 0.03 0.46865 0.15 0.03 0.46865 0.15 0 0.76865 -0.15 0 0.76865 0.15 0.03 0.76865 0.15 0 0.76865 -0.15 0.03 0.76865 -0.15 0 0.46865 -0.15 0.03 0.76865 -0.15 0.03 0.46865 -0.15 0 0.59365 0.025 0.03 0.46865 -0.15 0.03 0.46865 0.15 0.03 0.59365 -0.025 0.03 0.76865 0.15 0.03 0.76865 -0.15 0.03 0.64365 -0.025 0.03 0.64365 0.025 0.03 0.46865 0.15 0 0.76865 -0.15 0 0.76865 0.15 0 0.46865 -0.15 0 0.59365 0.025 2.1 0.64365 -0.025 2.1 0.59365 -0.025 2.1 0.64365 0.025 2.1 -0.90635 -0.0197285 2.02036 -0.90635 -0.016932 2.02339 0.59365 -0.016932 2.02339 -0.90635 0.025 2.005 0.59365 0.0246205 2.00066 0.59365 0.025 2.005 0.59365 -0.0197285 2.02036 -0.90635 -0.0219868 2.0169 0.59365 -0.0219868 2.0169 -0.90635 -0.0236454 2.01312 -0.90635 -0.024659 2.00911 0.59365 -0.0236454 2.01312 0.59365 -0.024659 2.00911 -0.90635 -0.025 2.005 0.59365 -0.025 2.005 -0.90635 -0.0246194 2.00066 -0.90635 -0.0234902 1.99645 0.59365 -0.0246194 2.00066 0.59365 -0.0234902 1.99645 -0.90635 -0.0216473 1.9925 0.59365 -0.0216473 1.9925 -0.90635 -0.0191468 1.98893 0.59365 -0.0191468 1.98893 -0.90635 -0.0160651 1.98585 0.59365 -0.0160651 1.98585 0.59365 -0.0124958 1.98335 -0.90635 -0.0124958 1.98335 0.59365 -0.00854727 1.98151 -0.90635 -0.00854727 1.98151 -0.90635 -0.00433946 1.98038 0.59365 -0.00433946 1.98038 -0.90635 -6.12323e-18 1.98 0.59365 -7.10543e-18 1.98 0.59365 -0.0136737 2.02593 -0.90635 -0.0136737 2.02593 0.59365 -0.0100424 2.02789 0.59365 -0.00613714 2.02923 -0.90635 -0.0100424 2.02789 -0.90635 -0.00613714 2.02923 0.59365 -0.00206448 2.02991 -0.90635 -0.00206448 2.02991 -0.90635 0.00206448 2.02991 0.59365 0.00206448 2.02991 0.59365 0.00613714 2.02923 -0.90635 0.00613714 2.02923 -0.90635 0.0100424 2.02789 0.59365 0.0100424 2.02789 -0.90635 0.0136737 2.02593 0.59365 0.0136737 2.02593 0.59365 0.016932 2.02339 -0.90635 0.016932 2.02339 -0.90635 0.0197285 2.02036 0.59365 0.0197285 2.02036 -0.90635 0.0219868 2.0169 0.59365 0.0219868 2.0169 0.59365 0.0236454 2.01312 -0.90635 0.0236454 2.01312 -0.90635 0.024659 2.00911 0.59365 0.024659 2.00911 -0.90635 0.0234934 1.99645 0.59365 0.0234934 1.99645 -0.90635 0.0246205 2.00066 -0.90635 0.0160742 1.98585 0.59365 0.0160742 1.98585 -0.90635 0.0191546 1.98893 -0.90635 0.0216529 1.9925 0.59365 0.0191546 1.98893 0.59365 0.0216529 1.9925 -0.90635 0.00855498 1.98151 0.59365 0.0043441 1.98038 0.59365 0.00855498 1.98151 0.59365 0.0125049 1.98335 -0.90635 0.0125049 1.98335 -0.90635 0.0043441 1.98038 -0.90635 0.00613714 2.02923 -0.90635 0.025 2.1 -0.90635 0.0100424 2.02789 -0.90635 0.00206448 2.02991 -0.90635 -0.0236454 2.01312 -0.90635 -0.024659 2.00911 -0.90635 -0.025 2.1 -0.90635 -0.025 2.005 -0.90635 -0.0197285 2.02036 -0.90635 -0.0219868 2.0169 -0.90635 -0.0136737 2.02593 -0.90635 -0.016932 2.02339 -0.90635 -0.00613714 2.02923 -0.90635 -0.0100424 2.02789 -0.90635 -0.00206448 2.02991 -0.90635 0.016932 2.02339 -0.90635 0.0136737 2.02593 -0.90635 0.0219868 2.0169 -0.90635 0.0197285 2.02036 -0.90635 0.0236454 2.01312 -0.90635 0.024659 2.00911 -0.90635 0.025 2.005 -0.90635 0.025 0.03 -0.90635 0.0246205 2.00066 -0.90635 0.025 2.005 -0.90635 0.0234934 1.99645 -0.90635 0.0191546 1.98893 -0.90635 0.0216529 1.9925 -0.90635 0.0125049 1.98335 -0.90635 0.0160742 1.98585 -0.90635 0.0043441 1.98038 -0.90635 0.00855498 1.98151 -0.90635 -6.12323e-18 1.98 -0.90635 -0.00433946 1.98038 -0.90635 -0.025 0.03 -0.90635 -0.00854727 1.98151 -0.90635 -0.0124958 1.98335 -0.90635 -0.0160651 1.98585 -0.90635 -0.0191468 1.98893 -0.90635 -0.0216473 1.9925 -0.90635 -0.0234902 1.99645 -0.90635 -0.0246194 2.00066 -0.90635 -0.025 2.005 -0.95635 0.025 2.1 -0.95635 -0.025 2.1 -0.95635 -0.025 0.03 -0.95635 0.025 0.03 -0.95635 -0.025 0.03 -0.95635 -0.025 2.1 -0.90635 -0.025 2.005 -0.90635 -0.025 0.03 -0.90635 -0.025 2.1 -0.90635 0.025 2.005 -0.90635 0.025 2.1 -0.95635 0.025 2.1 -0.95635 0.025 0.03 -0.90635 0.025 0.03 -1.08135 0.15 0.03 -1.08135 -0.15 0.03 -1.08135 -0.15 0 -1.08135 0.15 0 -0.78135 0.15 0 -0.78135 0.15 0.03 -1.08135 0.15 0.03 -1.08135 0.15 0 -0.78135 -0.15 0 -0.78135 0.15 0.03 -0.78135 0.15 0 -0.78135 -0.15 0.03 -0.78135 -0.15 0 -1.08135 -0.15 0.03 -0.78135 -0.15 0.03 -1.08135 -0.15 0 -1.08135 -0.15 0.03 -0.95635 -0.025 0.03 -0.90635 -0.025 0.03 -0.95635 0.025 0.03 -1.08135 0.15 0.03 -0.78135 0.15 0.03 -0.90635 0.025 0.03 -0.78135 -0.15 0.03 -1.08135 -0.15 0 -0.78135 0.15 0 -1.08135 0.15 0 -0.78135 -0.15 0 -0.90635 0.025 2.1 -0.95635 -0.025 2.1 -0.95635 0.025 2.1 -0.90635 -0.025 2.1</float_array>
          <technique_common>
            <accessor count="252" source="#ID5" stride="3">
              <param name="X" type="float"/>
              <param name="Y" type="float"/>
              <param name="Z" type="float"/>
            </accessor>
          </technique_common>
        </source>
        <source id="ID6">
          <float_array count="756" id="ID7">-1 -0 -1.58603e-16 -1 -0 -1.58603e-16 -1 -0 -1.58603e-16 -1 -0 -1.58603e-16 -1 -0 -1.58603e-16 -1 -0 -1.58603e-16 -1 -0 -1.58603e-16 -1 -0 -1.58603e-16 -1 -0 -1.58603e-16 -1 -0 -1.58603e-16 -1 -0 -1.58603e-16 -1 -0 -1.58603e-16 -1 -0 -1.58603e-16 -1 -0 -1.58603e-16 -1 -0 -1.58603e-16 -1 -0 -1.58603e-16 -1 -0 -1.58603e-16 -1 -0 -1.58603e-16 -1 -0 -1.58603e-16 -1 -0 -1.58603e-16 -1 -0 -1.58603e-16 -1 -0 -1.58603e-16 -1 -0 -1.58603e-16 -1 -0 -1.58603e-16 -1 -0 -1.58603e-16 -1 -0 -1.58603e-16 -1 -0 -1.58603e-16 -1 -0 -1.58603e-16 -1 -0 -1.58603e-16 -1 -0 -1.58603e-16 -1 -0 -1.58603e-16 -1 -0 -1.58603e-16 -1 -0 -1.58603e-16 -1 -0 -1.58603e-16 -1 -0 -1.58603e-16 -1 -0 -1.58603e-16 -1 -0 -1.58603e-16 -1 -0 -1.58603e-16 -1 -0 -1.58603e-16 -1 -0 -1.58603e-16 -1 -0 -1.58603e-16 -1 -0 -1.58603e-16 -1 -0 -1.58603e-16 1 0 0 1 0 0 1 0 0 1 0 0 0 -1 0 0 -1 0 0 -1 0 0 -1 0 0 -1 0 0 1 0 0 1 0 0 1 0 0 1 0 0 1 0 -1 -0 -0 -1 -0 -0 -1 -0 -0 -1 -0 -0 0 1 0 0 1 0 0 1 0 0 1 0 1 0 0 1 0 0 1 0 0 1 0 0 -0 -1 -0 -0 -1 -0 -0 -1 -0 -0 -1 -0 0 0 1 0 0 1 0 0 1 0 0 1 0 0 1 0 0 1 0 0 1 0 0 1 -0 -0 -1 -0 -0 -1 -0 -0 -1 -0 -0 -1 0 0 1 0 0 1 0 0 1 0 0 1 0 -0.789141 0.614213 0 -0.677282 0.735724 0 -0.677281 0.735724 0 1 4.37114e-08 0 0.984808 -0.173648 0 1 4.37114e-08 0 -0.789141 0.614213 0 -0.879474 0.475947 0 -0.879474 0.475947 0 -0.945817 0.324699 0 -0.986361 0.164595 0 -0.945817 0.324699 0 -0.986361 0.164595 0 -1 -1.19249e-08 0 -1 -1.19249e-08 0 -0.984808 -0.173648 0 -0.939693 -0.34202 0 -0.984808 -0.173648 0 -0.939693 -0.34202 0 -0.866025 -0.5 0 -0.866025 -0.5 0 -0.766044 -0.642788 0 -0.766044 -0.642788 0 -0.642788 -0.766044 0 -0.642787 -0.766045 0 -0.5 -0.866026 0 -0.5 -0.866026 0 -0.34202 -0.939693 0 -0.34202 -0.939693 0 -0.173648 -0.984808 0 -0.173648 -0.984808 0 1.74846e-07 -1 0 -3.01992e-07 -1 0 -0.546948 0.837166 0 -0.546948 0.837166 0 -0.401695 0.915773 0 -0.245485 0.9694 0 -0.401695 0.915773 0 -0.245486 0.9694 0 -0.0825795 0.996584 0 -0.0825795 0.996584 0 0.0825793 0.996584 0 0.0825793 0.996584 0 0.245485 0.9694 0 0.245486 0.9694 0 0.401695 0.915773 0 0.401695 0.915773 0 0.546948 0.837166 0 0.546948 0.837166 0 0.677282 0.735724 0 0.677282 0.735724 0 0.789141 0.614213 0 0.789141 0.614213 0 0.879474 0.475947 0 0.879474 0.475947 0 0.945817 0.324699 0 0.945817 0.3247 0 0.986361 0.164595 0 0.986361 0.164595 0 0.939693 -0.34202 0 0.939693 -0.34202 0 0.984808 -0.173648 0 0.642788 -0.766044 0 0.642788 -0.766044 0 0.766044 -0.642788 0 0.866025 -0.5 0 0.766044 -0.642788 0 0.866025 -0.5 0 0.34202 -0.939693 0 0.173648 -0.984808 0 0.34202 -0.939693 0 0.5 -0.866025 0 0.5 -0.866025 0 0.173648 -0.984808 1 0 0 1 0 0 1 0 0 1 0 0 1 0 0 1 0 0 1 0 0 1 0 0 1 0 0 1 0 0 1 0 0 1 0 0 1 0 0 1 0 0 1 0 0 1 0 0 1 0 0 1 0 0 1 0 0 1 0 0 1 0 0 1 0 0 1 0 0 1 0 0 1 0 0 1 0 0 1 0 0 1 0 0 1 0 0 1 0 0 1 0 0 1 0 0 1 0 0 1 0 0 1 0 0 1 0 0 1 0 0 1 0 0 1 0 0 1 0 0 1 0 0 1 0 0 1 0 0 -1 -0 -0 -1 -0 -0 -1 -0 -0 -1 -0 -0 0 -1 0 0 -1 0 0 -1 0 0 -1 0 0 -1 0 0 1 0 0 1 0 0 1 0 0 1 0 0 1 0 -1 -0 -0 -1 -0 -0 -1 -0 -0 -1 -0 -0 0 1 0 0 1 0 0 1 0 0 1 0 1 0 0 1 0 0 1 0 0 1 0 0 -0 -1 -0 -0 -1 -0 -0 -1 -0 -0 -1 -0 0 0 1 0 0 1 0 0 1 0 0 1 0 0 1 0 0 1 0 0 1 0 0 1 0 0 -1 0 0 -1 0 0 -1 0 0 -1 0 0 1 0 0 1 0 0 1 0 0 1</float_array>
          <technique_common>
            <accessor count="252" source="#ID7" stride="3">
              <param name="X" type="float"/>
              <param name="Y" type="float"/>
              <param name="Z" type="float"/>
            </accessor>
          </technique_common>
        </source>
        <vertices id="ID8">
          <input semantic="POSITION" source="#ID4"/>
          <input semantic="NORMAL" source="#ID6"/>
        </vertices>
        <triangles count="134" material="ID9">
          <input offset="0" semantic="VERTEX" source="#ID8"/>
          <p>0 2 1 3 4 2 5 7 6 8 9 2 2 9 10 2 4 11 2 11 8 3 2 0 2 13 12 1 2 12 6 7 13 2 6 13 6 15 14 5 6 14 6 17 16 15 6 16 6 19 18 17 6 18 6 21 20 19 6 20 22 24 23 24 26 25 26 24 27 24 29 28 27 24 28 24 31 30 29 24 30 32 23 24 31 24 22 32 24 33 32 33 34 33 36 35 34 33 35 33 38 37 36 33 37 33 40 39 38 33 39 33 42 41 40 33 41 43 45 44 45 43 46 47 49 48 47 51 50 50 49 47 52 54 53 52 55 54 55 56 54 57 59 58 57 60 59 61 63 62 63 61 64 65 67 66 65 66 68 69 71 70 70 72 69 73 75 74 73 74 76 77 79 78 78 79 74 77 73 80 77 80 79 77 75 73 79 76 74 81 83 82 82 84 81 85 87 86 85 86 88 163 165 164 164 166 163 167 169 168 169 170 168 171 169 172 169 167 172 173 169 174 169 171 174 175 169 176 169 173 176 177 166 164 169 175 177 178 164 179 165 179 164 180 164 181 164 178 181 180 182 164 169 177 164 182 183 164 183 184 164 185 187 186 186 188 185 185 190 189 188 190 185 185 192 191 189 192 185 185 194 193 191 194 185 193 195 185 196 197 195 198 199 197 198 197 196 200 201 197 200 197 199 202 203 197 202 197 201 204 205 197 204 197 203 185 195 197 206 208 207 206 209 208 210 212 211 212 210 213 212 214 211 215 217 216 215 218 217 215 219 218 220 222 221 220 223 222 224 226 225 226 224 227 228 230 229 228 229 231 232 234 233 233 235 232 236 238 237 239 240 236 241 239 242 238 243 241 241 240 239 237 239 236 236 243 238 241 242 238 244 246 245 244 245 247 248 250 249 249 251 248</p>
        </triangles>
        <triangles count="74" material="ID10">
          <input offset="0" semantic="VERTEX" source="#ID8"/>
          <p>89 91 90 92 94 93 89 96 95 95 91 89 97 96 98 96 97 95 99 100 98 97 98 100 99 102 101 101 100 99 103 102 104 102 103 101 105 106 104 103 104 106 105 108 107 107 106 105 109 108 110 108 109 107 109 110 111 112 113 111 111 110 112 113 115 114 115 113 112 116 114 117 115 117 114 118 119 116 116 117 118 120 119 118 120 121 119 122 90 91 123 122 124 122 123 90 125 126 124 123 124 126 125 128 127 127 126 125 128 129 127 130 129 131 128 131 129 132 133 130 130 131 132 133 135 134 135 133 132 136 134 137 135 137 134 138 139 136 136 137 138 139 141 140 141 139 138 142 140 143 141 143 140 144 145 142 142 143 144 145 147 146 147 145 144 147 94 146 148 150 149 146 94 92 151 153 152 154 156 155 157 159 158 160 159 161 121 162 158 157 158 162 120 162 121 160 161 151 161 159 157 153 155 152 151 152 160 154 148 156 153 154 155 149 150 93 156 148 149 92 93 150</p>
        </triangles>
      </mesh>
    </geometry>
  </library_geometries>

  <library_visual_scenes>
    <visual_scene id="ID1">
      <node id="ID2">
        <instance_geometry url="#ID3">
          <bind_material>
            <technique_common>
              <instance_material symbol="ID9" target="#ID9"/>
              <instance_material symbol="ID10" target="#ID10"/>
            </technique_common>
          </bind_material>
        </instance_geometry>
      </node>
    </visual_scene>
  </library_visual_scenes>

  <scene>
    <instance_visual_scene url="#ID1"/>
  </scene>

  <library_nodes/>

</COLLADA>
