<?xml version="1.0" encoding="UTF-8" standalone="no" ?>
<COLLADA version="1.4.1" xmlns="http://www.collada.org/2005/11/COLLADASchema">

  <asset>
    <contributor>
      <authoring_tool>ONSHAPE BY PTC INC, 1.214</authoring_tool>
    </contributor>
    <created>2026-04-29T15:34:36</created>
    <modified>2026-04-29T15:34:36</modified>
    <unit meter="1" name="meters"/>
    <up_axis>Z_UP</up_axis>
  </asset>

  <library_materials>
    <material id="ID9" name="ID9">
      <instance_effect url="#ID9-fx"/>
    </material>
  </library_materials>

  <library_effects>
    <effect id="ID9-fx" name="ID9">
      <profile_COMMON>
        <technique sid="COMMON">
          <lambert>
            <diffuse>
              <color sid="diffuse">1 0 0 1</color>
            </diffuse>
            <transparent opaque="A_ONE">
              <color sid="transparent">1 1 1 1</color>
            </transparent>
            <transparency>
              <float sid="transparency">1</float>
            </transparency>
          </lambert>
        </technique>
        <extra>
          <technique profile="OTHER">
            <double_sided>1</double_sided>
          </technique>
        </extra>
      </profile_COMMON>
    </effect>
  </library_effects>

  <library_geometries>
    <geometry id="ID3">
      <mesh>
        <source id="ID4">
          <float_array count="456" id="ID5">0.0475203 0.998 2 -0.014754 1.04647 2 -0.0225645 1.04379 2 0.017605 1.04379 2 0.0369773 1.02871 2 0.0313843 1.03479 2 0.0248677 1.03986 2 0.00979453 1.04647 2 0.0414939 1.0218 2 0.0448111 1.01424 2 0.00164922 1.04783 2 -0.00660871 1.04783 2 0.0468383 1.00623 2 0.0414939 0.974203 2 0.0448111 0.981765 2 -0.0363438 1.03479 2 -0.0298272 1.03986 2 0.0468383 0.98977 2 -0.0419368 1.02871 2 -0.0464534 1.0218 2 0.0369773 0.967289 2 0.017605 0.952211 2 -0.0517978 1.00623 2 -0.0524797 0.998 2 0.0313843 0.961214 2 -0.0497706 1.01424 2 0.0248677 0.956142 2 -0.0497706 0.981765 2 -0.0464534 0.974203 2 -0.00660871 0.948171 2 -0.0517978 0.98977 2 0.00164922 0.948171 2 0.00979453 0.94953 2 -0.0363438 0.961214 2 -0.0298272 0.956142 2 -0.0225645 0.952211 2 -0.014754 0.94953 2 -0.0419368 0.967289 2 0.0475203 0.998 0 -0.0225645 1.04379 0 -0.014754 1.04647 0 0.017605 1.04379 0 0.0313843 1.03479 0 0.0369773 1.02871 0 0.0248677 1.03986 0 0.0414939 1.0218 0 0.00979453 1.04647 0 0.0448111 1.01424 0 0.00164922 1.04783 0 -0.00660871 1.04783 0 0.0468383 1.00623 0 0.0414939 0.974203 0 -0.0363438 1.03479 0 0.0448111 0.981765 0 0.0468383 0.98977 0 -0.0298272 1.03986 0 -0.0419368 1.02871 0 0.0369773 0.967289 0 -0.0464534 1.0218 0 0.017605 0.952211 0 -0.0524797 0.998 0 -0.0517978 1.00623 0 0.0313843 0.961214 0 0.0248677 0.956142 0 -0.0497706 1.01424 0 -0.0497706 0.981765 0 -0.00660871 0.948171 0 -0.0464534 0.974203 0 -0.0517978 0.98977 0 0.00979453 0.94953 0 0.00164922 0.948171 0 -0.0363438 0.961214 0 -0.0225645 0.952211 0 -0.0298272 0.956142 0 -0.0419368 0.967289 0 -0.014754 0.94953 0 0.00164922 0.948171 0 -0.00660871 0.948171 2 -0.00660871 0.948171 0 0.0475203 0.998 2 0.0475203 0.998 0 0.0468383 1.00623 0 -0.014754 0.94953 0 -0.014754 0.94953 2 -0.0225645 0.952211 2 -0.0225645 0.952211 0 -0.0298272 0.956142 2 -0.0298272 0.956142 0 -0.0363438 0.961214 0 -0.0363438 0.961214 2 -0.0419368 0.967289 2 -0.0419368 0.967289 0 -0.0464534 0.974203 2 -0.0464534 0.974203 0 -0.0497706 0.981765 0 -0.0497706 0.981765 2 -0.0517978 0.98977 2 -0.0517978 0.98977 0 -0.0524797 0.998 2 -0.0524797 0.998 0 0.00164922 0.948171 2 0.00979453 0.94953 0 0.00979453 0.94953 2 0.017605 0.952211 0 0.017605 0.952211 2 0.0248677 0.956142 2 0.0248677 0.956142 0 0.0313843 0.961214 0 0.0313843 0.961214 2 0.0369773 0.967289 0 0.0369773 0.967289 2 0.0414939 0.974203 2 0.0414939 0.974203 0 0.0448111 0.981765 0 0.0448111 0.981765 2 0.0468383 0.98977 0 0.0468383 0.98977 2 0.0448111 1.01424 2 0.0468383 1.00623 2 0.0448111 1.01424 0 0.0313843 1.03479 2 0.0369773 1.02871 2 0.0313843 1.03479 0 0.0414939 1.0218 2 0.0414939 1.0218 0 0.0369773 1.02871 0 0.017605 1.04379 2 0.00979453 1.04647 0 0.00979453 1.04647 2 0.0248677 1.03986 0 0.017605 1.04379 0 0.0248677 1.03986 2 -0.014754 1.04647 0 -0.014754 1.04647 2 -0.00660871 1.04783 2 -0.00660871 1.04783 0 0.00164922 1.04783 2 0.00164922 1.04783 0 -0.0363438 1.03479 2 -0.0298272 1.03986 2 -0.0363438 1.03479 0 -0.0225645 1.04379 2 -0.0225645 1.04379 0 -0.0298272 1.03986 0 -0.0464534 1.0218 0 -0.0419368 1.02871 2 -0.0419368 1.02871 0 -0.0497706 1.01424 0 -0.0464534 1.0218 2 -0.0497706 1.01424 2 -0.0517978 1.00623 0 -0.0517978 1.00623 2</float_array>
          <technique_common>
            <accessor count="152" source="#ID5" stride="3">
              <param name="X" type="float"/>
              <param name="Y" type="float"/>
              <param name="Z" type="float"/>
            </accessor>
          </technique_common>
        </source>
        <source id="ID6">
          <float_array count="456" id="ID7">0 0 1 0 0 1 0 0 1 0 0 1 0 0 1 0 0 1 0 0 1 0 0 1 0 0 1 0 0 1 0 0 1 0 0 1 0 0 1 0 0 1 0 0 1 0 0 1 0 0 1 0 0 1 0 0 1 0 0 1 0 0 1 0 0 1 0 0 1 0 0 1 0 0 1 0 0 1 0 0 1 0 0 1 0 0 1 0 0 1 0 0 1 0 0 1 0 0 1 0 0 1 0 0 1 0 0 1 0 0 1 0 0 1 -0 -0 -1 -0 -0 -1 -0 -0 -1 -0 -0 -1 -0 -0 -1 -0 -0 -1 -0 -0 -1 -0 -0 -1 -0 -0 -1 -0 -0 -1 -0 -0 -1 -0 -0 -1 -0 -0 -1 -0 -0 -1 -0 -0 -1 -0 -0 -1 -0 -0 -1 -0 -0 -1 -0 -0 -1 -0 -0 -1 -0 -0 -1 -0 -0 -1 -0 -0 -1 -0 -0 -1 -0 -0 -1 -0 -0 -1 -0 -0 -1 -0 -0 -1 -0 -0 -1 -0 -0 -1 -0 -0 -1 -0 -0 -1 -0 -0 -1 -0 -0 -1 -0 -0 -1 -0 -0 -1 -0 -0 -1 -0 -0 -1 0.0825794 -0.996584 4.97188e-18 -0.0825794 -0.996584 -4.97189e-18 -0.0825794 -0.996584 -4.97189e-18 1 -8.74228e-08 6.02073e-17 1 -8.74228e-08 6.02073e-17 0.986361 0.164595 5.93862e-17 -0.245485 -0.9694 -1.478e-17 -0.245486 -0.9694 -1.478e-17 -0.401695 -0.915773 -2.4185e-17 -0.401695 -0.915773 -2.4185e-17 -0.546948 -0.837166 -3.29303e-17 -0.546948 -0.837166 -3.29303e-17 -0.677282 -0.735724 -4.07773e-17 -0.677282 -0.735724 -4.07773e-17 -0.78914 -0.614213 -4.7512e-17 -0.789141 -0.614213 -4.7512e-17 -0.879474 -0.475948 -5.29508e-17 -0.879474 -0.475947 -5.29508e-17 -0.945817 -0.324699 -5.69451e-17 -0.945817 -0.3247 -5.69451e-17 -0.986361 -0.164595 -5.93862e-17 -0.986361 -0.164595 -5.93862e-17 -1 1.74846e-07 -6.02073e-17 -1 -3.01992e-07 -6.02073e-17 0.0825794 -0.996584 4.97188e-18 0.245486 -0.9694 1.478e-17 0.245486 -0.9694 1.478e-17 0.401695 -0.915773 2.4185e-17 0.401695 -0.915773 2.4185e-17 0.546948 -0.837167 3.29303e-17 0.546948 -0.837167 3.29303e-17 0.677282 -0.735724 4.07773e-17 0.677282 -0.735724 4.07773e-17 0.78914 -0.614213 4.7512e-17 0.78914 -0.614213 4.7512e-17 0.879474 -0.475947 5.29508e-17 0.879474 -0.475947 5.29508e-17 0.945817 -0.324699 5.69451e-17 0.945817 -0.324699 5.69451e-17 0.986361 -0.164595 5.93862e-17 0.986361 -0.164595 5.93862e-17 0.945817 0.3247 5.69451e-17 0.986361 0.164595 5.93862e-17 0.945817 0.324699 5.69451e-17 0.677282 0.735724 4.07773e-17 0.789141 0.614213 4.7512e-17 0.677282 0.735724 4.07773e-17 0.879474 0.475947 5.29508e-17 0.879474 0.475947 5.29508e-17 0.78914 0.614213 4.7512e-17 0.401695 0.915773 2.4185e-17 0.245485 0.9694 1.478e-17 0.245485 0.9694 1.478e-17 0.546948 0.837166 3.29303e-17 0.401695 0.915773 2.4185e-17 0.546948 0.837166 3.29303e-17 -0.245485 0.9694 -1.478e-17 -0.245485 0.9694 -1.478e-17 -0.0825794 0.996584 -4.97188e-18 -0.0825794 0.996584 -4.97188e-18 0.0825794 0.996584 4.97189e-18 0.0825792 0.996584 4.97187e-18 -0.677282 0.735724 -4.07773e-17 -0.546948 0.837166 -3.29303e-17 -0.677282 0.735724 -4.07773e-17 -0.401695 0.915773 -2.4185e-17 -0.401695 0.915773 -2.4185e-17 -0.546948 0.837166 -3.29303e-17 -0.879474 0.475947 -5.29508e-17 -0.789141 0.614213 -4.7512e-17 -0.789141 0.614213 -4.7512e-17 -0.945817 0.324699 -5.69451e-17 -0.879474 0.475947 -5.29508e-17 -0.945817 0.324699 -5.69451e-17 -0.986361 0.164595 -5.93862e-17 -0.986361 0.164595 -5.93862e-17</float_array>
          <technique_common>
            <accessor count="152" source="#ID7" stride="3">
              <param name="X" type="float"/>
              <param name="Y" type="float"/>
              <param name="Z" type="float"/>
            </accessor>
          </technique_common>
        </source>
        <vertices id="ID8">
          <input semantic="POSITION" source="#ID4"/>
          <input semantic="NORMAL" source="#ID6"/>
        </vertices>
        <triangles count="148" material="ID9">
          <input offset="0" semantic="VERTEX" source="#ID8"/>
          <p>0 1 2 3 4 5 5 6 3 4 7 8 7 4 3 9 8 10 7 10 8 11 12 9 9 10 11 12 1 0 1 12 11 13 14 15 2 16 17 18 19 20 21 22 23 24 25 26 27 28 29 30 31 32 33 34 35 35 36 37 28 37 36 37 33 35 29 28 36 30 27 31 31 27 29 21 23 32 32 23 30 26 25 22 21 26 22 24 20 19 25 24 19 18 13 15 18 20 13 16 14 17 16 15 14 17 0 2 38 39 40 41 42 43 42 41 44 43 45 46 46 41 43 47 48 45 46 45 48 49 47 50 47 49 48 50 38 40 40 49 50 51 52 53 39 54 55 56 57 58 59 60 61 62 63 64 65 66 67 68 69 70 71 72 73 72 74 75 67 75 74 74 72 71 66 75 67 68 70 65 70 66 65 59 69 60 69 68 60 63 61 64 59 61 63 62 58 57 64 58 62 56 52 51 56 51 57 55 54 53 55 53 52 54 39 38 76 77 78 79 80 81 82 78 83 77 83 78 84 85 82 82 83 84 85 86 87 86 85 84 88 87 89 86 89 87 90 91 88 88 89 90 91 92 93 92 91 90 94 93 95 92 95 93 96 97 94 94 95 96 98 97 96 98 99 97 77 76 100 101 102 100 100 76 101 102 103 104 103 102 101 105 104 106 103 106 104 107 108 105 105 106 107 108 109 110 109 108 107 111 110 112 109 112 110 113 114 111 111 112 113 114 115 116 115 114 113 115 80 116 117 118 119 116 80 79 120 121 122 123 124 125 126 127 128 129 130 131 132 133 134 135 136 137 138 139 140 141 142 143 144 145 146 138 146 145 144 147 148 148 145 144 149 147 150 147 149 148 99 151 150 149 150 151 98 151 99 139 143 140 138 140 146 141 133 142 139 141 143 132 134 135 142 133 132 137 136 128 135 134 136 130 127 126 127 137 128 120 129 131 131 130 126 121 125 122 120 122 129 123 117 124 121 123 125 119 118 81 124 117 119 79 81 118</p>
        </triangles>
      </mesh>
    </geometry>
    <geometry id="ID10">
      <mesh>
        <source id="ID11">
          <float_array count="2196" id="ID12">0.467789 0.0381999 0 0.541171 -0.0263847 0 0.47501 0.0426463 0 0.536422 0.029411 0 0.523736 0.0405765 0 0.541171 0.0223847 0 0.530554 0.0355336 0 0.544664 0.014657 0 0.516163 0.0443945 0 0.508054 0.0468778 0 0.546801 0.00645004 0 0.499642 0.0479549 0 0.54752 -0.002 0 0.482879 0.0458083 0 0.544664 -0.018657 0 0.546801 -0.01045 0 0.491169 0.047595 0 0.456095 0.0259987 0 0.451959 0.0185951 0 0.523736 -0.0445765 0 0.530554 -0.0395336 0 0.536422 -0.033411 0 0.461422 0.0325969 0 0.449134 0.0105989 0 0.508054 -0.0508778 0 0.516163 -0.0483945 0 0.449134 -0.0145989 0 0.482879 -0.0498083 0 0.491169 -0.051595 0 0.4477 -0.0062403 0 0.499642 -0.0519549 0 0.4477 0.0022403 0 0.456095 -0.0299987 0 0.461422 -0.0365969 0 0.467789 -0.0421999 0 0.47501 -0.0466463 0 0.451959 -0.0225951 0 0.467789 0.0381999 2 0.47501 0.0426463 2 0.541171 -0.0263847 2 0.536422 0.029411 2 0.541171 0.0223847 2 0.523736 0.0405765 2 0.530554 0.0355336 2 0.544664 0.014657 2 0.516163 0.0443945 2 0.508054 0.0468778 2 0.546801 0.00645004 2 0.54752 -0.002 2 0.499642 0.0479549 2 0.482879 0.0458083 2 0.546801 -0.01045 2 0.544664 -0.018657 2 0.491169 0.047595 2 0.456095 0.0259987 2 0.523736 -0.0445765 2 0.451959 0.0185951 2 0.530554 -0.0395336 2 0.461422 0.0325969 2 0.536422 -0.033411 2 0.449134 0.0105989 2 0.516163 -0.0483945 2 0.508054 -0.0508778 2 0.449134 -0.0145989 2 0.491169 -0.051595 2 0.482879 -0.0498083 2 0.4477 -0.0062403 2 0.4477 0.0022403 2 0.499642 -0.0519549 2 0.456095 -0.0299987 2 0.467789 -0.0421999 2 0.461422 -0.0365969 2 0.47501 -0.0466463 2 0.451959 -0.0225951 2 -0.456656 -0.0519474 2 -0.463759 -0.0519195 2 -0.470841 -0.0513842 2 -0.484788 0.0447655 2 -0.418556 0.0386344 2 -0.412008 0.0348781 2 -0.484788 -0.0487655 2 -0.525504 -0.0463834 2 -0.532603 -0.0419075 2 -0.492859 -0.0510657 2 -0.509579 -0.0514935 2 -0.517756 -0.0496091 2 -0.477861 -0.0503346 2 -0.44957 -0.0514708 2 -0.442537 -0.0504856 2 -0.42879 -0.0469427 2 -0.435595 -0.0489815 2 -0.415828 -0.0411695 2 -0.422178 -0.0443471 2 -0.404264 -0.0329648 2 -0.409821 -0.0373839 2 -0.395083 -0.0221814 2 -0.399294 -0.0278957 2 -0.389764 -0.00907309 2 -0.391834 -0.0158687 2 -0.389058 -0.002 2 -0.477425 0.0464169 2 -0.43991 0.0459923 2 -0.432587 0.0441625 2 -0.395782 0.0192819 2 -0.392172 0.0126588 2 -0.447356 0.0472277 2 -0.462422 0.0479658 2 -0.454875 0.0478829 2 -0.469954 0.0474784 2 -0.425445 0.0417186 2 -0.405919 0.0304151 2 -0.400444 0.0252175 2 -0.389868 0.00549661 2 -0.501201 0.0479836 2 -0.492859 0.0470657 2 -0.509579 0.0474935 2 -0.517756 0.0456091 2 -0.525504 0.0423834 2 -0.532603 0.0379075 2 -0.538853 0.0323073 2 -0.548132 0.0183925 2 -0.544078 0.0257407 2 -0.552303 0.00219605 2 -0.5509 0.0104699 2 -0.552303 -0.00619605 2 -0.548132 -0.0223925 2 -0.5509 -0.0144699 2 -0.538853 -0.0363073 2 -0.544078 -0.0297407 2 -0.501201 -0.0519836 2 -0.532211 0.0381999 0 -0.458829 -0.0263847 0 -0.52499 0.0426463 0 -0.463578 0.029411 0 -0.476264 0.0405765 0 -0.458829 0.0223847 0 -0.469446 0.0355336 0 -0.455336 0.014657 0 -0.483837 0.0443945 0 -0.491946 0.0468778 0 -0.453199 0.00645004 0 -0.500358 0.0479549 0 -0.45248 -0.002 0 -0.517121 0.0458083 0 -0.455336 -0.018657 0 -0.453199 -0.01045 0 -0.508831 0.047595 0 -0.543905 0.0259987 0 -0.548041 0.0185951 0 -0.476264 -0.0445765 0 -0.469446 -0.0395336 0 -0.463578 -0.033411 0 -0.538578 0.0325969 0 -0.550866 0.0105989 0 -0.491946 -0.0508778 0 -0.483837 -0.0483945 0 -0.550866 -0.0145989 0 -0.517121 -0.0498083 0 -0.508831 -0.051595 0 -0.5523 -0.0062403 0 -0.500358 -0.0519549 0 -0.5523 0.0022403 0 -0.543905 -0.0299987 0 -0.538578 -0.0365969 0 -0.532211 -0.0421999 0 -0.52499 -0.0466463 0 -0.548041 -0.0225951 0 -0.480381 -0.0468486 0.533099 -0.480231 -0.0467768 1.989 -0.477966 -0.0455782 1.98353 -0.45248 -0.002 0.561 -0.45248 -0.002 1.922 -0.452871 0.00391984 1.92294 -0.473476 -0.0427275 1.97269 -0.475165 -0.0438756 0.538315 -0.475714 -0.0442319 1.97809 -0.465544 -0.035692 0.547936 -0.47019 -0.0401695 0.54329 -0.466888 -0.0371158 1.95679 -0.471256 -0.0410516 1.96733 -0.464753 -0.0348103 1.95163 -0.462663 -0.0322387 1.94658 -0.469059 -0.0391878 1.96203 -0.484788 -0.0487655 2 -0.485769 -0.0491234 0.52771 -0.491277 -0.050728 0.522202 -0.482505 -0.0478368 1.99449 -0.509579 -0.0514935 2 -0.501201 -0.0519836 2 -0.50248 -0.052 0.511 -0.496861 -0.0516831 0.516619 -0.496859 -0.0516833 0.505379 -0.500358 -0.0519549 0 -0.508831 -0.051595 0 -0.491946 -0.0508778 0 -0.491274 -0.050729 0.499794 -0.485764 -0.0491249 0.494284 -0.483837 -0.0483945 0 -0.476264 -0.0445765 0 -0.480374 -0.0468507 0.488894 -0.475156 -0.0438781 0.483676 -0.469446 -0.0395336 0 -0.46553 -0.0356929 0.47405 -0.470179 -0.0401719 0.478699 -0.463578 -0.033411 0 -0.461327 -0.0304066 0.469847 -0.457716 -0.0243044 0.466236 -0.458829 -0.0263847 0 -0.454984 -0.0173726 0.463504 -0.455336 -0.018657 0 -0.453199 -0.01045 0 -0.453205 -0.00985994 0.461725 -0.45248 -0.002 0 -0.45248 -0.002 0.461 -0.492859 -0.0510657 2 -0.517121 -0.0498083 0 -0.52499 -0.0466463 0 -0.517756 -0.0496091 2 -0.532211 -0.0421999 0 -0.525504 -0.0463834 2 -0.538578 -0.0365969 0 -0.532603 -0.0419075 2 -0.460632 -0.0293588 1.94168 -0.461343 -0.0304091 0.552137 -0.45774 -0.024308 0.55574 -0.458684 -0.0261158 1.93698 -0.456852 -0.0224385 1.93256 -0.454926 -0.0174281 0.558554 -0.453806 -0.0134215 1.9252 -0.455195 -0.0182385 1.92855 -0.453198 -0.00986405 0.560281 -0.452859 -0.00793644 1.92292 -0.538853 -0.0363073 2 -0.543905 -0.0299987 0 -0.544078 -0.0297407 2 -0.548132 -0.0223925 2 -0.548041 -0.0225951 0 -0.550866 -0.0145989 0 -0.5509 -0.0144699 2 -0.5523 -0.0062403 0 -0.552303 -0.00619605 2 -0.552303 0.00219605 2 -0.5523 0.0022403 0 -0.5509 0.0104699 2 -0.550866 0.0105989 0 -0.548041 0.0185951 0 -0.548132 0.0183925 2 -0.544078 0.0257407 2 -0.538853 0.0323073 2 -0.543905 0.0259987 0 -0.538578 0.0325969 0 -0.532603 0.0379075 2 -0.532211 0.0381999 0 -0.525504 0.0423834 2 -0.517756 0.0456091 2 -0.52499 0.0426463 0 -0.517121 0.0458083 0 -0.509579 0.0474935 2 -0.50248 0.048 0.511 -0.501201 0.0479836 2 -0.508831 0.047595 0 -0.496859 0.0476833 0.516621 -0.492859 0.0470657 2 -0.485764 0.0451249 0.527716 -0.484788 0.0447655 2 -0.491274 0.046729 0.522206 -0.482505 0.043837 1.99449 -0.480374 0.0428507 0.533106 -0.477966 0.0415788 1.98353 -0.480231 0.0427772 1.989 -0.475156 0.0398781 0.538324 -0.475713 0.0402329 1.97809 -0.473476 0.0387288 1.97269 -0.471256 0.0370533 1.96733 -0.470179 0.0361719 0.543301 -0.469058 0.0351901 1.96202 -0.46553 0.0316929 0.54795 -0.466887 0.0331188 1.95678 -0.462661 0.0282433 1.94658 -0.464751 0.0308141 1.95163 -0.461327 0.0264066 0.552153 -0.460629 0.0253644 1.94167 -0.457716 0.0203044 0.555764 -0.45868 0.0221222 1.93697 -0.454984 0.0133726 0.558496 -0.456847 0.0184456 1.93254 -0.453205 0.00585994 0.560275 -0.453798 0.0094217 1.92518 -0.455188 0.0142432 1.92854 -0.455336 0.014657 0 -0.454926 0.0134281 0.463446 -0.45774 0.020308 0.46626 -0.453198 0.00586405 0.461719 -0.453199 0.00645004 0 -0.458829 0.0223847 0 -0.461343 0.0264091 0.469863 -0.463578 0.029411 0 -0.465544 0.031692 0.474064 -0.469446 0.0355336 0 -0.47019 0.0361695 0.47871 -0.475165 0.0398756 0.483685 -0.480381 0.0428486 0.488901 -0.476264 0.0405765 0 -0.483837 0.0443945 0 -0.485769 0.0451234 0.49429 -0.491946 0.0468778 0 -0.491277 0.046728 0.499798 -0.496861 0.0476831 0.505381 -0.500358 0.0479549 0 -0.391834 -0.0158687 2 -0.389764 -0.00907309 2 0.449024 -0.0141682 1.15979 0.49752 0.048 1.04271 -0.454875 0.0478829 2 -0.462422 0.0479658 2 0.450576 -0.0192127 1.15604 0.492562 -0.0517536 1.05468 0.495041 -0.0519385 1.0487 -0.456656 -0.0519474 2 -0.395083 -0.0221814 2 0.452411 -0.0235678 1.15161 -0.44957 -0.0514708 2 0.487612 -0.0510084 1.06663 0.490086 -0.0514441 1.06066 0.454424 -0.0273516 1.14675 -0.399294 -0.0278957 2 0.456554 -0.0306666 1.14161 0.458766 -0.0335929 1.13627 -0.404264 -0.0329648 2 0.461038 -0.0361908 1.13079 0.463353 -0.0385052 1.1252 -0.409821 -0.0373839 2 0.480218 -0.0489108 1.08448 -0.435595 -0.0489815 2 0.477767 -0.0479325 1.0904 0.465704 -0.0405708 1.11952 -0.415828 -0.0411695 2 -0.42879 -0.0469427 2 0.475325 -0.0468037 1.09629 0.468081 -0.0424142 1.11378 -0.422178 -0.0443471 2 0.472895 -0.0455154 1.10216 0.470479 -0.0440568 1.10799 0.482677 -0.0497458 1.07855 -0.442537 -0.0504856 2 0.485142 -0.0504435 1.0726 0.49752 -0.052 1.04271 -0.463759 -0.0519195 2 0.44794 -0.00836108 1.16241 0.489292 -0.0513183 1.0393 -0.477861 -0.0503346 2 -0.470841 -0.0513842 2 -0.484788 -0.0487655 2 0.481288 -0.0492919 1.03599 -0.389058 -0.002 2 0.44752 -0.002 1.16342 -0.482505 -0.0478368 1.99449 0.473727 -0.045976 1.03286 -0.480231 -0.0467768 1.989 -0.475714 -0.0442319 1.97809 -0.477966 -0.0455782 1.98353 -0.473476 -0.0427275 1.97269 0.466815 -0.0414609 1.02999 -0.469059 -0.0391878 1.96203 -0.471256 -0.0410516 1.96733 0.46074 -0.0358697 1.02748 -0.466888 -0.0371158 1.95679 -0.464753 -0.0348103 1.95163 -0.462663 -0.0322387 1.94658 0.455667 -0.0293549 1.02537 -0.460632 -0.0293588 1.94168 -0.458684 -0.0261158 1.93698 -0.456852 -0.0224385 1.93256 0.451736 -0.022094 1.02375 -0.455195 -0.0182385 1.92855 0.449196 -0.0142386 1.02269 -0.453806 -0.0134215 1.9252 -0.452859 -0.00793644 1.92292 0.447844 -0.0061167 1.02213 -0.45248 -0.002 1.922 -0.452871 0.00391984 1.92294 0.447691 0.0021167 1.02207 0.449196 0.0102386 1.02269 -0.453798 0.0094217 1.92518 0.451864 0.018029 1.0238 -0.455188 0.0142432 1.92854 -0.45868 0.0221222 1.93697 -0.456847 0.0184456 1.93254 0.455656 0.0253371 1.02537 -0.462661 0.0282433 1.94658 -0.460629 0.0253644 1.94167 0.460727 0.0318555 1.02747 -0.464751 0.0308141 1.95163 -0.466887 0.0331188 1.95678 -0.469058 0.0351901 1.96202 0.466803 0.0374505 1.02999 -0.471256 0.0370533 1.96733 -0.475713 0.0402329 1.97809 -0.473476 0.0387288 1.97269 -0.477966 0.0415788 1.98353 0.473716 0.0419693 1.03285 -0.482505 0.043837 1.99449 -0.480231 0.0427772 1.989 0.48128 0.0452884 1.03598 -0.484788 0.0447655 2 -0.477425 0.0464169 2 0.489287 0.0473172 1.0393 -0.469954 0.0474784 2 0.487612 0.0470084 1.06663 -0.447356 0.0472277 2 0.490086 0.0474442 1.06066 0.470479 0.0400569 1.10799 -0.425445 0.0417186 2 0.472895 0.0415155 1.10216 0.480218 0.0449108 1.08448 -0.432587 0.0441625 2 -0.43991 0.0459923 2 0.461038 0.0321908 1.13079 0.458766 0.0295929 1.13627 -0.405919 0.0304151 2 -0.418556 0.0386344 2 0.465704 0.0365708 1.11952 -0.412008 0.0348781 2 0.452412 0.0195685 1.15161 0.450577 0.0152132 1.15604 -0.395782 0.0192819 2 -0.400444 0.0252175 2 0.456554 0.0266666 1.14161 0.454424 0.0233519 1.14675 0.449024 0.01017 1.15979 -0.389868 0.00549661 2 -0.392172 0.0126588 2 0.44794 0.00436108 1.16241 0.463353 0.0345052 1.1252 0.468081 0.0384143 1.11378 0.475325 0.0428037 1.09629 0.477767 0.0439325 1.0904 0.482677 0.0457458 1.07855 0.485142 0.0464435 1.0726 0.492562 0.0477536 1.05468 0.495041 0.0479385 1.0487 0.469478 -0.0433918 0.539042 -0.475165 -0.0438756 0.538315 -0.47019 -0.0401695 0.54329 -0.50248 0.048 0.511 0.491901 0.0476831 0.505381 0.49752 0.048 0.511 -0.480381 -0.0468486 0.533099 0.473911 -0.0460716 0.534609 0.478483 -0.0482318 0.530037 -0.485769 -0.0491234 0.52771 0.483159 -0.0498917 0.525361 -0.491277 -0.050728 0.522202 -0.496861 -0.0516831 0.516619 0.487908 -0.0510665 0.520613 0.492702 -0.0517674 0.515818 -0.50248 -0.052 0.511 0.491899 -0.0516833 0.505379 0.486314 -0.050729 0.499794 -0.491274 -0.050729 0.499794 0.49752 -0.052 0.511 0.480805 -0.0491249 0.494284 -0.480374 -0.0468507 0.488894 -0.485764 -0.0491249 0.494284 0.456367 -0.0304066 0.469847 -0.457716 -0.0243044 0.466236 -0.461327 -0.0304066 0.469847 0.475414 -0.0468507 0.488894 0.470196 -0.0438781 0.483676 -0.475156 -0.0438781 0.483676 0.46057 -0.0356929 0.47405 -0.470179 -0.0401719 0.478699 -0.46553 -0.0356929 0.47405 0.465219 -0.0401719 0.478699 0.452757 -0.0243044 0.466236 -0.454984 -0.0173726 0.463504 0.450024 -0.0173726 0.463504 -0.453205 -0.00985994 0.461725 0.448245 -0.00985994 0.461725 -0.45248 -0.002 0.461 -0.496859 -0.0516833 0.505379 0.44752 -0.002 0.461 0.46523 -0.0401695 0.54329 0.461223 -0.0363805 0.547297 -0.465544 -0.035692 0.547936 -0.461343 -0.0304091 0.552137 0.457529 -0.0320024 0.550991 -0.45774 -0.024308 0.55574 0.454238 -0.0270226 0.554282 0.451463 -0.02145 0.557057 -0.454926 -0.0174281 0.558554 -0.453198 -0.00986405 0.560281 0.449396 -0.0152995 0.559124 -0.45248 -0.002 0.561 0.448072 -0.00875879 0.560448 0.448032 0.00475879 0.560488 0.44752 -0.002 0.561 -0.453205 0.00585994 0.560275 0.449462 0.0112572 0.559059 -0.454984 0.0133726 0.558496 0.451472 0.0174197 0.557048 0.454213 0.0230193 0.554308 -0.457716 0.0203044 0.555764 -0.461327 0.0264066 0.552153 0.457512 0.0280002 0.551008 -0.46553 0.0316929 0.54795 0.461209 0.0323815 0.547311 0.465219 0.0361719 0.543301 -0.470179 0.0361719 0.543301 0.469469 0.0393943 0.539051 -0.475156 0.0398781 0.538324 -0.480374 0.0428507 0.533106 0.473904 0.0420737 0.534616 -0.485764 0.0451249 0.527716 0.478478 0.0442333 0.530043 0.483155 0.0458927 0.525365 -0.491274 0.046729 0.522206 -0.496859 0.0476833 0.516621 0.487905 0.047067 0.520616 0.492701 0.0477673 0.515819 -0.491277 0.046728 0.499798 0.486318 0.046728 0.499798 -0.496861 0.0476831 0.505381 -0.475165 0.0398756 0.483685 0.470205 0.0398756 0.483685 -0.480381 0.0428486 0.488901 -0.485769 0.0451234 0.49429 0.475421 0.0428486 0.488901 0.48081 0.0451234 0.49429 -0.465544 0.031692 0.474064 0.456383 0.0264091 0.469863 0.460584 0.031692 0.474064 0.46523 0.0361695 0.47871 -0.47019 0.0361695 0.47871 -0.45774 0.020308 0.46626 -0.454926 0.0134281 0.463446 0.449966 0.0134281 0.463446 0.45278 0.020308 0.46626 -0.461343 0.0264091 0.469863 -0.453198 0.00586405 0.461719 0.448239 0.00586405 0.461719 0.4477 0.0022403 2 0.4477 -0.0062403 2 0.44752 -0.002 1.16342 0.449134 -0.0145989 2 0.44794 -0.00836108 1.16241 0.450576 -0.0192127 1.15604 0.449024 -0.0141682 1.15979 0.450024 -0.0173726 0.463504 0.452757 -0.0243044 0.466236 0.451959 -0.0225951 0 0.454424 -0.0273516 1.14675 0.452411 -0.0235678 1.15161 0.451959 -0.0225951 2 0.456554 -0.0306666 1.14161 0.456095 -0.0299987 2 0.458766 -0.0335929 1.13627 0.467789 -0.0421999 2 0.463353 -0.0385052 1.1252 0.461422 -0.0365969 2 0.461038 -0.0361908 1.13079 0.470479 -0.0440568 1.10799 0.468081 -0.0424142 1.11378 0.465704 -0.0405708 1.11952 0.475325 -0.0468037 1.09629 0.47501 -0.0466463 2 0.477767 -0.0479325 1.0904 0.472895 -0.0455154 1.10216 0.482879 -0.0498083 2 0.487612 -0.0510084 1.06663 0.485142 -0.0504435 1.0726 0.482677 -0.0497458 1.07855 0.495041 -0.0519385 1.0487 0.492562 -0.0517536 1.05468 0.491169 -0.051595 2 0.490086 -0.0514441 1.06066 0.508054 -0.0508778 2 0.508054 -0.0508778 0 0.499642 -0.0519549 2 0.499642 -0.0519549 0 0.516163 -0.0483945 0 0.516163 -0.0483945 2 0.523736 -0.0445765 2 0.523736 -0.0445765 0 0.530554 -0.0395336 2 0.530554 -0.0395336 0 0.536422 -0.033411 0 0.536422 -0.033411 2 0.541171 -0.0263847 2 0.541171 -0.0263847 0 0.544664 -0.018657 2 0.544664 -0.018657 0 0.546801 -0.01045 0 0.546801 -0.01045 2 0.54752 -0.002 0 0.54752 -0.002 2 0.447691 0.0021167 1.02207 0.44752 -0.002 0.561 0.448032 0.00475879 0.560488 0.450577 0.0152132 1.15604 0.449134 0.0105989 2 0.449024 0.01017 1.15979 0.44794 0.00436108 1.16241 0.448239 0.00586405 0.461719 0.449134 0.0105989 0 0.449966 0.0134281 0.463446 0.452412 0.0195685 1.15161 0.451959 0.0185951 2 0.454424 0.0233519 1.14675 0.456554 0.0266666 1.14161 0.456095 0.0259987 2 0.463353 0.0345052 1.1252 0.461422 0.0325969 2 0.461038 0.0321908 1.13079 0.458766 0.0295929 1.13627 0.467789 0.0381999 2 0.465704 0.0365708 1.11952 0.468081 0.0384143 1.11378 0.472895 0.0415155 1.10216 0.475325 0.0428037 1.09629 0.47501 0.0426463 2 0.470479 0.0400569 1.10799 0.485142 0.0464435 1.0726 0.482879 0.0458083 2 0.482677 0.0457458 1.07855 0.480218 0.0449108 1.08448 0.491169 0.047595 2 0.490086 0.0474442 1.06066 0.492562 0.0477536 1.05468 0.487612 0.0470084 1.06663 0.49752 0.048 1.04271 0.49752 0.048 0.511 0.499642 0.0479549 0 0.499642 0.0479549 2 0.495041 0.0479385 1.0487 0.508054 0.0468778 2 0.508054 0.0468778 0 0.516163 0.0443945 0 0.516163 0.0443945 2 0.523736 0.0405765 0 0.523736 0.0405765 2 0.530554 0.0355336 2 0.530554 0.0355336 0 0.536422 0.029411 0 0.536422 0.029411 2 0.541171 0.0223847 0 0.541171 0.0223847 2 0.544664 0.014657 2 0.544664 0.014657 0 0.546801 0.00645004 0 0.546801 0.00645004 2 0.491901 0.0476831 0.505381 0.486318 0.046728 0.499798 0.491169 0.047595 0 0.489287 0.0473172 1.0393 0.483155 0.0458927 0.525365 0.487905 0.047067 0.520616 0.482879 0.0458083 0 0.48081 0.0451234 0.49429 0.470205 0.0398756 0.483685 0.47501 0.0426463 0 0.475421 0.0428486 0.488901 0.477767 0.0439325 1.0904 0.467789 0.0381999 0 0.46523 0.0361695 0.47871 0.460584 0.031692 0.474064 0.461422 0.0325969 0 0.465219 0.0361719 0.543301 0.469469 0.0393943 0.539051 0.466803 0.0374505 1.02999 0.456095 0.0259987 0 0.456383 0.0264091 0.469863 0.45278 0.020308 0.46626 0.451959 0.0185951 0 0.4477 0.0022403 0 0.44752 -0.002 0.461 0.448245 -0.00985994 0.461725 0.4477 -0.0062403 0 0.449134 -0.0145989 0 0.456095 -0.0299987 0 0.456367 -0.0304066 0.469847 0.46057 -0.0356929 0.47405 0.465219 -0.0401719 0.478699 0.461422 -0.0365969 0 0.461223 -0.0363805 0.547297 0.457529 -0.0320024 0.550991 0.46074 -0.0358697 1.02748 0.470196 -0.0438781 0.483676 0.467789 -0.0421999 0 0.47501 -0.0466463 0 0.475414 -0.0468507 0.488894 0.480805 -0.0491249 0.494284 0.486314 -0.050729 0.499794 0.482879 -0.0498083 0 0.480218 -0.0489108 1.08448 0.478483 -0.0482318 0.530037 0.481288 -0.0492919 1.03599 0.483159 -0.0498917 0.525361 0.491899 -0.0516833 0.505379 0.491169 -0.051595 0 0.49752 -0.052 0.511 0.492702 -0.0517674 0.515818 0.489292 -0.0513183 1.0393 0.49752 -0.052 1.04271 0.487908 -0.0510665 0.520613 0.473727 -0.045976 1.03286 0.473911 -0.0460716 0.534609 0.469478 -0.0433918 0.539042 0.466815 -0.0414609 1.02999 0.46523 -0.0401695 0.54329 0.455667 -0.0293549 1.02537 0.454238 -0.0270226 0.554282 0.451736 -0.022094 1.02375 0.451463 -0.02145 0.557057 0.449396 -0.0152995 0.559124 0.449196 -0.0142386 1.02269 0.448072 -0.00875879 0.560448 0.447844 -0.0061167 1.02213 0.449196 0.0102386 1.02269 0.449462 0.0112572 0.559059 0.451864 0.018029 1.0238 0.451472 0.0174197 0.557048 0.454213 0.0230193 0.554308 0.455656 0.0253371 1.02537 0.457512 0.0280002 0.551008 0.460727 0.0318555 1.02747 0.461209 0.0323815 0.547311 0.473716 0.0419693 1.03285 0.473904 0.0420737 0.534616 0.478478 0.0442333 0.530043 0.48128 0.0452884 1.03598 0.492701 0.0477673 0.515819</float_array>
          <technique_common>
            <accessor count="732" source="#ID12" stride="3">
              <param name="X" type="float"/>
              <param name="Y" type="float"/>
              <param name="Z" type="float"/>
            </accessor>
          </technique_common>
        </source>
        <source id="ID13">
          <float_array count="2196" id="ID14">-0 -0 -1 -0 -0 -1 -0 -0 -1 -0 -0 -1 -0 -0 -1 -0 -0 -1 -0 -0 -1 -0 -0 -1 -0 -0 -1 -0 -0 -1 -0 -0 -1 -0 -0 -1 -0 -0 -1 -0 -0 -1 -0 -0 -1 -0 -0 -1 -0 -0 -1 -0 -0 -1 -0 -0 -1 -0 -0 -1 -0 -0 -1 -0 -0 -1 -0 -0 -1 -0 -0 -1 -0 -0 -1 -0 -0 -1 -0 -0 -1 -0 -0 -1 -0 -0 -1 -0 -0 -1 -0 -0 -1 -0 -0 -1 -0 -0 -1 -0 -0 -1 -0 -0 -1 -0 -0 -1 -0 -0 -1 0 0 1 0 0 1 0 0 1 0 0 1 0 0 1 0 0 1 0 0 1 0 0 1 0 0 1 0 0 1 0 0 1 0 0 1 0 0 1 0 0 1 0 0 1 0 0 1 0 0 1 0 0 1 0 0 1 0 0 1 0 0 1 0 0 1 0 0 1 0 0 1 0 0 1 0 0 1 0 0 1 0 0 1 0 0 1 0 0 1 0 0 1 0 0 1 0 0 1 0 0 1 0 0 1 0 0 1 0 0 1 0 0 1 0 0 1 0 0 1 0 0 1 0 0 1 0 0 1 0 0 1 0 0 1 0 0 1 0 0 1 0 0 1 0 0 1 0 0 1 0 0 1 0 0 1 0 0 1 0 0 1 0 0 1 0 0 1 0 0 1 0 0 1 0 0 1 0 0 1 0 0 1 0 0 1 0 0 1 0 0 1 0 0 1 0 0 1 0 0 1 0 0 1 0 0 1 0 0 1 0 0 1 0 0 1 0 0 1 0 0 1 0 0 1 0 0 1 0 0 1 0 0 1 0 0 1 0 0 1 0 0 1 0 0 1 0 0 1 0 0 1 0 0 1 0 0 1 0 0 1 0 0 1 0 0 1 0 0 1 0 0 1 0 0 1 0 0 1 -0 -0 -1 -0 -0 -1 -0 -0 -1 -0 -0 -1 -0 -0 -1 -0 -0 -1 -0 -0 -1 -0 -0 -1 -0 -0 -1 -0 -0 -1 -0 -0 -1 -0 -0 -1 -0 -0 -1 -0 -0 -1 -0 -0 -1 -0 -0 -1 -0 -0 -1 -0 -0 -1 -0 -0 -1 -0 -0 -1 -0 -0 -1 -0 -0 -1 -0 -0 -1 -0 -0 -1 -0 -0 -1 -0 -0 -1 -0 -0 -1 -0 -0 -1 -0 -0 -1 -0 -0 -1 -0 -0 -1 -0 -0 -1 -0 -0 -1 -0 -0 -1 -0 -0 -1 -0 -0 -1 -0 -0 -1 0.442157 -0.896938 2.76127e-17 0.444963 -0.895549 2.77879e-17 0.490261 -0.871576 3.06168e-17 1 -3.20013e-12 6.245e-17 1 -9.14324e-13 6.245e-17 0.992922 0.118766 6.2008e-17 0.580052 -0.814579 3.62243e-17 0.546479 -0.837473 3.41276e-17 0.535308 -0.844657 3.343e-17 0.738932 -0.67378 4.61463e-17 0.645991 -0.763345 4.03422e-17 0.711815 -0.702367 4.44529e-17 0.624444 -0.781069 3.89966e-17 0.754522 -0.656275 4.71199e-17 0.79633 -0.604862 4.97309e-17 0.668406 -0.743797 4.1742e-17 0.353827 -0.935311 2.20965e-17 0.33437 -0.942442 2.08814e-17 0.224189 -0.974546 1.40006e-17 0.399474 -0.916744 2.49472e-17 -0.141978 -0.98987 -8.86653e-18 0.0255776 -0.999673 1.59732e-18 1.19249e-08 -1 7.44709e-25 0.112364 -0.993667 7.01716e-18 0.112349 -0.993669 7.01619e-18 0.0424415 -0.999099 2.65047e-18 -0.127018 -0.9919 -7.93226e-18 0.210679 -0.977555 1.31569e-17 0.223985 -0.974593 1.39879e-17 0.334137 -0.942524 2.08669e-17 0.372856 -0.927889 2.32849e-17 0.524307 -0.851529 3.2743e-17 0.44192 -0.897054 2.75979e-17 0.54626 -0.837616 3.41139e-17 0.660675 -0.750672 4.12592e-17 0.738777 -0.673949 4.61367e-17 0.645801 -0.763506 4.03303e-17 0.778036 -0.62822 4.85884e-17 0.822853 -0.568255 5.13872e-17 0.894934 -0.446198 5.58887e-17 0.873014 -0.487695 5.45198e-17 0.951385 -0.308004 5.9414e-17 0.942877 -0.33314 5.88827e-17 0.985616 -0.169001 6.15518e-17 0.987506 -0.157584 6.16698e-17 1 1.74846e-07 6.245e-17 1 1.74846e-07 6.245e-17 0.192412 -0.981314 1.20162e-17 -0.292823 -0.956167 -1.82868e-17 -0.450204 -0.892926 -2.81152e-17 -0.305534 -0.952181 -1.90806e-17 -0.594633 -0.803997 -3.71349e-17 -0.460483 -0.887669 -2.87572e-17 -0.721956 -0.691939 -4.50862e-17 -0.602459 -0.79815 -3.76236e-17 0.836947 -0.547284 5.22674e-17 0.822964 -0.568093 5.13942e-17 0.895018 -0.446031 5.58939e-17 0.875929 -0.48244 5.47018e-17 0.912578 -0.408904 5.69905e-17 0.951258 -0.308397 5.94061e-17 0.973555 -0.228451 6.07986e-17 0.945756 -0.324879 5.90625e-17 0.987501 -0.157615 6.16695e-17 0.992955 -0.118492 6.20101e-17 -0.727464 -0.686146 -4.54301e-17 -0.82851 -0.559975 -5.17405e-17 -0.831975 -0.554814 -5.19569e-17 -0.913049 -0.407851 -5.70199e-17 -0.911228 -0.411901 -5.69063e-17 -0.967733 -0.251978 -6.0435e-17 -0.968401 -0.249399 -6.04767e-17 -0.996397 -0.0848059 -6.22251e-17 -0.996472 -0.0839209 -6.22298e-17 -0.996472 0.083921 -6.22297e-17 -0.996397 0.0848059 -6.22251e-17 -0.968401 0.249399 -6.04767e-17 -0.967733 0.251978 -6.0435e-17 -0.911229 0.411901 -5.69063e-17 -0.913049 0.407851 -5.70199e-17 -0.831975 0.554813 -5.19569e-17 -0.727463 0.686146 -4.54301e-17 -0.82851 0.559975 -5.17405e-17 -0.721956 0.691939 -4.50862e-17 -0.602459 0.79815 -3.76236e-17 -0.594633 0.803997 -3.71349e-17 -0.460483 0.887669 -2.87572e-17 -0.305534 0.952181 -1.90806e-17 -0.450204 0.892926 -2.81152e-17 -0.292823 0.956167 -1.82868e-17 -0.141978 0.98987 -8.86654e-18 7.54979e-08 1 4.71485e-24 0.0255775 0.999673 1.59731e-18 -0.127018 0.9919 -7.93227e-18 0.112349 0.993669 7.01618e-18 0.192412 0.981314 1.20162e-17 0.334137 0.942524 2.08669e-17 0.353827 0.935311 2.20965e-17 0.223985 0.974593 1.39879e-17 0.399477 0.916743 2.49474e-17 0.44192 0.897055 2.75979e-17 0.490283 0.871563 3.06182e-17 0.445 0.895531 2.77903e-17 0.546259 0.837616 3.41139e-17 0.535342 0.844636 3.34321e-17 0.580102 0.814544 3.62274e-17 0.624494 0.78103 3.89997e-17 0.645801 0.763506 4.03303e-17 0.668446 0.743761 4.17445e-17 0.738777 0.67395 4.61367e-17 0.711857 0.702325 4.44555e-17 0.796397 0.604774 4.97351e-17 0.754581 0.656207 4.71236e-17 0.822853 0.568255 5.13872e-17 0.837017 0.547176 5.22718e-17 0.894934 0.446198 5.58887e-17 0.875997 0.482317 5.4706e-17 0.951385 0.308004 5.9414e-17 0.912634 0.408779 5.6994e-17 0.987506 0.157584 6.16698e-17 0.973565 0.228412 6.07992e-17 0.945794 0.324768 5.90649e-17 0.942877 0.33314 5.88827e-17 0.951258 0.308398 5.94061e-17 0.895018 0.446031 5.58939e-17 0.987501 0.157615 6.16695e-17 0.985616 0.169001 6.15518e-17 0.873014 0.487695 5.45198e-17 0.822964 0.568093 5.13942e-17 0.778036 0.62822 4.85884e-17 0.738932 0.67378 4.61463e-17 0.660675 0.750672 4.12592e-17 0.645991 0.763345 4.03422e-17 0.546479 0.837473 3.41276e-17 0.442156 0.896938 2.76127e-17 0.524307 0.851529 3.2743e-17 0.372856 0.927889 2.32849e-17 0.33437 0.942442 2.08814e-17 0.210679 0.977555 1.31569e-17 0.224189 0.974546 1.40006e-17 0.112365 0.993667 7.01718e-18 0.0424412 0.999099 2.65046e-18 0.679542 -0.276486 0.679542 0.700042 -0.141005 0.700042 0.685844 -0.243383 0.685844 -3.09086e-08 1 -3.09086e-08 0.0489999 0.997596 0.0489999 -0.0264653 0.999299 -0.0264653 0.663886 -0.344252 0.663886 0.0701285 -0.99507 0.0701285 0.0350542 -0.99877 0.0350542 0.0311061 -0.999032 0.0311061 0.647029 -0.40337 0.647029 0.63794 -0.431354 0.63794 0.101967 -0.989548 0.101967 0.140132 -0.980166 0.140132 0.105148 -0.988882 0.105148 0.609476 -0.507029 0.609476 0.604855 -0.517977 0.604855 0.57935 -0.57333 0.57935 0.548067 -0.631858 0.548067 0.55514 -0.619387 0.55514 0.515945 -0.683814 0.515945 0.483191 -0.730104 0.483191 0.499528 -0.707774 0.499528 0.2447 -0.938213 0.2447 0.241724 -0.939755 0.241724 0.279362 -0.918648 0.279362 0.449957 -0.771413 0.449957 0.439418 -0.783469 0.439418 0.309764 -0.89894 0.309764 0.313899 -0.896066 0.313899 0.416344 -0.80828 0.416344 0.375884 -0.847008 0.375884 0.348266 -0.8703 0.348266 0.382428 -0.841129 0.382428 0.209933 -0.954912 0.209933 0.172306 -0.969856 0.172306 0.175073 -0.968865 0.175073 8.43216e-09 -1 8.43216e-09 -0.039906 -0.998406 -0.039906 0.701358 -0.127251 0.701358 -0.116386 -0.986361 -0.116386 -0.180941 -0.966706 -0.180941 -0.110711 -0.987667 -0.110711 -0.250193 -0.935311 -0.250193 -0.229597 -0.945817 -0.229597 0.707107 1.74846e-07 0.707107 0.707107 1.74846e-07 0.707107 -0.282473 -0.916743 -0.282473 -0.336546 -0.879474 -0.336546 -0.314662 -0.895531 -0.314662 -0.378544 -0.844636 -0.378544 -0.346682 -0.871563 -0.346682 -0.410194 -0.814544 -0.410194 -0.434314 -0.789141 -0.434314 -0.472662 -0.743761 -0.472662 -0.441584 -0.78103 -0.441584 -0.520235 -0.677282 -0.520235 -0.503359 -0.702325 -0.503359 -0.533569 -0.656207 -0.533569 -0.563138 -0.604773 -0.563138 -0.591966 -0.546948 -0.591966 -0.591861 -0.547176 -0.591861 -0.619423 -0.482317 -0.619423 -0.645329 -0.408779 -0.645329 -0.64755 -0.401696 -0.64755 -0.668777 -0.324768 -0.668777 -0.68547 -0.245486 -0.68547 -0.688414 -0.228412 -0.688414 -0.702102 -0.118766 -0.702102 -0.704692 -0.0825793 -0.704692 -0.707107 1.50996e-07 -0.707107 -0.702125 0.118493 -0.702125 -0.704692 0.0825793 -0.704692 -0.68547 0.245486 -0.68547 -0.688408 0.228451 -0.688408 -0.64755 0.401695 -0.64755 -0.66875 0.324879 -0.66875 -0.619375 0.48244 -0.619375 -0.64529 0.408904 -0.64529 -0.591966 0.546948 -0.591966 -0.563091 0.604862 -0.563091 -0.591811 0.547284 -0.591811 -0.520235 0.677282 -0.520235 -0.533527 0.656275 -0.533527 -0.503329 0.702367 -0.503329 -0.472634 0.743797 -0.472634 -0.434314 0.789141 -0.434314 -0.441549 0.781069 -0.441549 -0.37852 0.844657 -0.37852 -0.410159 0.814579 -0.410159 -0.346667 0.871576 -0.346667 -0.336546 0.879474 -0.336546 -0.282471 0.916744 -0.282471 -0.314636 0.895549 -0.314636 -0.229597 0.945817 -0.229597 -0.250193 0.935311 -0.250193 -0.176579 0.968318 -0.176579 -0.116386 0.986361 -0.116386 -0.101789 0.989585 -0.101789 0.140125 0.980168 0.140125 0.124175 0.98446 0.124175 0.105131 0.988886 0.105131 0.382407 0.841148 0.382407 0.343203 0.874313 0.343203 0.348242 0.870319 0.348242 0.244685 0.938221 0.244685 0.271814 0.923166 0.271814 0.198611 0.959743 0.198611 0.515943 0.683816 0.515943 0.548067 0.631859 0.548067 0.538379 0.648303 0.538379 0.412072 0.812646 0.412072 0.449949 0.771421 0.449949 0.477519 0.73753 0.477519 0.637932 0.431375 0.637932 0.663884 0.34426 0.663884 0.639786 0.425848 0.639786 0.593123 0.544435 0.593123 0.579347 0.573336 0.579347 0.609469 0.507046 0.609469 0.685844 0.243384 0.685844 0.699133 0.149753 0.699133 0.675973 0.293465 0.675973 0.701358 0.127251 0.701358 0.48319 0.730106 0.48319 0.416329 0.808295 0.416329 0.313881 0.896079 0.313881 0.279357 0.918651 0.279357 0.209908 0.954923 0.209908 0.175049 0.968873 0.175049 0.0701016 0.995074 0.0701016 0.0350549 0.99877 0.0350549 0 -0.827797 0.561028 0 -0.837616 0.546259 0 -0.763506 0.645801 0 1 4.37114e-08 0 0.993667 -0.112365 0 1 4.37114e-08 0 -0.897055 0.44192 0 -0.881398 0.472375 0 -0.924607 0.380923 0 -0.942524 0.334137 0 -0.95781 0.287403 0 -0.974593 0.223985 0 -0.993669 0.112349 0 -0.981323 0.192365 0 -0.995351 0.0963127 0 -1 -1.19249e-08 0 -0.993669 -0.112348 0 -0.974593 -0.223985 0 -0.974546 -0.224189 0 -1 -1.19249e-08 0 -0.942524 -0.334137 0 -0.896938 -0.442156 0 -0.942442 -0.33437 0 -0.568255 -0.822853 0 -0.446031 -0.895018 0 -0.568093 -0.822964 0 -0.897055 -0.44192 0 -0.837616 -0.546259 0 -0.837473 -0.546479 0 -0.67395 -0.738777 0 -0.763345 -0.645991 0 -0.67378 -0.738932 0 -0.763506 -0.645801 0 -0.446198 -0.894934 0 -0.308398 -0.951257 0 -0.308004 -0.951385 0 -0.157615 -0.987501 0 -0.157583 -0.987506 0 1.74846e-07 -1 0 -0.993667 -0.112364 0 1.74846e-07 -1 0 -0.763345 0.645991 0 -0.687552 0.726135 0 -0.67395 0.738777 0 -0.568255 0.822853 0 -0.59997 0.800022 0 -0.446198 0.894934 0 -0.500342 0.865828 0 -0.388857 0.921298 0 -0.308004 0.951385 0 -0.157584 0.987506 0 -0.266223 0.963912 0 1.50996e-07 1 0 -0.135433 0.990787 0 0.135433 0.990787 0 -8.74228e-08 1 0 0.157615 0.987501 0 0.265905 0.963999 0 0.308398 0.951258 0 0.388751 0.921343 0 0.500508 0.865732 0 0.446031 0.895018 0 0.568093 0.822964 0 0.600129 0.799904 0 0.67378 0.738932 0 0.68772 0.725976 0 0.763506 0.645801 0 0.763345 0.645991 0 0.827942 0.560813 0 0.837473 0.546479 0 0.896938 0.442156 0 0.881522 0.472143 0 0.942442 0.33437 0 0.924704 0.380687 0 0.957878 0.287175 0 0.974546 0.224189 0 0.993667 0.112365 0 0.981353 0.192214 0 0.995349 0.096331 0 0.974593 -0.223985 0 0.974546 -0.224189 0 0.993669 -0.112349 0 0.837616 -0.54626 0 0.837473 -0.546479 0 0.897055 -0.44192 0 0.942524 -0.334137 0 0.896938 -0.442156 0 0.942442 -0.33437 0 0.67395 -0.738777 0 0.568093 -0.822964 0 0.67378 -0.738932 0 0.763345 -0.645991 0 0.763506 -0.645801 0 0.446198 -0.894934 0 0.308004 -0.951385 0 0.308398 -0.951258 0 0.446031 -0.895018 0 0.568255 -0.822853 0 0.157584 -0.987506 0 0.157615 -0.987501 -0.996397 0.0848059 0 -0.996397 -0.0848059 0 -1 -8.74228e-08 0 -0.967733 -0.251978 0 -0.991871 -0.127251 0 -0.938874 -0.34426 0 -0.96993 -0.243384 0 -0.951258 -0.308398 0 -0.895018 -0.446031 0 -0.911228 -0.411901 0 -0.861919 -0.507046 0 -0.902173 -0.431376 0 -0.911228 -0.411901 0 -0.81932 -0.573336 0 -0.82851 -0.559975 0 -0.775083 -0.631859 0 -0.594633 -0.803997 0 -0.683334 -0.730106 0 -0.721956 -0.691939 0 -0.729654 -0.683816 0 -0.540805 -0.841148 0 -0.588778 -0.808295 0 -0.636325 -0.771421 0 -0.443894 -0.896079 0 -0.450204 -0.892926 0 -0.39507 -0.918651 0 -0.492489 -0.870319 0 -0.292823 -0.956167 0 -0.198166 -0.980168 0 -0.247557 -0.968873 0 -0.296855 -0.954923 0 -0.049575 -0.99877 0 -0.0991387 -0.995074 0 -0.127018 -0.9919 0 -0.148678 -0.988886 0 0.210679 -0.977555 0 0.210679 -0.977555 0 0.042441 -0.999099 0 0.0424415 -0.999099 0 0.372856 -0.927889 0 0.372857 -0.927889 0 0.524307 -0.851529 0 0.524307 -0.851529 0 0.660675 -0.750672 0 0.660675 -0.750672 0 0.778036 -0.62822 0 0.778036 -0.62822 0 0.873014 -0.487695 0 0.873014 -0.487695 0 0.942877 -0.33314 0 0.942877 -0.33314 0 0.985616 -0.169001 0 0.985616 -0.169001 0 1 1.74846e-07 0 1 -3.01992e-07 0 -0.996584 0.0825793 0 -1 1.50996e-07 0 -0.990787 0.135433 0 -0.938877 0.344252 0 -0.967733 0.251978 0 -0.96993 0.243382 0 -0.991871 0.127251 0 -0.987506 0.157584 0 -0.967733 0.251978 0 -0.951385 0.308004 0 -0.902183 0.431354 0 -0.911228 0.411901 0 -0.861929 0.507029 0 -0.819324 0.57333 0 -0.82851 0.559975 0 -0.683336 0.730104 0 -0.721956 0.691939 0 -0.729657 0.683814 0 -0.775084 0.631858 0 -0.594633 0.803997 0 -0.636335 0.771413 0 -0.588799 0.80828 0 -0.492522 0.8703 0 -0.443921 0.896066 0 -0.450204 0.892926 0 -0.540834 0.841129 0 -0.24759 0.968865 0 -0.292823 0.956167 0 -0.29689 0.954912 0 -0.346058 0.938213 0 -0.127018 0.9919 0 -0.148701 0.988882 0 -0.0991765 0.99507 0 -0.198177 0.980166 0 -4.37114e-08 1 0 7.54979e-08 1 0 0.0424412 0.999099 0 0.0424412 0.999099 0 -0.049574 0.99877 0 0.210679 0.977555 0 0.210679 0.977555 0 0.372856 0.927889 0 0.372857 0.927889 0 0.524307 0.851529 0 0.524307 0.851529 0 0.660675 0.750672 0 0.660675 0.750672 0 0.778036 0.62822 0 0.778036 0.62822 0 0.873014 0.487695 0 0.873014 0.487695 0 0.942877 0.33314 0 0.942877 0.33314 0 0.985616 0.169001 0 0.985616 0.169001 0 -0.112349 0.993669 0 -0.223985 0.974593 0 -0.127018 0.9919 0 -0.164595 0.986361 0 -0.287404 0.95781 0 -0.192365 0.981323 0 -0.292823 0.956167 0 -0.334137 0.942524 0 -0.54626 0.837616 0 -0.450204 0.892926 0 -0.44192 0.897055 0 -0.395077 0.918648 0 -0.594633 0.803997 0 -0.645801 0.763506 0 -0.738777 0.67395 0 -0.721956 0.691939 0 -0.645991 0.763345 0 -0.561028 0.827797 0 -0.614213 0.78914 0 -0.82851 0.559975 0 -0.822853 0.568255 0 -0.894934 0.446198 0 -0.911229 0.411901 0 -0.996397 0.0848059 0 -1 -8.74228e-08 0 -0.987501 -0.157615 0 -0.996397 -0.0848059 0 -0.967733 -0.251978 0 -0.82851 -0.559975 0 -0.822964 -0.568093 0 -0.738932 -0.67378 0 -0.645991 -0.763345 0 -0.721956 -0.691939 0 -0.725976 -0.68772 0 -0.799904 -0.600129 0 -0.735724 -0.677281 0 -0.546479 -0.837473 0 -0.594633 -0.803997 0 -0.450204 -0.892926 0 -0.442157 -0.896938 0 -0.33437 -0.942442 0 -0.224189 -0.974546 0 -0.292823 -0.956167 0 -0.346037 -0.938221 0 -0.380687 -0.924704 0 -0.3247 -0.945817 0 -0.287175 -0.957878 0 -0.112364 -0.993667 0 -0.127018 -0.9919 0 1.19249e-08 -1 0 -0.0963312 -0.995349 0 -0.164594 -0.986361 0 1.19249e-08 -1 0 -0.192214 -0.981353 0 -0.475948 -0.879474 0 -0.472143 -0.881522 0 -0.560813 -0.827942 0 -0.614213 -0.789141 0 -0.645801 -0.763506 0 -0.837166 -0.546948 0 -0.865732 -0.500508 0 -0.915773 -0.401695 0 -0.921343 -0.388751 0 -0.963999 -0.265905 0 -0.9694 -0.245485 0 -0.990787 -0.135433 0 -0.996584 -0.0825793 0 -0.9694 0.245486 0 -0.963911 0.266223 0 -0.915773 0.401695 0 -0.921298 0.388857 0 -0.865828 0.500342 0 -0.837166 0.546948 0 -0.800022 0.59997 0 -0.735724 0.677282 0 -0.726135 0.687552 0 -0.475947 0.879474 0 -0.472375 0.881398 0 -0.380923 0.924607 0 -0.324699 0.945817 0 -0.096313 0.995351 0</float_array>
          <technique_common>
            <accessor count="732" source="#ID14" stride="3">
              <param name="X" type="float"/>
              <param name="Y" type="float"/>
              <param name="Z" type="float"/>
            </accessor>
          </technique_common>
        </source>
        <vertices id="ID15">
          <input semantic="POSITION" source="#ID11"/>
          <input semantic="NORMAL" source="#ID13"/>
        </vertices>
        <triangles count="730" material="ID9">
          <input offset="0" semantic="VERTEX" source="#ID15"/>
          <p>0 2 1 3 5 4 3 4 6 7 8 5 4 5 8 9 7 10 7 9 8 10 12 11 11 9 10 13 15 14 11 12 16 17 19 18 20 22 21 23 25 24 26 28 27 29 31 30 32 34 33 35 32 36 36 27 35 32 35 34 29 28 26 26 27 36 30 28 29 23 24 31 24 30 31 19 25 18 25 23 18 20 17 22 19 17 20 21 0 1 22 0 21 2 13 14 2 14 1 12 15 16 16 15 13 37 39 38 40 42 41 40 43 42 44 41 45 42 45 41 46 47 44 44 45 46 47 49 48 49 47 46 50 52 51 49 53 48 54 56 55 57 59 58 60 62 61 63 65 64 66 68 67 69 71 70 72 73 69 73 72 65 69 70 72 66 63 64 63 73 65 68 66 64 60 67 62 62 67 68 55 56 61 61 56 60 57 58 54 55 57 54 59 39 37 58 59 37 38 52 50 38 39 52 48 53 51 53 50 51 74 76 75 77 79 78 80 82 81 83 85 84 74 87 86 86 76 74 80 85 83 86 88 80 88 86 87 80 90 89 88 90 80 80 92 91 89 92 80 80 94 93 91 94 80 80 96 95 93 96 80 80 98 97 95 98 80 97 99 80 100 102 101 77 104 103 105 107 106 108 105 106 100 101 108 108 101 105 77 109 102 100 77 102 79 77 110 77 78 109 111 77 103 111 110 77 77 99 112 77 112 104 77 80 99 113 115 114 116 77 114 114 115 116 117 118 77 117 77 116 118 119 77 77 121 120 119 121 77 77 123 122 120 123 77 124 80 122 77 122 80 125 80 126 80 124 126 127 80 128 80 125 128 81 85 80 80 127 82 83 84 129 130 132 131 133 135 134 133 134 136 137 138 135 134 135 138 139 137 140 137 139 138 140 142 141 141 139 140 143 145 144 141 142 146 147 149 148 150 152 151 153 155 154 156 158 157 159 161 160 162 164 163 165 162 166 166 157 165 162 165 164 159 158 156 156 157 166 160 158 159 153 154 161 154 160 161 149 155 148 155 153 148 150 147 152 149 147 150 151 130 131 152 130 151 132 143 144 132 144 131 142 145 146 146 145 143 167 169 168 170 172 171 173 175 174 169 174 175 176 178 177 173 177 179 176 180 178 181 180 176 179 177 182 177 178 182 174 169 167 174 177 173 183 185 184 168 186 167 187 189 188 190 188 189 191 189 192 193 192 189 194 195 191 191 192 194 196 194 197 194 196 195 198 199 197 196 197 199 198 201 200 200 199 198 202 203 201 201 203 200 204 205 202 202 201 204 205 207 206 207 205 204 208 206 209 207 209 206 210 211 208 208 209 210 212 211 210 211 212 213 186 184 167 183 214 185 186 183 184 188 190 214 185 214 190 187 215 193 193 189 187 215 217 216 217 215 187 218 216 219 217 219 216 220 218 221 218 219 221 181 223 222 223 181 176 224 225 223 222 223 225 224 227 226 226 225 224 228 229 227 227 229 226 230 231 228 228 227 230 170 231 230 221 232 220 170 171 231 233 232 234 232 233 220 235 236 234 233 234 236 235 238 237 237 236 235 239 238 240 238 239 237 241 242 240 239 240 242 243 244 242 242 241 243 244 246 245 246 244 243 246 247 245 248 249 247 245 247 249 248 251 250 250 249 248 252 251 253 251 252 250 254 255 253 252 253 255 254 257 256 256 255 254 257 259 258 257 260 256 261 259 262 259 261 258 263 265 264 261 262 265 266 267 263 263 264 266 267 269 268 269 267 266 270 268 271 268 270 267 271 272 270 273 275 274 270 272 274 276 274 277 275 277 274 278 276 279 279 276 277 278 281 280 280 276 278 280 283 282 283 280 281 284 282 285 283 285 282 286 284 287 284 285 288 172 170 286 289 291 290 292 293 290 287 172 286 288 287 284 294 295 291 296 297 295 298 299 297 300 302 301 272 273 274 300 299 298 303 304 301 305 306 304 264 265 262 305 307 306 308 258 307 308 260 258 257 258 260 305 308 307 303 305 304 302 303 301 298 302 300 296 298 297 294 296 295 289 294 291 293 289 290 212 293 292 292 213 212 309 311 310 312 314 313 315 311 309 316 318 317 319 320 315 321 323 322 324 320 325 320 319 325 326 328 327 325 328 326 329 331 330 332 334 333 330 336 335 337 334 338 339 336 340 337 338 341 340 341 342 339 340 342 337 341 340 335 336 339 337 333 334 329 328 331 336 330 331 343 332 333 327 328 329 344 343 333 324 325 326 322 345 344 343 344 345 319 315 309 344 321 322 316 321 318 316 323 321 318 347 346 346 317 318 348 310 311 347 349 346 349 351 350 351 349 347 352 353 350 349 350 353 348 354 310 348 355 354 352 356 353 357 356 358 356 357 353 357 360 359 358 360 357 361 362 359 357 359 362 363 362 364 362 361 364 363 366 365 365 362 363 367 368 365 367 365 366 369 368 370 368 369 365 370 371 369 372 373 371 369 371 373 374 375 373 373 372 374 376 377 375 376 375 374 378 377 379 377 378 375 380 381 379 378 379 381 380 383 382 382 381 380 382 385 384 385 382 383 384 387 386 385 387 384 384 386 388 389 388 390 388 386 390 389 392 391 391 388 389 393 394 391 393 391 392 395 394 396 394 395 391 395 398 397 396 398 395 399 400 397 395 397 400 401 400 402 400 399 402 401 404 403 403 400 401 405 403 404 406 405 407 405 406 403 312 406 314 407 314 406 408 410 409 411 413 412 414 416 415 417 419 418 420 422 421 423 425 424 426 428 427 429 431 430 431 429 424 354 432 430 429 430 432 355 432 354 431 424 425 425 423 428 419 426 427 426 425 428 422 419 417 418 419 427 433 421 422 433 422 417 434 420 421 420 411 412 411 420 434 435 412 413 415 435 436 435 415 412 414 437 416 436 414 415 409 416 438 437 438 416 410 439 409 409 438 408 440 313 439 409 439 313 312 313 440 441 443 442 444 446 445 447 448 442 441 442 448 447 450 449 449 448 447 451 450 452 450 451 449 453 454 452 451 452 454 453 456 455 455 454 453 457 459 458 456 460 455 461 463 462 458 463 461 464 466 465 467 461 462 468 467 469 466 464 470 471 468 469 472 466 470 473 471 472 473 472 470 469 467 462 468 471 473 465 475 474 465 474 464 459 463 458 476 474 475 477 478 476 476 475 477 478 477 479 459 457 480 479 481 478 480 457 460 456 480 460 443 441 482 483 484 443 443 482 483 484 486 485 486 484 483 487 485 488 486 488 485 489 490 487 487 488 489 490 492 491 492 490 489 493 491 494 492 494 491 495 493 496 493 494 496 495 498 497 497 493 495 499 498 500 498 499 497 501 502 500 499 500 502 501 504 503 503 502 501 505 504 506 504 505 503 507 508 506 505 506 508 509 510 508 508 507 509 510 512 511 512 510 509 513 511 514 512 514 511 515 516 513 513 514 515 516 518 517 518 516 515 444 517 519 518 519 517 520 522 521 444 519 446 523 525 524 526 528 527 529 531 530 532 531 533 534 536 535 537 534 538 539 535 540 536 540 535 481 479 539 539 540 481 536 534 537 530 537 538 533 531 529 529 530 538 523 532 533 525 527 524 523 524 532 526 520 528 525 526 527 521 522 445 528 520 521 444 445 522 541 543 542 542 545 544 545 542 543 544 547 546 548 550 549 551 553 552 553 546 552 554 556 555 554 555 551 557 559 558 560 558 559 561 557 562 557 563 562 564 566 565 564 565 567 568 570 569 571 570 568 572 574 573 574 575 573 576 578 577 579 577 578 580 581 576 576 577 580 581 583 582 583 581 580 584 582 585 583 585 582 586 587 584 584 585 586 587 589 588 589 587 586 590 588 591 589 591 588 592 593 590 590 591 592 594 593 592 594 595 593 596 598 597 599 601 600 600 601 602 603 605 604 599 607 606 608 610 609 610 608 607 611 613 612 612 613 614 615 617 616 611 615 616 618 620 619 618 621 620 622 624 623 623 624 625 626 628 627 629 626 627 630 632 631 630 634 633 635 636 632 632 633 635 636 638 637 638 636 635 639 637 640 638 640 637 641 642 639 639 640 641 642 644 643 644 642 641 645 643 646 644 646 643 647 648 645 645 646 647 648 650 649 650 648 647 650 595 649 649 595 594 633 632 630 651 653 652 628 626 634 633 634 626 654 656 655 626 629 623 657 658 652 623 629 622 659 661 660 625 662 623 658 660 661 619 620 662 623 662 620 663 659 660 663 664 659 620 621 615 665 664 666 615 621 617 667 669 668 615 611 612 670 672 671 612 614 610 670 671 665 673 672 670 610 614 609 672 673 605 607 608 606 604 605 673 674 603 604 600 607 599 674 675 603 600 602 541 676 675 677 543 541 602 677 678 676 676 678 548 544 545 547 678 550 548 550 679 549 553 544 546 679 680 549 553 551 555 679 681 680 681 683 682 555 556 559 684 686 685 559 556 560 687 682 688 557 558 563 688 689 687 689 690 687 557 561 565 689 691 690 565 561 567 691 693 692 565 566 568 571 568 694 568 566 694 695 697 696 692 699 698 568 569 574 698 699 700 574 569 575 701 703 702 574 572 578 703 578 572 579 578 703 699 579 700 579 703 700 704 701 702 704 702 697 697 702 696 693 699 692 695 696 705 689 693 691 706 695 705 706 705 707 708 707 705 707 708 709 684 709 686 683 688 682 685 686 710 679 683 681 711 685 710 711 710 712 713 711 712 713 712 714 715 714 712 714 715 716 717 716 715 716 717 597 598 596 718 674 677 675 719 598 718 720 719 718 721 719 720 720 722 721 723 722 720 723 724 722 725 724 723 670 665 666 725 726 724 726 725 667 668 669 727 663 666 664 728 668 727 727 729 728 730 729 727 729 730 655 730 654 655 657 660 658 656 654 731 653 657 652 630 731 654 632 653 631 651 631 653 630 631 731 725 669 667 717 596 597 708 686 709 700 703 701</p>
        </triangles>
      </mesh>
    </geometry>
  </library_geometries>

  <library_visual_scenes>
    <visual_scene id="ID1">
      <node id="ID2" name="69f2250bd1484007354f592a">
        <instance_geometry url="#ID3">
          <bind_material>
            <technique_common>
              <instance_material symbol="ID9" target="#ID9"/>
            </technique_common>
          </bind_material>
        </instance_geometry>
        <instance_geometry url="#ID10">
          <bind_material>
            <technique_common>
              <instance_material symbol="ID9" target="#ID9"/>
            </technique_common>
          </bind_material>
        </instance_geometry>
      </node>
    </visual_scene>
  </library_visual_scenes>

  <scene>
    <instance_visual_scene url="#ID1"/>
  </scene>

  <library_nodes/>

</COLLADA>
