<?xml version="1.0" encoding="UTF-8" standalone="no" ?>
<COLLADA version="1.4.1" xmlns="http://www.collada.org/2005/11/COLLADASchema">

  <asset>
    <contributor>
      <authoring_tool>ONSHAPE BY PTC INC, 1.214</authoring_tool>
    </contributor>
    <created>2026-04-29T15:22:38</created>
    <modified>2026-04-29T15:22:38</modified>
    <unit meter="1" name="meters"/>
    <up_axis>Z_UP</up_axis>
  </asset>

  <library_materials>
    <material id="ID9" name="ID9">
      <instance_effect url="#ID9-fx"/>
    </material>
    <material id="ID10" name="ID10">
      <instance_effect url="#ID10-fx"/>
    </material>
    <material id="ID11" name="ID11">
      <instance_effect url="#ID11-fx"/>
    </material>
  </library_materials>

  <library_effects>
    <effect id="ID9-fx" name="ID9">
      <profile_COMMON>
        <technique sid="COMMON">
          <lambert>
            <diffuse>
              <color sid="diffuse">0 0 1 1</color>
            </diffuse>
            <transparent opaque="A_ONE">
              <color sid="transparent">1 1 1 1</color>
            </transparent>
            <transparency>
              <float sid="transparency">1</float>
            </transparency>
          </lambert>
        </technique>
        <extra>
          <technique profile="OTHER">
            <double_sided>1</double_sided>
          </technique>
        </extra>
      </profile_COMMON>
    </effect>
    <effect id="ID10-fx" name="ID10">
      <profile_COMMON>
        <technique sid="COMMON">
          <lambert>
            <diffuse>
              <color sid="diffuse">0.647059 0.647059 0.647059 1</color>
            </diffuse>
            <transparent opaque="A_ONE">
              <color sid="transparent">1 1 1 1</color>
            </transparent>
            <transparency>
              <float sid="transparency">1</float>
            </transparency>
          </lambert>
        </technique>
        <extra>
          <technique profile="OTHER">
            <double_sided>1</double_sided>
          </technique>
        </extra>
      </profile_COMMON>
    </effect>
    <effect id="ID11-fx" name="ID11">
      <profile_COMMON>
        <technique sid="COMMON">
          <lambert>
            <diffuse>
              <color sid="diffuse">1 0 0 1</color>
            </diffuse>
            <transparent opaque="A_ONE">
              <color sid="transparent">1 1 1 1</color>
            </transparent>
            <transparency>
              <float sid="transparency">1</float>
            </transparency>
          </lambert>
        </technique>
        <extra>
          <technique profile="OTHER">
            <double_sided>1</double_sided>
          </technique>
        </extra>
      </profile_COMMON>
    </effect>
  </library_effects>

  <library_geometries>
    <geometry id="ID3">
      <mesh>
        <source id="ID4">
          <float_array count="816" id="ID5">0.59365 0.025 1.55 0.59365 0 1.55 0.59365 0 0.85 0.59365 0.025 0.029 0.59365 -0.025 0.85 0.59365 -0.025 0.029 0.64365 0.025 1.55 0.64365 0.025 0.029 0.64365 -0.025 0.029 0.64365 -0.025 1.55 0.64365 -0.025 0.029 0.59365 -0.025 0.029 0.59365 -0.025 0.85 0.64365 -0.025 1.55 0.59365 -0.025 1.55 0.64365 0.025 0.029 0.64365 0.025 1.55 0.59365 0.025 1.55 0.59365 0.025 0.029 -0.90635 0 0.85 -0.90635 0.025 0.029 -0.90635 -0.025 0.029 -0.90635 0.025 1.55 -0.90635 0 1.55 -0.90635 -0.025 0.85 -0.95635 0.025 1.55 -0.95635 -0.025 1.55 -0.95635 -0.025 0.029 -0.95635 0.025 0.029 -0.95635 -0.025 0.029 -0.95635 -0.025 1.55 -0.90635 -0.025 0.85 -0.90635 -0.025 0.029 -0.90635 -0.025 1.55 -0.90635 0.025 0.029 -0.90635 0.025 1.55 -0.95635 0.025 1.55 -0.95635 0.025 0.029 -0.90635 0 1.55 -0.90635 -0.025 1.55 -0.95635 -0.025 1.55 0.59365 0 1.55 0.64365 0.025 1.55 0.64365 -0.025 1.55 -0.95635 0.025 1.55 -0.90635 0.025 1.55 0.59365 0.025 1.55 0.59365 -0.025 1.55 0.59365 -0.03 1.55 -0.90635 -0.03 1.55 -0.90635 -0.025 1.55 -0.90635 -0.03 0.85 -0.90635 -0.025 0.85 -0.90635 -0.03 1.55 -0.90635 -0.025 0.85 0.59365 -0.025 0.85 -0.90635 0 0.85 -0.90635 -0.03 0.85 0.59365 -0.03 0.85 0.59365 0 0.85 0.59365 -0.025 1.55 0.59365 -0.03 0.85 0.59365 -0.03 1.55 0.59365 -0.025 0.85 -0.90635 -0.03 0.85 -0.17635 -0.03 0.92 0.59365 -0.03 0.85 -0.17635 -0.03 1.48 -0.83635 -0.03 1.48 -0.90635 -0.03 1.55 -0.83635 -0.03 0.92 0.0136504 -0.03 0.97 0.59365 -0.03 1.55 0.47365 -0.03 0.97 0.0136504 -0.03 1.43 0.47365 -0.03 1.43 -0.90635 0 1.55 -0.17635 0 1.48 0.59365 0 1.55 0.47365 0 0.97 0.59365 0 0.85 0.47365 0 1.43 -0.83635 0 1.48 -0.90635 0 0.85 -0.17635 0 0.92 -0.83635 0 0.92 0.0136504 0 1.43 0.0136504 0 0.97 0.47365 0.004 1.43 0.47365 0.004 0.97 0.47365 0 0.97 0.47365 0 1.43 0.0136504 0.004 1.43 0.47365 0.004 1.43 0.47365 0 1.43 0.0136504 0 1.43 0.0136504 0.004 1.43 0.0136504 0 1.43 0.0136504 0 0.97 0.0136504 0.004 0.97 0.0136504 0.004 0.97 0.0136504 0 0.97 0.47365 0 0.97 0.47365 0.004 0.97 0.47365 -0.033 0.97 0.47365 -0.03 1.43 0.47365 -0.03 0.97 0.47365 -0.033 1.43 0.47365 -0.033 1.43 0.0136504 -0.03 1.43 0.47365 -0.03 1.43 0.0136504 -0.033 1.43 0.0136504 -0.03 1.43 0.0136504 -0.033 0.97 0.0136504 -0.03 0.97 0.0136504 -0.033 1.43 0.0436504 0.004 1.4 0.0436504 -0.033 1 0.0436504 -0.033 1.4 0.0436504 0.004 1 0.0436504 0.004 1.4 0.44365 -0.033 1.4 0.44365 0.004 1.4 0.0436504 -0.033 1.4 0.44365 0.004 1.4 0.44365 -0.033 1 0.44365 0.004 1 0.44365 -0.033 1.4 0.0436504 0.004 1 0.44365 -0.033 1 0.0436504 -0.033 1 0.44365 0.004 1 0.0136504 -0.03 0.97 0.47365 -0.033 0.97 0.47365 -0.03 0.97 0.0136504 -0.033 0.97 0.0436504 -0.033 1 0.44365 -0.033 1 0.47365 -0.033 0.97 0.0136504 -0.033 0.97 0.0136504 -0.033 1.43 0.44365 -0.033 1.4 0.0436504 -0.033 1.4 0.47365 -0.033 1.43 0.47365 0.004 0.97 0.44365 0.004 1 0.0436504 0.004 1 0.0136504 0.004 1.43 0.0136504 0.004 0.97 0.0436504 0.004 1.4 0.44365 0.004 1.4 0.47365 0.004 1.43 -0.17635 0.004 1.48 -0.17635 0.004 0.92 -0.17635 0 0.92 -0.17635 0 1.48 -0.83635 0.004 1.48 -0.17635 0.004 1.48 -0.17635 0 1.48 -0.83635 0 1.48 -0.83635 0.004 1.48 -0.83635 0 1.48 -0.83635 0 0.92 -0.83635 0.004 0.92 -0.83635 0.004 0.92 -0.83635 0 0.92 -0.17635 0 0.92 -0.17635 0.004 0.92 -0.17635 -0.033 0.92 -0.17635 -0.03 1.48 -0.17635 -0.03 0.92 -0.17635 -0.033 1.48 -0.17635 -0.033 1.48 -0.83635 -0.03 1.48 -0.17635 -0.03 1.48 -0.83635 -0.033 1.48 -0.83635 -0.03 1.48 -0.83635 -0.033 0.92 -0.83635 -0.03 0.92 -0.83635 -0.033 1.48 -0.80635 0.004 1.45 -0.80635 -0.033 0.95 -0.80635 -0.033 1.45 -0.80635 0.004 0.95 -0.80635 0.004 1.45 -0.20635 -0.033 1.45 -0.20635 0.004 1.45 -0.80635 -0.033 1.45 -0.20635 0.004 1.45 -0.20635 -0.033 0.95 -0.20635 0.004 0.95 -0.20635 -0.033 1.45 -0.80635 0.004 0.95 -0.20635 -0.033 0.95 -0.80635 -0.033 0.95 -0.20635 0.004 0.95 -0.83635 -0.03 0.92 -0.17635 -0.033 0.92 -0.17635 -0.03 0.92 -0.83635 -0.033 0.92 -0.80635 -0.033 0.95 -0.20635 -0.033 0.95 -0.17635 -0.033 0.92 -0.83635 -0.033 0.92 -0.83635 -0.033 1.48 -0.20635 -0.033 1.45 -0.80635 -0.033 1.45 -0.17635 -0.033 1.48 -0.17635 0.004 0.92 -0.20635 0.004 0.95 -0.80635 0.004 0.95 -0.20635 0.004 1.45 -0.83635 0.004 1.48 -0.80635 0.004 1.45 -0.83635 0.004 0.92 -0.17635 0.004 1.48 -1.08135 0.15 0.029 -1.08135 -0.15 0.029 -1.08135 -0.15 0 -1.08135 0.15 0 -0.78135 0.15 0 -0.78135 0.15 0.029 -1.08135 0.15 0.029 -1.08135 0.15 0 -0.78135 -0.15 0 -0.78135 0.15 0.029 -0.78135 0.15 0 -0.78135 -0.15 0.029 -0.78135 -0.15 0 -1.08135 -0.15 0.029 -0.78135 -0.15 0.029 -1.08135 -0.15 0 -1.08135 -0.15 0.029 -0.95635 -0.025 0.029 -0.90635 -0.025 0.029 -0.95635 0.025 0.029 -1.08135 0.15 0.029 -0.78135 0.15 0.029 -0.90635 0.025 0.029 -0.78135 -0.15 0.029 0.46865 0.15 0.029 0.46865 -0.15 0.029 0.46865 -0.15 0 0.46865 0.15 0 0.76865 0.15 0 0.76865 0.15 0.029 0.46865 0.15 0.029 0.46865 0.15 0 0.76865 -0.15 0 0.76865 0.15 0.029 0.76865 0.15 0 0.76865 -0.15 0.029 0.76865 -0.15 0 0.46865 -0.15 0.029 0.76865 -0.15 0.029 0.46865 -0.15 0 0.59365 0.025 0.029 0.46865 -0.15 0.029 0.46865 0.15 0.029 0.59365 -0.025 0.029 0.76865 0.15 0.029 0.76865 -0.15 0.029 0.64365 -0.025 0.029 0.64365 0.025 0.029 -1.08135 -0.15 0 -0.78135 0.15 0 -1.08135 0.15 0 -0.78135 -0.15 0 0.46865 0.15 0 0.76865 -0.15 0 0.76865 0.15 0 0.46865 -0.15 0</float_array>
          <technique_common>
            <accessor count="272" source="#ID5" stride="3">
              <param name="X" type="float"/>
              <param name="Y" type="float"/>
              <param name="Z" type="float"/>
            </accessor>
          </technique_common>
        </source>
        <source id="ID6">
          <float_array count="816" id="ID7">-1 -0 -1.58603e-16 -1 -0 -1.58603e-16 -1 -0 -1.58603e-16 -1 -0 -1.58603e-16 -1 -0 -1.58603e-16 -1 -0 -1.58603e-16 1 0 0 1 0 0 1 0 0 1 0 0 0 -1 0 0 -1 0 0 -1 0 0 -1 0 0 -1 0 0 1 0 0 1 0 0 1 0 0 1 0 1 0 0 1 0 0 1 0 0 1 0 0 1 0 0 1 0 0 -1 -0 -0 -1 -0 -0 -1 -0 -0 -1 -0 -0 0 -1 0 0 -1 0 0 -1 0 0 -1 0 0 -1 0 0 1 0 0 1 0 0 1 0 0 1 0 0 0 1 0 0 1 0 0 1 0 0 1 0 0 1 0 0 1 0 0 1 0 0 1 0 0 1 0 0 1 0 0 1 0 0 1 -1 -0 -0 -1 -0 -0 -1 -0 -0 -1 -0 -0 -0 -0 -1 -0 -0 -1 -0 -0 -1 -0 -0 -1 -0 -0 -1 -0 -0 -1 1 0 1.58603e-16 1 0 1.58603e-16 1 0 1.58603e-16 1 0 1.58603e-16 0 -1 0 0 -1 0 0 -1 0 0 -1 0 0 -1 0 0 -1 0 0 -1 0 0 -1 0 0 -1 0 0 -1 0 0 -1 0 0 -1 0 0 1 0 0 1 0 0 1 0 0 1 0 0 1 0 0 1 0 0 1 0 0 1 0 0 1 0 0 1 0 0 1 0 0 1 0 1 0 0 1 0 0 1 0 0 1 0 0 0 0 1 0 0 1 0 0 1 0 0 1 -1 -0 -6.41093e-17 -1 -0 -6.41093e-17 -1 -0 -6.41093e-17 -1 -0 -6.41093e-17 -0 -0 -1 -0 -0 -1 -0 -0 -1 -0 -0 -1 1 0 0 1 0 0 1 0 0 1 0 0 0 0 1 0 0 1 0 0 1 0 0 1 -1 -0 -6.41093e-17 -1 -0 -6.41093e-17 -1 -0 -6.41093e-17 -1 -0 -6.41093e-17 1 0 5.20417e-17 1 0 5.20417e-17 1 0 5.20417e-17 1 0 5.20417e-17 -0 -0 -1 -0 -0 -1 -0 -0 -1 -0 -0 -1 -1 -0 -0 -1 -0 -0 -1 -0 -0 -1 -0 -0 0 0 1 0 0 1 0 0 1 0 0 1 -0 -0 -1 -0 -0 -1 -0 -0 -1 -0 -0 -1 0 -1 0 0 -1 0 0 -1 0 0 -1 0 0 -1 0 0 -1 0 0 -1 0 0 -1 0 0 1 0 0 1 0 0 1 0 0 1 0 0 1 0 0 1 0 0 1 0 0 1 0 1 0 4.95635e-17 1 0 4.95635e-17 1 0 4.95635e-17 1 0 4.95635e-17 0 0 1 0 0 1 0 0 1 0 0 1 -1 -0 -0 -1 -0 -0 -1 -0 -0 -1 -0 -0 -0 -0 -1 -0 -0 -1 -0 -0 -1 -0 -0 -1 1 0 4.95635e-17 1 0 4.95635e-17 1 0 4.95635e-17 1 0 4.95635e-17 0 0 1 0 0 1 0 0 1 0 0 1 -1 -0 -0 -1 -0 -0 -1 -0 -0 -1 -0 -0 1 0 0 1 0 0 1 0 0 1 0 0 -0 -0 -1 -0 -0 -1 -0 -0 -1 -0 -0 -1 -1 -0 -5.55112e-17 -1 -0 -5.55112e-17 -1 -0 -5.55112e-17 -1 -0 -5.55112e-17 0 0 1 0 0 1 0 0 1 0 0 1 -0 -0 -1 -0 -0 -1 -0 -0 -1 -0 -0 -1 0 -1 0 0 -1 0 0 -1 0 0 -1 0 0 -1 0 0 -1 0 0 -1 0 0 -1 0 0 1 0 0 1 0 0 1 0 0 1 0 0 1 0 0 1 0 0 1 0 0 1 0 -1 -0 -0 -1 -0 -0 -1 -0 -0 -1 -0 -0 0 1 0 0 1 0 0 1 0 0 1 0 1 0 0 1 0 0 1 0 0 1 0 0 -0 -1 -0 -0 -1 -0 -0 -1 -0 -0 -1 -0 0 0 1 0 0 1 0 0 1 0 0 1 0 0 1 0 0 1 0 0 1 0 0 1 -1 -0 -0 -1 -0 -0 -1 -0 -0 -1 -0 -0 0 1 0 0 1 0 0 1 0 0 1 0 1 0 0 1 0 0 1 0 0 1 0 0 -0 -1 -0 -0 -1 -0 -0 -1 -0 -0 -1 -0 0 0 1 0 0 1 0 0 1 0 0 1 0 0 1 0 0 1 0 0 1 0 0 1 0 0 -1 0 0 -1 0 0 -1 0 0 -1 -0 -0 -1 -0 -0 -1 -0 -0 -1 -0 -0 -1</float_array>
          <technique_common>
            <accessor count="272" source="#ID7" stride="3">
              <param name="X" type="float"/>
              <param name="Y" type="float"/>
              <param name="Z" type="float"/>
            </accessor>
          </technique_common>
        </source>
        <vertices id="ID8">
          <input semantic="POSITION" source="#ID4"/>
          <input semantic="NORMAL" source="#ID6"/>
        </vertices>
        <triangles count="16" material="ID9">
          <input offset="0" semantic="VERTEX" source="#ID8"/>
          <p>200 202 201 202 200 203 204 203 200 204 206 205 204 200 206 202 207 205 204 205 207 202 205 201 208 210 209 211 213 212 214 210 208 214 212 210 208 211 215 212 215 211 208 209 211 212 213 210</p>
        </triangles>
        <triangles count="152" material="ID10">
          <input offset="0" semantic="VERTEX" source="#ID8"/>
          <p>0 2 1 0 3 2 2 5 4 2 3 5 6 8 7 8 6 9 10 12 11 12 10 13 12 13 14 15 17 16 15 18 17 19 21 20 22 23 19 22 19 20 21 19 24 25 27 26 25 28 27 29 31 30 31 29 32 31 33 30 34 36 35 34 37 36 38 40 39 41 43 42 38 45 44 38 44 40 42 46 41 39 47 38 39 49 48 48 47 39 47 41 38 41 47 43 50 52 51 51 53 50 54 56 55 54 58 57 58 54 55 55 56 59 60 62 61 60 61 63 64 66 65 67 69 68 64 65 70 64 70 69 67 65 71 69 67 72 66 73 71 69 70 68 65 66 71 72 67 74 66 72 75 72 74 75 66 75 73 67 71 74 76 78 77 79 81 80 80 81 78 82 76 77 83 84 80 76 85 83 83 85 84 76 82 85 77 78 86 81 86 78 80 87 79 77 87 84 80 84 87 77 86 87 88 90 89 90 88 91 92 94 93 94 92 95 96 98 97 96 99 98 100 102 101 100 103 102 104 106 105 104 105 107 108 110 109 108 109 111 112 114 113 113 115 112 116 118 117 116 117 119 120 122 121 121 123 120 124 126 125 125 127 124 128 130 129 128 129 131 132 134 133 133 135 132 152 154 153 154 152 155 156 158 157 158 156 159 160 162 161 160 163 162 164 166 165 164 167 166 168 170 169 168 169 171 172 174 173 172 173 175 176 178 177 177 179 176 180 182 181 180 181 183 184 186 185 185 187 184 188 190 189 189 191 188 192 194 193 192 193 195 196 198 197 197 199 196 216 218 217 216 219 218 220 222 221 222 220 223 224 226 225 224 225 227 228 230 229 229 231 228 232 234 233 235 236 232 237 235 238 234 239 237 237 236 235 233 235 232 232 239 234 237 238 234 240 242 241 240 243 242 244 246 245 246 244 247 248 250 249 248 249 251 252 254 253 253 255 252 256 258 257 256 257 259 260 262 261 261 262 257 260 256 263 260 263 262 260 258 256 262 259 257 264 266 265 264 265 267 268 270 269 269 271 268</p>
        </triangles>
        <triangles count="16" material="ID11">
          <input offset="0" semantic="VERTEX" source="#ID8"/>
          <p>136 138 137 138 136 139 140 139 136 140 142 141 140 136 142 138 143 141 140 141 143 138 141 137 144 146 145 146 148 147 147 150 149 144 150 151 147 151 150 150 144 145 148 146 144 147 149 146</p>
        </triangles>
      </mesh>
    </geometry>
  </library_geometries>

  <library_visual_scenes>
    <visual_scene id="ID1">
      <node id="ID2">
        <instance_geometry url="#ID3">
          <bind_material>
            <technique_common>
              <instance_material symbol="ID9" target="#ID9"/>
              <instance_material symbol="ID10" target="#ID10"/>
              <instance_material symbol="ID11" target="#ID11"/>
            </technique_common>
          </bind_material>
        </instance_geometry>
      </node>
    </visual_scene>
  </library_visual_scenes>

  <scene>
    <instance_visual_scene url="#ID1"/>
  </scene>

  <library_nodes/>

</COLLADA>
