<?xml version="1.0" encoding="UTF-8" standalone="no" ?>
<COLLADA version="1.4.1" xmlns="http://www.collada.org/2005/11/COLLADASchema">

  <asset>
    <contributor>
      <authoring_tool>ONSHAPE BY PTC INC, 1.214</authoring_tool>
    </contributor>
    <created>2026-04-29T15:26:31</created>
    <modified>2026-04-29T15:26:31</modified>
    <unit meter="1" name="meters"/>
    <up_axis>Z_UP</up_axis>
  </asset>

  <library_materials>
    <material id="ID9" name="ID9">
      <instance_effect url="#ID9-fx"/>
    </material>
    <material id="ID10" name="ID10">
      <instance_effect url="#ID10-fx"/>
    </material>
    <material id="ID11" name="ID11">
      <instance_effect url="#ID11-fx"/>
    </material>
  </library_materials>

  <library_effects>
    <effect id="ID9-fx" name="ID9">
      <profile_COMMON>
        <technique sid="COMMON">
          <lambert>
            <diffuse>
              <color sid="diffuse">0 0 1 1</color>
            </diffuse>
            <transparent opaque="A_ONE">
              <color sid="transparent">1 1 1 1</color>
            </transparent>
            <transparency>
              <float sid="transparency">1</float>
            </transparency>
          </lambert>
        </technique>
        <extra>
          <technique profile="OTHER">
            <double_sided>1</double_sided>
          </technique>
        </extra>
      </profile_COMMON>
    </effect>
    <effect id="ID10-fx" name="ID10">
      <profile_COMMON>
        <technique sid="COMMON">
          <lambert>
            <diffuse>
              <color sid="diffuse">0.647059 0.647059 0.647059 1</color>
            </diffuse>
            <transparent opaque="A_ONE">
              <color sid="transparent">1 1 1 1</color>
            </transparent>
            <transparency>
              <float sid="transparency">1</float>
            </transparency>
          </lambert>
        </technique>
        <extra>
          <technique profile="OTHER">
            <double_sided>1</double_sided>
          </technique>
        </extra>
      </profile_COMMON>
    </effect>
    <effect id="ID11-fx" name="ID11">
      <profile_COMMON>
        <technique sid="COMMON">
          <lambert>
            <diffuse>
              <color sid="diffuse">1 0 0 1</color>
            </diffuse>
            <transparent opaque="A_ONE">
              <color sid="transparent">1 1 1 1</color>
            </transparent>
            <transparency>
              <float sid="transparency">1</float>
            </transparency>
          </lambert>
        </technique>
        <extra>
          <technique profile="OTHER">
            <double_sided>1</double_sided>
          </technique>
        </extra>
      </profile_COMMON>
    </effect>
  </library_effects>

  <library_geometries>
    <geometry id="ID3">
      <mesh>
        <source id="ID4">
          <float_array count="432" id="ID5">-0.43122 -1.25 1.67 1.25 -1.25 0 -1.25 -1.25 0 0.381507 -1.25 1.72 -0.43122 -1.25 2.23 1.25 -1.25 2.5 0.381507 -1.25 2.18 0.841507 -1.25 1.72 0.841507 -1.25 2.18 -1.25 -1.25 2.5 -1.09122 -1.25 2.23 -1.09122 -1.25 1.67 0.411507 -1.22 1.75 0.411507 -1.22 2.15 -0.46122 -1.22 2.2 1.22 -1.22 2.47 -1.22 -1.22 2.47 1.22 -1.22 0 -0.46122 -1.22 1.7 -1.22 -1.22 0 -1.06122 -1.22 2.2 0.811507 -1.22 2.15 -1.06122 -1.22 1.7 0.811507 -1.22 1.75 -1.22 -1.22 0 -1.25 1.25 0 -1.25 -1.25 0 -1.22 1.22 0 1.25 1.25 0 1.22 1.22 0 1.25 -1.25 0 1.22 -1.22 0 -1.25 1.25 2.5 -1.25 -1.25 2.5 -1.25 -1.25 0 -1.25 1.25 0 1.25 -1.25 0 1.25 -1.25 2.5 1.25 1.25 2.5 1.25 1.25 0 1.25 1.25 0 1.25 1.25 2.5 -1.25 1.25 2.5 -1.25 1.25 0 -1.25 1.25 2.5 1.25 1.25 2.5 1.25 -1.25 2.5 -1.25 -1.25 2.5 -1.22 -1.22 0 -1.22 -1.22 2.47 -1.22 1.22 2.47 -1.22 1.22 0 1.22 1.22 2.47 1.22 -1.22 2.47 1.22 -1.22 0 1.22 1.22 0 1.22 1.22 0 -1.22 1.22 2.47 1.22 1.22 2.47 -1.22 1.22 0 -1.22 1.22 2.47 1.22 -1.22 2.47 1.22 1.22 2.47 -1.22 -1.22 2.47 0.811507 -1.22 2.15 0.411507 -1.22 2.15 0.411507 -1.255 2.15 0.811507 -1.255 2.15 0.411507 -1.22 1.75 0.411507 -1.255 2.15 0.411507 -1.22 2.15 0.411507 -1.255 1.75 0.811507 -1.22 1.75 0.411507 -1.255 1.75 0.411507 -1.22 1.75 0.811507 -1.255 1.75 0.811507 -1.22 1.75 0.811507 -1.22 2.15 0.811507 -1.255 2.15 0.811507 -1.255 1.75 -0.46122 -1.22 2.2 -1.06122 -1.22 2.2 -1.06122 -1.255 2.2 -0.46122 -1.255 2.2 -1.06122 -1.22 1.7 -1.06122 -1.255 2.2 -1.06122 -1.22 2.2 -1.06122 -1.255 1.7 -0.46122 -1.22 1.7 -1.06122 -1.255 1.7 -1.06122 -1.22 1.7 -0.46122 -1.255 1.7 -0.46122 -1.22 1.7 -0.46122 -1.22 2.2 -0.46122 -1.255 2.2 -0.46122 -1.255 1.7 0.841507 -1.25 2.18 0.841507 -1.255 1.72 0.841507 -1.255 2.18 0.841507 -1.25 1.72 0.381507 -1.25 2.18 0.841507 -1.255 2.18 0.381507 -1.255 2.18 0.841507 -1.25 2.18 0.381507 -1.25 2.18 0.381507 -1.255 1.72 0.381507 -1.25 1.72 0.381507 -1.255 2.18 0.381507 -1.25 1.72 0.841507 -1.255 1.72 0.841507 -1.25 1.72 0.381507 -1.255 1.72 0.411507 -1.255 1.75 0.811507 -1.255 1.75 0.841507 -1.255 1.72 0.381507 -1.255 1.72 0.381507 -1.255 2.18 0.811507 -1.255 2.15 0.411507 -1.255 2.15 0.841507 -1.255 2.18 -0.43122 -1.25 2.23 -0.43122 -1.255 1.67 -0.43122 -1.255 2.23 -0.43122 -1.25 1.67 -1.09122 -1.25 2.23 -0.43122 -1.255 2.23 -1.09122 -1.255 2.23 -0.43122 -1.25 2.23 -1.09122 -1.25 2.23 -1.09122 -1.255 1.67 -1.09122 -1.25 1.67 -1.09122 -1.255 2.23 -1.09122 -1.25 1.67 -0.43122 -1.255 1.67 -0.43122 -1.25 1.67 -1.09122 -1.255 1.67 -1.06122 -1.255 1.7 -0.46122 -1.255 1.7 -0.43122 -1.255 1.67 -1.09122 -1.255 1.67 -1.09122 -1.255 2.23 -0.46122 -1.255 2.2 -1.06122 -1.255 2.2 -0.43122 -1.255 2.23</float_array>
          <technique_common>
            <accessor count="144" source="#ID5" stride="3">
              <param name="X" type="float"/>
              <param name="Y" type="float"/>
              <param name="Z" type="float"/>
            </accessor>
          </technique_common>
        </source>
        <source id="ID6">
          <float_array count="432" id="ID7">-0 -1 -0 -0 -1 -0 -0 -1 -0 -0 -1 -0 -0 -1 -0 -0 -1 -0 -0 -1 -0 -0 -1 -0 -0 -1 -0 -0 -1 -0 -0 -1 -0 -0 -1 -0 0 1 0 0 1 0 0 1 0 0 1 0 0 1 0 0 1 0 0 1 0 0 1 0 0 1 0 0 1 0 0 1 0 0 1 0 -0 -0 -1 -0 -0 -1 -0 -0 -1 -0 -0 -1 -0 -0 -1 -0 -0 -1 -0 -0 -1 -0 -0 -1 -1 -1.77636e-16 0 -1 -1.77636e-16 0 -1 -1.77636e-16 0 -1 -1.77636e-16 0 1 1.77636e-16 0 1 1.77636e-16 0 1 1.77636e-16 0 1 1.77636e-16 0 0 1 0 0 1 0 0 1 0 0 1 0 0 0 1 0 0 1 0 0 1 0 0 1 1 1.77636e-16 0 1 1.77636e-16 0 1 1.77636e-16 0 1 1.77636e-16 0 -1 -1.77636e-16 0 -1 -1.77636e-16 0 -1 -1.77636e-16 0 -1 -1.77636e-16 0 -0 -1 -0 -0 -1 -0 -0 -1 -0 -0 -1 -0 -0 -0 -1 -0 -0 -1 -0 -0 -1 -0 -0 -1 0 0 -1 0 0 -1 0 0 -1 0 0 -1 1 0 0 1 0 0 1 0 0 1 0 0 0 0 1 0 0 1 0 0 1 0 0 1 -1 0 0 -1 0 0 -1 0 0 -1 0 0 0 0 -1 0 0 -1 0 0 -1 0 0 -1 1 0 0 1 0 0 1 0 0 1 0 0 0 0 1 0 0 1 0 0 1 0 0 1 -1 0 0 -1 0 0 -1 0 0 -1 0 0 1 0 0 1 0 0 1 0 0 1 0 0 0 0 1 0 0 1 0 0 1 0 0 1 -1 -0 -1.20676e-16 -1 -0 -1.20676e-16 -1 -0 -1.20676e-16 -1 -0 -1.20676e-16 -0 -0 -1 -0 -0 -1 -0 -0 -1 -0 -0 -1 0 -1 0 0 -1 0 0 -1 0 0 -1 0 0 -1 0 0 -1 0 0 -1 0 0 -1 0 1 0 0 1 0 0 1 0 0 1 0 0 0 0 1 0 0 1 0 0 1 0 0 1 -1 -0 -0 -1 -0 -0 -1 -0 -0 -1 -0 -0 -0 -0 -1 -0 -0 -1 -0 -0 -1 -0 -0 -1 0 -1 0 0 -1 0 0 -1 0 0 -1 0 0 -1 0 0 -1 0 0 -1 0 0 -1 0</float_array>
          <technique_common>
            <accessor count="144" source="#ID7" stride="3">
              <param name="X" type="float"/>
              <param name="Y" type="float"/>
              <param name="Z" type="float"/>
            </accessor>
          </technique_common>
        </source>
        <vertices id="ID8">
          <input semantic="POSITION" source="#ID4"/>
          <input semantic="NORMAL" source="#ID6"/>
        </vertices>
        <triangles count="8" material="ID9">
          <input offset="0" semantic="VERTEX" source="#ID8"/>
          <p>136 138 137 138 136 139 140 139 136 140 142 141 140 136 142 138 143 141 140 141 143 138 141 137</p>
        </triangles>
        <triangles count="84" material="ID10">
          <input offset="0" semantic="VERTEX" source="#ID8"/>
          <p>0 2 1 3 4 0 5 4 6 1 5 7 3 0 1 7 5 8 1 7 3 6 8 5 9 11 10 4 3 6 9 2 11 2 0 11 10 4 9 5 9 4 12 14 13 15 14 16 17 19 18 16 14 20 13 15 21 16 20 22 18 19 22 16 22 19 15 17 23 18 12 17 15 23 21 14 15 13 17 12 23 14 12 18 24 26 25 25 27 24 28 29 25 25 29 27 30 29 28 30 24 31 29 30 31 30 26 24 32 34 33 34 32 35 36 38 37 36 39 38 40 42 41 42 40 43 44 46 45 46 44 47 48 50 49 48 51 50 52 54 53 54 52 55 56 58 57 57 59 56 60 62 61 61 63 60 64 66 65 66 64 67 68 70 69 69 71 68 72 74 73 73 75 72 76 78 77 78 76 79 80 82 81 82 80 83 84 86 85 85 87 84 88 90 89 89 91 88 92 94 93 94 92 95 96 98 97 96 97 99 100 102 101 100 101 103 104 106 105 105 107 104 108 110 109 109 111 108 120 122 121 120 121 123 124 126 125 124 125 127 128 130 129 129 131 128 132 134 133 133 135 132</p>
        </triangles>
        <triangles count="8" material="ID11">
          <input offset="0" semantic="VERTEX" source="#ID8"/>
          <p>112 114 113 114 112 115 116 115 112 116 118 117 116 112 118 114 119 117 116 117 119 114 117 113</p>
        </triangles>
      </mesh>
    </geometry>
  </library_geometries>

  <library_visual_scenes>
    <visual_scene id="ID1">
      <node id="ID2">
        <instance_geometry url="#ID3">
          <bind_material>
            <technique_common>
              <instance_material symbol="ID9" target="#ID9"/>
              <instance_material symbol="ID10" target="#ID10"/>
              <instance_material symbol="ID11" target="#ID11"/>
            </technique_common>
          </bind_material>
        </instance_geometry>
      </node>
    </visual_scene>
  </library_visual_scenes>

  <scene>
    <instance_visual_scene url="#ID1"/>
  </scene>

  <library_nodes/>

</COLLADA>
