<?xml version="1.0" encoding="UTF-8" standalone="no" ?>
<COLLADA version="1.4.1" xmlns="http://www.collada.org/2005/11/COLLADASchema">

  <asset>
    <contributor>
      <authoring_tool>ONSHAPE BY PTC INC, 1.214</authoring_tool>
    </contributor>
    <created>2026-04-29T16:40:25</created>
    <modified>2026-04-29T16:40:25</modified>
    <unit meter="1" name="meters"/>
    <up_axis>Z_UP</up_axis>
  </asset>

  <library_materials>
    <material id="ID9" name="ID9">
      <instance_effect url="#ID9-fx"/>
    </material>
  </library_materials>

  <library_effects>
    <effect id="ID9-fx" name="ID9">
      <profile_COMMON>
        <technique sid="COMMON">
          <lambert>
            <diffuse>
              <color sid="diffuse">0.647059 0.647059 0.647059 1</color>
            </diffuse>
            <transparent opaque="A_ONE">
              <color sid="transparent">1 1 1 1</color>
            </transparent>
            <transparency>
              <float sid="transparency">1</float>
            </transparency>
          </lambert>
        </technique>
        <extra>
          <technique profile="OTHER">
            <double_sided>1</double_sided>
          </technique>
        </extra>
      </profile_COMMON>
    </effect>
  </library_effects>

  <library_geometries>
    <geometry id="ID3">
      <mesh>
        <source id="ID4">
          <float_array count="144" id="ID5">0.198 -0.139 0.132 0.198 0.139 0.132 0.193 0.134 0.132 -0.193 -0.134 0.132 0.193 -0.134 0.132 -0.193 0.134 0.132 -0.198 0.139 0.132 -0.198 -0.139 0.132 -0.198 0.139 0.132 -0.198 -0.139 0 -0.198 -0.139 0.132 -0.198 0.139 0 0.198 -0.139 0 0.198 -0.139 0.132 -0.198 -0.139 0.132 -0.198 -0.139 0 0.198 -0.139 0 0.198 0.139 0.132 0.198 -0.139 0.132 0.198 0.139 0 0.198 0.139 0 -0.198 0.139 0.132 0.198 0.139 0.132 -0.198 0.139 0 -0.198 0.139 0 0.198 0.139 0 0.198 -0.139 0 -0.198 -0.139 0 -0.193 -0.134 0.005 -0.193 0.134 0.132 -0.193 -0.134 0.132 -0.193 0.134 0.005 0.193 -0.134 0.005 -0.193 -0.134 0.132 0.193 -0.134 0.132 -0.193 -0.134 0.005 0.193 0.134 0.132 0.193 -0.134 0.005 0.193 -0.134 0.132 0.193 0.134 0.005 0.193 0.134 0.005 0.193 0.134 0.132 -0.193 0.134 0.132 -0.193 0.134 0.005 -0.193 0.134 0.005 0.193 -0.134 0.005 0.193 0.134 0.005 -0.193 -0.134 0.005</float_array>
          <technique_common>
            <accessor count="48" source="#ID5" stride="3">
              <param name="X" type="float"/>
              <param name="Y" type="float"/>
              <param name="Z" type="float"/>
            </accessor>
          </technique_common>
        </source>
        <source id="ID6">
          <float_array count="144" id="ID7">0 0 1 0 0 1 0 0 1 0 0 1 0 0 1 0 0 1 0 0 1 0 0 1 -1 -1.9968e-16 0 -1 -1.9968e-16 0 -1 -1.9968e-16 0 -1 -1.9968e-16 0 -0 -1 -0 -0 -1 -0 -0 -1 -0 -0 -1 -0 1 1.9968e-16 0 1 1.9968e-16 0 1 1.9968e-16 0 1 1.9968e-16 0 0 1 0 0 1 0 0 1 0 0 1 0 -0 -0 -1 -0 -0 -1 -0 -0 -1 -0 -0 -1 1 1.9968e-16 0 1 1.9968e-16 0 1 1.9968e-16 0 1 1.9968e-16 0 0 1 0 0 1 0 0 1 0 0 1 0 -1 -1.9968e-16 0 -1 -1.9968e-16 0 -1 -1.9968e-16 0 -1 -1.9968e-16 0 -0 -1 -0 -0 -1 -0 -0 -1 -0 -0 -1 -0 0 0 1 0 0 1 0 0 1 0 0 1</float_array>
          <technique_common>
            <accessor count="48" source="#ID7" stride="3">
              <param name="X" type="float"/>
              <param name="Y" type="float"/>
              <param name="Z" type="float"/>
            </accessor>
          </technique_common>
        </source>
        <vertices id="ID8">
          <input semantic="POSITION" source="#ID4"/>
          <input semantic="NORMAL" source="#ID6"/>
        </vertices>
        <triangles count="28" material="ID9">
          <input offset="0" semantic="VERTEX" source="#ID8"/>
          <p>0 1 2 3 0 4 5 2 6 0 2 4 6 7 3 0 3 7 6 3 5 6 2 1 8 9 10 9 8 11 12 13 14 14 15 12 16 17 18 16 19 17 20 21 22 21 20 23 24 25 26 26 27 24 28 29 30 28 31 29 32 33 34 33 32 35 36 37 38 37 36 39 40 41 42 42 43 40 44 45 46 45 44 47</p>
        </triangles>
      </mesh>
    </geometry>
  </library_geometries>

  <library_visual_scenes>
    <visual_scene id="ID1">
      <node id="ID2">
        <instance_geometry url="#ID3">
          <bind_material>
            <technique_common>
              <instance_material symbol="ID9" target="#ID9"/>
            </technique_common>
          </bind_material>
        </instance_geometry>
      </node>
    </visual_scene>
  </library_visual_scenes>

  <scene>
    <instance_visual_scene url="#ID1"/>
  </scene>

  <library_nodes/>

</COLLADA>
