<?xml version="1.0" encoding="UTF-8" standalone="no" ?>
<COLLADA version="1.4.1" xmlns="http://www.collada.org/2005/11/COLLADASchema">

  <asset>
    <contributor>
      <authoring_tool>ONSHAPE BY PTC INC, 1.214</authoring_tool>
    </contributor>
    <created>2026-05-02T22:05:11</created>
    <modified>2026-05-02T22:05:11</modified>
    <unit meter="1" name="meters"/>
    <up_axis>Z_UP</up_axis>
  </asset>

  <library_materials>
    <material id="ID9" name="ID9">
      <instance_effect url="#ID9-fx"/>
    </material>
    <material id="ID10" name="ID10">
      <instance_effect url="#ID10-fx"/>
    </material>
    <material id="ID11" name="ID11">
      <instance_effect url="#ID11-fx"/>
    </material>
    <material id="ID12" name="ID12">
      <instance_effect url="#ID12-fx"/>
    </material>
  </library_materials>

  <library_effects>
    <effect id="ID9-fx" name="ID9">
      <profile_COMMON>
        <technique sid="COMMON">
          <lambert>
            <diffuse>
              <color sid="diffuse">0 0 0 1</color>
            </diffuse>
            <transparent opaque="A_ONE">
              <color sid="transparent">1 1 1 1</color>
            </transparent>
            <transparency>
              <float sid="transparency">1</float>
            </transparency>
          </lambert>
        </technique>
        <extra>
          <technique profile="OTHER">
            <double_sided>1</double_sided>
          </technique>
        </extra>
      </profile_COMMON>
    </effect>
    <effect id="ID10-fx" name="ID10">
      <profile_COMMON>
        <technique sid="COMMON">
          <lambert>
            <diffuse>
              <color sid="diffuse">0.6 0.352941 0.0509804 1</color>
            </diffuse>
            <transparent opaque="A_ONE">
              <color sid="transparent">1 1 1 1</color>
            </transparent>
            <transparency>
              <float sid="transparency">1</float>
            </transparency>
          </lambert>
        </technique>
        <extra>
          <technique profile="OTHER">
            <double_sided>1</double_sided>
          </technique>
        </extra>
      </profile_COMMON>
    </effect>
    <effect id="ID11-fx" name="ID11">
      <profile_COMMON>
        <technique sid="COMMON">
          <lambert>
            <diffuse>
              <color sid="diffuse">0.913725 0.721569 0.490196 1</color>
            </diffuse>
            <transparent opaque="A_ONE">
              <color sid="transparent">1 1 1 1</color>
            </transparent>
            <transparency>
              <float sid="transparency">1</float>
            </transparency>
          </lambert>
        </technique>
        <extra>
          <technique profile="OTHER">
            <double_sided>1</double_sided>
          </technique>
        </extra>
      </profile_COMMON>
    </effect>
    <effect id="ID12-fx" name="ID12">
      <profile_COMMON>
        <technique sid="COMMON">
          <lambert>
            <diffuse>
              <color sid="diffuse">0.984314 0.984314 0.984314 1</color>
            </diffuse>
            <transparent opaque="A_ONE">
              <color sid="transparent">1 1 1 1</color>
            </transparent>
            <transparency>
              <float sid="transparency">1</float>
            </transparency>
          </lambert>
        </technique>
        <extra>
          <technique profile="OTHER">
            <double_sided>1</double_sided>
          </technique>
        </extra>
      </profile_COMMON>
    </effect>
  </library_effects>

  <library_geometries>
    <geometry id="ID3">
      <mesh>
        <source id="ID4">
          <float_array count="2868" id="ID5">0.03 0.0125 0.01 0.03 -0.0125 0.01 0.13 -0.0125 0.01 0.13 0.0125 0.01 0.03 -0.0125 0.01 0.03 -0.0125 0 0.13 -0.0125 0 0.13 -0.0125 0.01 0.03 0.0125 0.01 0.13 0.0125 0.01 0.13 0.0125 0 0.03 0.0125 0 -0.523 -0.3 0 0.03 -0.0125 0 0.03 -0.3 0 0.17 -0.025 0 0.13 0.0125 0 0.17 0.025 0 -0.523 0.3 0 0.03 0.0125 0 0.13 0.025 0 0.13 -0.025 0 0.13 -0.0125 0 0.03 0.3 0 0.13 0.025 0.5 0.17 0.0213046 0.5 0.17 0.025 0.5 0.13 0.0213046 0.5 0.13 -0.0227156 0.5 0.13 -0.025 0.5 0.17 -0.025 0.5 0.17 -0.0227156 0.5 0.13 0.0213046 0.5 0.13 0.0125 0.01 0.13 0.0153986 0.506517 0.13 0.025 0 0.13 0.025 0.5 0.13 0.0125 0 0.13 0.00906657 0.504476 0.13 0.0213046 0.50958 0.13 0.00248372 0.503512 0.13 -0.0125 0.01 0.13 -0.00416784 0.503652 0.13 -0.0169442 0.507201 0.13 -0.0107041 0.504894 0.13 -0.0227156 0.510511 0.13 -0.0227156 0.5 0.13 -0.025 0 0.13 -0.025 0.5 0.13 -0.0125 0 0.17 0.025 0 0.17 0.025 0.5 0.17 0.0213046 0.5 0.17 0.0213046 0.50958 0.17 0.0153986 0.506517 0.17 0.00906657 0.504476 0.17 0.00248372 0.503512 0.17 -0.00416784 0.503652 0.17 -0.025 0 0.17 -0.0169442 0.507201 0.17 -0.0227156 0.5 0.17 -0.0107041 0.504894 0.17 -0.0227156 0.510511 0.17 -0.025 0.5 0.13 -0.025 0.5 0.13 -0.025 0 0.17 -0.025 0 0.17 -0.025 0.5 0.13 0.025 0.5 0.17 0.025 0.5 0.17 0.025 0 0.13 0.025 0 0.145 0.031404 0.51866 0.149 0.031404 0.51866 0.149 0.0267425 0.513689 0.149 0.0213046 0.50958 0.145 0.0213046 0.50958 0.145 0.0267425 0.513689 0.149 0.0378834 0.530595 0.145 0.0395131 0.537213 0.149 0.0395131 0.537213 0.145 0.0378834 0.530595 0.149 0.035154 0.524351 0.145 0.035154 0.524351 0.145 0.0374979 0.55736 0.149 0.0374979 0.55736 0.149 0.0393175 0.550792 0.145 0.0393175 0.550792 0.149 0.0399958 0.544011 0.145 0.0399958 0.544011 0.149 0.0258746 0.573939 0.149 0.0306774 0.569104 0.145 0.0258746 0.573939 0.149 0.0345897 0.563523 0.145 0.0345897 0.563523 0.145 0.0306774 0.569104 0.149 0.0141769 0.580838 0.145 0.00762157 0.582702 0.149 0.00762157 0.582702 0.145 0.0203207 0.577889 0.145 0.0141769 0.580838 0.149 0.0203207 0.577889 0.145 -0.0125843 0.581404 0.149 -0.0125843 0.581404 0.149 -0.00595613 0.582989 0.145 -0.00595613 0.582989 0.149 0.000844984 0.583426 0.145 0.000844984 0.583426 0.149 -0.0295658 0.570377 0.149 -0.024563 0.575005 0.145 -0.0295658 0.570377 0.149 -0.0188472 0.578716 0.145 -0.0188472 0.578716 0.145 -0.024563 0.575005 0.149 -0.0368762 0.558931 0.145 -0.0389717 0.552446 0.149 -0.0389717 0.552446 0.145 -0.0337103 0.564966 0.145 -0.0368762 0.558931 0.149 -0.0337103 0.564966 0.149 -0.0399358 0.5457 0.145 -0.0399358 0.5457 0.145 -0.0397407 0.538887 0.149 -0.0397407 0.538887 0.145 -0.0383919 0.532207 0.149 -0.0383919 0.532207 0.149 -0.0359287 0.525853 0.145 -0.0359287 0.525853 0.145 -0.0324225 0.520009 0.149 -0.0324225 0.520009 0.145 -0.0279751 0.514845 0.149 -0.0279751 0.514845 0.149 -0.0227156 0.510511 0.145 -0.0227156 0.510511 0.145 -0.0378702 0.540297 0.145 -0.0378702 0.546573 0.149 -0.0378702 0.546573 0.149 2.1529e-17 0.505435 0.145 0.00625459 0.505953 0.145 2.1529e-17 0.505435 0.145 -0.0368372 0.552763 0.149 -0.0368372 0.552763 0.149 -0.0347994 0.558699 0.145 -0.0347994 0.558699 0.145 -0.0318123 0.564219 0.149 -0.0318123 0.564219 0.145 -0.0279575 0.569171 0.149 -0.0279575 0.569171 0.149 -0.0233401 0.573422 0.145 -0.0233401 0.573422 0.145 -0.018086 0.576855 0.149 -0.018086 0.576855 0.145 -0.0123386 0.579376 0.149 -0.0123386 0.579376 0.149 -0.00625459 0.580916 0.145 -0.00625459 0.580916 0.149 -4.30581e-17 0.581435 0.145 -4.30581e-17 0.581435 0.149 -0.0378702 0.540297 0.145 -0.0368372 0.534106 0.149 -0.0368372 0.534106 0.149 -0.0347994 0.52817 0.145 -0.0347994 0.52817 0.149 -0.0318123 0.522651 0.145 -0.0318123 0.522651 0.145 -0.0279575 0.517698 0.149 -0.0279575 0.517698 0.149 -0.0233401 0.513447 0.145 -0.0233401 0.513447 0.149 -0.018086 0.510015 0.145 -0.018086 0.510015 0.145 -0.0123386 0.507494 0.149 -0.0123386 0.507494 0.149 -0.00625459 0.505953 0.145 -0.00625459 0.505953 0.149 0.0123386 0.507494 0.145 0.0123386 0.507494 0.149 0.00625459 0.505953 0.149 0.0279575 0.517698 0.145 0.0279575 0.517698 0.149 0.0233401 0.513447 0.149 0.018086 0.510015 0.145 0.0233401 0.513447 0.145 0.018086 0.510015 0.149 0.0347994 0.52817 0.149 0.0368372 0.534106 0.145 0.0368372 0.534106 0.145 0.0318123 0.522651 0.149 0.0318123 0.522651 0.145 0.0347994 0.52817 0.145 0.0368372 0.552763 0.149 0.0378702 0.546573 0.149 0.0368372 0.552763 0.145 0.0378702 0.546573 0.145 0.0378702 0.540297 0.149 0.0378702 0.540297 0.149 0.0279575 0.569171 0.145 0.0279575 0.569171 0.149 0.0318123 0.564219 0.149 0.0347994 0.558699 0.145 0.0318123 0.564219 0.145 0.0347994 0.558699 0.145 0.018086 0.576855 0.145 0.0233401 0.573422 0.149 0.0233401 0.573422 0.149 0.018086 0.576855 0.145 0.0123386 0.579376 0.149 0.0123386 0.579376 0.145 0.00625459 0.580916 0.149 0.00625459 0.580916 0.149 0.0233401 0.573422 0.149 0.0203207 0.577889 0.149 0.018086 0.576855 0.149 0.0141769 0.580838 0.149 0.0123386 0.579376 0.149 0.00762157 0.582702 0.149 0.00625459 0.580916 0.149 0.0279575 0.569171 0.149 0.0258746 0.573939 0.149 -4.30581e-17 0.581435 0.149 0.000844984 0.583426 0.149 0.0306774 0.569104 0.149 0.0318123 0.564219 0.149 0.0347994 0.558699 0.149 0.0345897 0.563523 0.149 0.0368372 0.552763 0.149 0.0374979 0.55736 0.149 -0.00595613 0.582989 0.149 -0.00625459 0.580916 0.149 0.0378702 0.546573 0.149 0.0393175 0.550792 0.149 -0.0123386 0.579376 0.149 -0.0125843 0.581404 0.149 0.0378702 0.540297 0.149 0.0399958 0.544011 0.149 -0.018086 0.576855 0.149 -0.0188472 0.578716 0.149 0.0368372 0.534106 0.149 0.0395131 0.537213 0.149 -0.0233401 0.573422 0.149 -0.024563 0.575005 0.149 0.035154 0.524351 0.149 0.0378834 0.530595 0.149 0.0347994 0.52817 0.149 -0.0295658 0.570377 0.149 -0.0279575 0.569171 0.149 -0.0318123 0.564219 0.149 -0.0337103 0.564966 0.149 -0.0368762 0.558931 0.149 -0.0347994 0.558699 0.149 0.031404 0.51866 0.149 0.0318123 0.522651 0.149 0.018086 0.510015 0.149 0.0123386 0.507494 0.149 0.0153986 0.506517 0.149 -0.0368372 0.552763 0.149 -0.0389717 0.552446 0.149 0.0213046 0.50958 0.149 -0.0383919 0.532207 0.149 -0.0359287 0.525853 0.149 -0.0347994 0.52817 0.149 -0.0169442 0.507201 0.149 -0.018086 0.510015 0.149 -0.0227156 0.510511 0.149 -0.0279751 0.514845 0.149 -0.0233401 0.513447 0.149 -0.0279575 0.517698 0.149 -0.0324225 0.520009 0.149 -0.0123386 0.507494 0.149 -0.0107041 0.504894 0.149 2.1529e-17 0.505435 0.149 -0.00625459 0.505953 0.149 -0.00416784 0.503652 0.149 -0.0318123 0.522651 0.149 -0.0397407 0.538887 0.149 -0.0378702 0.540297 0.149 -0.0399358 0.5457 0.149 -0.0368372 0.534106 0.149 0.0233401 0.513447 0.149 0.0267425 0.513689 0.149 -0.0378702 0.546573 0.149 0.0279575 0.517698 0.149 0.00248372 0.503512 0.149 0.00906657 0.504476 0.149 0.00625459 0.505953 0.145 0.0347994 0.558699 0.145 0.0374979 0.55736 0.145 0.0368372 0.552763 0.145 0.0123386 0.507494 0.145 0.018086 0.510015 0.145 0.0153986 0.506517 0.145 -0.0347994 0.52817 0.145 -0.0359287 0.525853 0.145 -0.0383919 0.532207 0.145 0.0318123 0.522651 0.145 0.035154 0.524351 0.145 0.031404 0.51866 0.145 -0.0389717 0.552446 0.145 -0.0368762 0.558931 0.145 -0.0368372 0.552763 0.145 0.0378702 0.540297 0.145 0.0378702 0.546573 0.145 0.0399958 0.544011 0.145 -0.0279575 0.569171 0.145 -0.0295658 0.570377 0.145 -0.024563 0.575005 0.145 0.0318123 0.564219 0.145 0.0345897 0.563523 0.145 -0.0125843 0.581404 0.145 -0.00625459 0.580916 0.145 -0.0123386 0.579376 0.145 0.0203207 0.577889 0.145 0.0233401 0.573422 0.145 0.018086 0.576855 0.145 0.0123386 0.579376 0.145 0.00625459 0.580916 0.145 0.00762157 0.582702 0.145 0.0258746 0.573939 0.145 0.0279575 0.569171 0.145 0.0141769 0.580838 0.145 0.0306774 0.569104 0.145 -0.00595613 0.582989 0.145 -4.30581e-17 0.581435 0.145 0.000844984 0.583426 0.145 0.0393175 0.550792 0.145 -0.018086 0.576855 0.145 -0.0233401 0.573422 0.145 -0.0188472 0.578716 0.145 0.0378834 0.530595 0.145 0.0347994 0.52817 0.145 0.0395131 0.537213 0.145 0.0368372 0.534106 0.145 -0.0337103 0.564966 0.145 -0.0347994 0.558699 0.145 -0.0318123 0.564219 0.145 0.0233401 0.513447 0.145 0.0267425 0.513689 0.145 0.0213046 0.50958 0.145 0.0279575 0.517698 0.145 -0.0378702 0.546573 0.145 -0.0399358 0.5457 0.145 -0.0368372 0.534106 0.145 -0.0397407 0.538887 0.145 -0.0378702 0.540297 0.145 -0.0324225 0.520009 0.145 -0.0318123 0.522651 0.145 -0.00625459 0.505953 0.145 2.1529e-17 0.505435 0.145 -0.00416784 0.503652 0.145 -0.0279575 0.517698 0.145 -0.0279751 0.514845 0.145 -0.0233401 0.513447 0.145 -0.0227156 0.510511 0.145 -0.0169442 0.507201 0.145 -0.0123386 0.507494 0.145 -0.0107041 0.504894 0.145 -0.018086 0.510015 0.145 0.00248372 0.503512 0.145 0.00625459 0.505953 0.145 0.00906657 0.504476 0.145 -0.00416784 0.503652 0.145 0.00248372 0.503512 0.13 0.00248372 0.503512 0.145 0.00906657 0.504476 0.13 0.00906657 0.504476 0.13 0.0153986 0.506517 0.145 0.0153986 0.506517 0.13 0.0213046 0.50958 0.145 0.0213046 0.50958 0.13 -0.00416784 0.503652 0.145 -0.0107041 0.504894 0.13 -0.0107041 0.504894 0.13 -0.0169442 0.507201 0.145 -0.0169442 0.507201 0.145 -0.0227156 0.510511 0.13 -0.0227156 0.510511 0.149 -0.0227156 0.510511 0.17 -0.0227156 0.5 0.17 -0.0227156 0.510511 0.13 -0.0227156 0.5 0.145 -0.0227156 0.510511 0.13 -0.0227156 0.510511 0.17 0.00906657 0.504476 0.149 0.0153986 0.506517 0.149 0.00906657 0.504476 0.149 0.0213046 0.50958 0.17 0.0153986 0.506517 0.17 0.0213046 0.50958 0.149 -0.00416784 0.503652 0.149 -0.0107041 0.504894 0.17 -0.0107041 0.504894 0.17 -0.00416784 0.503652 0.17 0.00248372 0.503512 0.149 0.00248372 0.503512 0.149 -0.0169442 0.507201 0.17 -0.0227156 0.510511 0.17 -0.0169442 0.507201 0.149 -0.0227156 0.510511 0.17 0.0213046 0.5 0.149 0.0213046 0.50958 0.17 0.0213046 0.50958 0.145 0.0213046 0.50958 0.13 0.0213046 0.5 0.13 0.0213046 0.50958 0.028 0.00714286 0.542807 0.028 0.00714286 0.557043 0.025 0.00714286 0.557043 0.025 0.00714286 0.542807 0.028 -0.0214286 0.528571 0.028 -0.00719286 0.528571 0.025 -0.00719286 0.528571 0.025 -0.0214286 0.528571 0.025 0.00709286 0.571429 0.028 0.00709286 0.571429 0.028 -0.00714286 0.571429 0.025 -0.00714286 0.571429 0.028 0.00714286 0.571479 0.025 0.00714286 0.571479 0.025 0.00714286 0.585714 0.028 0.00714286 0.585714 0.028 0.0214286 0.571479 0.028 0.0214286 0.585714 0.025 0.0214286 0.585714 0.025 0.0214286 0.571479 0.025 0.00714286 0.585714 0.025 0.0214286 0.571479 0.025 0.0214286 0.585714 0.025 0.00714286 0.571479 0.025 0.0357143 0.571429 0.025 0.0214786 0.571429 0.025 0.0214786 0.557043 0.025 0.0214286 0.557043 0.025 0.0214286 0.528571 0.025 0.0357143 0.528571 0.025 0.00714286 0.514286 0.025 0.00714286 0.528521 0.025 -0.00714286 0.528521 0.025 -0.00714286 0.514286 0.025 0.00709286 0.557043 0.025 0.00709286 0.571429 0.025 -0.00714286 0.571429 0.025 -0.0357143 0.557143 0.025 -0.0214286 0.557143 0.025 -0.0357143 0.585714 0.025 -0.00714286 0.585714 0.025 -0.00719286 0.542807 0.025 -0.0214286 0.528571 0.025 -0.00719286 0.528571 0.025 0.00714286 0.542807 0.025 0.00714286 0.557043 0.03 -0.05 0.5 0.028 -0.05 0.6 0.03 -0.05 0.6 0.028 -0.05 0.5 0.03 0.05 0.5 0.028 -0.05 0.5 0.03 -0.05 0.5 0.028 0.05 0.5 0.028 0.05 0.6 0.03 0.05 0.5 0.03 0.05 0.6 0.028 0.05 0.5 0.03 0.05 0.6 0.028 -0.05 0.6 0.028 0.05 0.6 0.03 -0.05 0.6 0.028 0.00714286 0.742857 0.028 0.0213786 0.742857 0.025 0.0213786 0.742857 0.025 0.00714286 0.742857 0.025 0.0357143 0.714286 0.025 0.0357143 0.742807 0.025 0.0214286 0.742807 0.025 0.0214286 0.714286 0.025 0.0213786 0.757143 0.028 0.0213786 0.757143 0.028 0.00714286 0.757143 0.025 0.00714286 0.757143 0.03 -0.05 0.7 0.028 -0.05 0.8 0.03 -0.05 0.8 0.028 -0.05 0.7 0.03 0.05 0.7 0.028 -0.05 0.7 0.03 -0.05 0.7 0.028 0.05 0.7 0.028 0.05 0.8 0.03 0.05 0.7 0.03 0.05 0.8 0.028 0.05 0.7 0.03 0.05 0.8 0.028 -0.05 0.8 0.028 0.05 0.8 0.03 -0.05 0.8 0.03 -0.05 0.9 0.028 -0.05 1 0.03 -0.05 1 0.028 -0.05 0.9 0.03 0.05 0.9 0.028 -0.05 0.9 0.03 -0.05 0.9 0.028 0.05 0.9 0.028 0.05 1 0.03 0.05 0.9 0.03 0.05 1 0.028 0.05 0.9 0.03 0.05 1 0.028 -0.05 1 0.028 0.05 1 0.03 -0.05 1 0.03 -0.3 1.3 0.03 -0.05 0.8 0.03 -0.05 0.9 0.03 0.3 1.3 0.03 0.05 1 0.03 0.05 0.8 0.03 0.3 0 0.03 0.0125 0.01 0.03 0.0125 0 0.03 0.05 0.9 0.03 -0.3 0 0.03 -0.0125 0 0.03 -0.0125 0.01 0.03 -0.05 1 0.03 -0.05 0.5 0.03 0.05 0.5 0.03 0.05 0.6 0.03 -0.05 0.6 0.03 0.05 0.7 0.03 -0.05 0.7 -0.457437 0.3 0.03 -8.52651e-17 0.3 0.559479 -1.42109e-16 -0.3 0.559479 -0.457437 -0.3 0.03 0 0.3 0.03 0 -0.3 0.03 -1.42109e-16 -0.3 0.559479 -8.52651e-17 0.3 0.559479 0 0.3 0.605368 0 -0.3 0.605368 0 -0.3 1.3 0 0.3 1.3 -0.523 0.3 0 -0.523 -0.3 0 0 -0.3 0.605368 0 0.3 0.605368 0 0.3 1.3 0 -0.3 1.3 0.03 -0.3 1.3 0.03 0.3 1.3 0 0.3 0.03 -0.457437 0.3 0.03 -0.457437 -0.3 0.03 0 -0.3 0.03 0 -0.3 0.605368 0.03 -0.3 1.3 0 -0.3 1.3 0.03 -0.3 0 -1.42109e-16 -0.3 0.559479 -0.523 -0.3 0 -0.457437 -0.3 0.03 0 -0.3 0.03 0 0.3 0.605368 0.03 0.3 1.3 0.03 0.3 0 0 0.3 1.3 -0.523 0.3 0 -0.457437 0.3 0.03 -8.52651e-17 0.3 0.559479 0 0.3 0.03 0.028 0.0357143 0.985714 0.025 0.0357143 0.928571 0.028 0.0357143 0.928571 0.025 0.0357143 0.985714 0.025 0.0357143 0.928571 0.028 0.00714286 0.928571 0.028 0.0357143 0.928571 0.025 0.00714286 0.928571 0.025 0.00714286 0.928571 0.028 0.00714286 0.914286 0.028 0.00714286 0.928571 0.025 0.00714286 0.914286 0.025 0.00714286 0.914286 0.028 -0.0214286 0.914286 0.028 0.00714286 0.914286 0.025 -0.0214286 0.914286 0.028 -0.0214286 0.914286 0.025 -0.0214286 0.928571 0.028 -0.0214286 0.928571 0.025 -0.0214286 0.914286 0.025 -0.0214286 0.928571 0.028 -0.0357143 0.928571 0.028 -0.0214286 0.928571 0.025 -0.0357143 0.928571 0.025 -0.0357143 0.928571 0.028 -0.0357143 0.957143 0.028 -0.0357143 0.928571 0.025 -0.0357143 0.957143 0.025 -0.0214286 0.957143 0.028 -0.0214286 0.957143 0.028 -0.0357143 0.957143 0.025 -0.0357143 0.957143 0.025 -0.0214286 0.957143 0.028 -0.0214286 0.942857 0.028 -0.0214286 0.957143 0.025 -0.0214286 0.942857 0.025 -0.00714286 0.942857 0.028 -0.00714286 0.942857 0.028 -0.0214286 0.942857 0.025 -0.0214286 0.942857 0.028 -0.00714286 0.942857 0.025 -0.00714286 0.971429 0.028 -0.00714286 0.971429 0.025 -0.00714286 0.942857 0.025 -0.00714286 0.971429 0.028 -0.0214286 0.971429 0.028 -0.00714286 0.971429 0.025 -0.0214286 0.971429 0.028 -0.0214286 0.971429 0.025 -0.0214286 0.985714 0.028 -0.0214286 0.985714 0.025 -0.0214286 0.971429 0.025 0.00714286 0.985714 0.028 0.00714286 0.985714 0.028 -0.0214286 0.985714 0.025 -0.0214286 0.985714 0.025 0.00714286 0.985714 0.028 0.00714286 0.971429 0.028 0.00714286 0.985714 0.025 0.00714286 0.971429 0.025 0.0214286 0.971429 0.028 0.0214286 0.971429 0.028 0.00714286 0.971429 0.025 0.00714286 0.971429 0.028 0.0214286 0.971429 0.025 0.0214286 0.985714 0.028 0.0214286 0.985714 0.025 0.0214286 0.971429 0.025 0.0357143 0.985714 0.028 0.0357143 0.985714 0.028 0.0214286 0.985714 0.025 0.0214286 0.985714 0.028 0.0357143 0.928571 0.028 0.05 1 0.028 0.0357143 0.985714 0.028 0.05 0.9 0.028 -0.0214286 0.985714 0.028 0.00714286 0.985714 0.028 -0.05 1 0.028 0.00714286 0.971429 0.028 0.0214286 0.971429 0.028 -0.00714286 0.971429 0.028 -0.0214286 0.971429 0.028 -0.0214286 0.957143 0.028 0.00714286 0.928571 0.028 0.00714286 0.914286 0.028 -0.0214286 0.914286 0.028 -0.0214286 0.928571 0.028 -0.0357143 0.928571 0.028 -0.05 0.9 0.028 -0.0357143 0.957143 0.028 0.0214286 0.985714 0.028 -0.0214286 0.942857 0.028 -0.00714286 0.942857 0.025 0.0357143 0.928571 0.025 0.0214286 0.942857 0.025 0.00714286 0.928571 0.025 -0.0214286 0.985714 0.025 -0.00714286 0.971429 0.025 0.00714286 0.985714 0.025 0.0357143 0.985714 0.025 0.0214286 0.985714 0.025 0.0214286 0.971429 0.025 0.00714286 0.942857 0.025 -0.00714286 0.942857 0.025 0.0214286 0.957143 0.025 -0.0214286 0.971429 0.025 -0.0214286 0.928571 0.025 -0.0214286 0.914286 0.025 0.00714286 0.914286 0.025 0.00714286 0.971429 0.025 0.00714286 0.957143 0.025 -0.0357143 0.928571 0.025 -0.0214286 0.942857 0.025 -0.0357143 0.957143 0.025 -0.0214286 0.957143 0.025 0.0214286 0.957143 0.028 0.00714286 0.957143 0.028 0.0214286 0.957143 0.025 0.00714286 0.957143 0.025 0.00714286 0.957143 0.028 0.00714286 0.942857 0.028 0.00714286 0.957143 0.025 0.00714286 0.942857 0.025 0.0214286 0.942857 0.028 0.0214286 0.942857 0.028 0.00714286 0.942857 0.025 0.00714286 0.942857 0.028 0.0214286 0.942857 0.025 0.0214286 0.957143 0.028 0.0214286 0.957143 0.025 0.0214286 0.942857 0.028 0.00714286 0.957143 0.028 0.00714286 0.942857 0.028 0.0214286 0.942857 0.028 0.0214286 0.957143 0.025 0.00714286 0.714286 0.028 -0.0214286 0.714286 0.028 0.00714286 0.714286 0.025 -0.0214286 0.714286 0.028 -0.0214286 0.714286 0.025 -0.0214286 0.728571 0.028 -0.0214286 0.728571 0.025 -0.0214286 0.714286 0.025 0.00714286 0.728571 0.028 0.00714286 0.728571 0.028 -0.0214286 0.728571 0.025 -0.0214286 0.728571 0.025 0.0357143 0.714286 0.028 0.0214286 0.714286 0.028 0.0357143 0.714286 0.025 0.0214286 0.714286 0.025 0.0214286 0.742807 0.028 0.0214286 0.742807 0.028 0.0214286 0.714286 0.025 0.0214286 0.714286 0.028 0.00714286 0.742857 0.025 0.00714286 0.757143 0.028 0.00714286 0.757143 0.025 0.00714286 0.742857 0.025 0.00714286 0.785714 0.028 0.00714286 0.785714 0.028 -0.0357143 0.785714 0.025 -0.0357143 0.785714 0.025 0.00714286 0.785714 0.028 0.00714286 0.771429 0.028 0.00714286 0.785714 0.025 0.00714286 0.771429 0.025 0.00714286 0.771429 0.028 -0.00714286 0.771429 0.028 0.00714286 0.771429 0.025 -0.00714286 0.771429 0.025 -0.00714286 0.771429 0.028 -0.00714286 0.757143 0.028 -0.00714286 0.771429 0.025 -0.00714286 0.757143 0.025 -0.00714286 0.757143 0.028 -0.0214286 0.757143 0.028 -0.00714286 0.757143 0.025 -0.0214286 0.757143 0.028 -0.0214286 0.757143 0.025 -0.0214286 0.771429 0.028 -0.0214286 0.771429 0.025 -0.0214286 0.757143 0.025 -0.0214286 0.771429 0.028 -0.0357143 0.771429 0.028 -0.0214286 0.771429 0.025 -0.0357143 0.771429 0.028 0.0214286 0.771429 0.025 0.0214286 0.785714 0.028 0.0214286 0.785714 0.025 0.0214286 0.771429 0.025 0.0357143 0.785714 0.028 0.0357143 0.785714 0.028 0.0214286 0.785714 0.025 0.0214286 0.785714 0.028 0.0357143 0.785714 0.025 0.0357143 0.771429 0.028 0.0357143 0.771429 0.025 0.0357143 0.785714 0.025 0.00714286 0.728571 0.028 0.00714286 0.714286 0.028 0.00714286 0.728571 0.025 0.00714286 0.714286 0.028 0.0357143 0.742807 0.025 0.0357143 0.714286 0.028 0.0357143 0.714286 0.025 0.0357143 0.742807 0.025 -0.0357143 0.771429 0.028 -0.0357143 0.785714 0.028 -0.0357143 0.771429 0.025 -0.0357143 0.785714 0.025 0.0357143 0.771429 0.028 0.0214286 0.771429 0.028 0.0357143 0.771429 0.025 0.0214286 0.771429 0.028 0.00714286 0.757143 0.028 -0.00714286 0.771429 0.028 -0.00714286 0.757143 0.028 0.0357143 0.785714 0.028 0.0357143 0.771429 0.028 0.05 0.8 0.028 0.0357143 0.714286 0.028 0.05 0.7 0.028 0.0357143 0.742807 0.028 -0.05 0.7 0.028 0.00714286 0.714286 0.028 -0.0214286 0.714286 0.028 -0.0214286 0.728571 0.028 -0.0357143 0.771429 0.028 -0.0214286 0.757143 0.028 -0.0357143 0.785714 0.028 0.00714286 0.785714 0.028 -0.05 0.8 0.028 0.0213786 0.742857 0.028 0.0214286 0.742807 0.028 0.00714286 0.771429 0.028 0.0214286 0.771429 0.028 0.00714286 0.742857 0.028 0.00714286 0.728571 0.028 -0.0214286 0.771429 0.028 0.0214286 0.785714 0.028 0.0213786 0.757143 0.028 0.0214286 0.714286 0.025 0.0214286 0.785714 0.025 0.0357143 0.771429 0.025 0.0357143 0.785714 0.025 0.0214286 0.771429 0.025 -0.0357143 0.785714 0.025 -0.00714286 0.771429 0.025 0.00714286 0.785714 0.025 -0.0214286 0.771429 0.025 -0.0214286 0.757143 0.025 -0.00714286 0.757143 0.025 -0.0357143 0.771429 0.025 0.00714286 0.771429 0.025 0.0213786 0.742857 0.025 0.0213786 0.757143 0.025 0.00714286 0.757143 0.025 0.00714286 0.742857 0.025 -0.0214286 0.728571 0.025 0.00714286 0.714286 0.025 0.00714286 0.728571 0.025 -0.0214286 0.714286 0.028 0.0213786 0.742857 0.028 0.0213786 0.757143 0.025 0.0213786 0.757143 0.025 0.0213786 0.742857 0.025 0.0214286 0.742807 0.025 0.0357143 0.742807 0.028 0.0357143 0.742807 0.028 0.0214286 0.742807 0.028 0.0357143 0.571429 0.025 0.0357143 0.528571 0.028 0.0357143 0.528571 0.025 0.0357143 0.571429 0.025 0.0357143 0.528571 0.028 0.0214286 0.528571 0.028 0.0357143 0.528571 0.025 0.0214286 0.528571 0.025 0.0214286 0.557043 0.028 0.0214286 0.557043 0.028 0.0214286 0.528571 0.025 0.0214286 0.528571 0.028 0.00714286 0.514286 0.028 0.00714286 0.528521 0.025 0.00714286 0.528521 0.025 0.00714286 0.514286 0.025 0.00714286 0.514286 0.028 -0.00714286 0.514286 0.028 0.00714286 0.514286 0.025 -0.00714286 0.514286 0.025 -0.00714286 0.528521 0.028 -0.00714286 0.528521 0.028 -0.00714286 0.514286 0.025 -0.00714286 0.514286 0.028 -0.0214286 0.528571 0.025 -0.0214286 0.557143 0.028 -0.0214286 0.557143 0.025 -0.0214286 0.528571 0.025 -0.0214286 0.557143 0.028 -0.0357143 0.557143 0.028 -0.0214286 0.557143 0.025 -0.0357143 0.557143 0.025 -0.0357143 0.557143 0.028 -0.0357143 0.585714 0.028 -0.0357143 0.557143 0.025 -0.0357143 0.585714 0.025 -0.00714286 0.585714 0.028 -0.00714286 0.585714 0.028 -0.0357143 0.585714 0.025 -0.0357143 0.585714 0.025 -0.00714286 0.585714 0.028 -0.00714286 0.571429 0.028 -0.00714286 0.585714 0.025 -0.00714286 0.571429 0.025 0.0214286 0.585714 0.028 0.0214286 0.585714 0.028 0.00714286 0.585714 0.025 0.00714286 0.585714 0.025 0.0357143 0.571429 0.028 0.0214786 0.571429 0.025 0.0214786 0.571429 0.028 0.0357143 0.571429 0.028 0.0214786 0.571429 0.028 0.0214286 0.557043 0.028 0.0214786 0.557043 0.028 0.0214286 0.528571 0.028 0.00714286 0.542807 0.028 -0.05 0.6 0.028 0.00714286 0.585714 0.028 0.05 0.6 0.028 0.0214286 0.585714 0.028 0.0214286 0.571479 0.028 -0.00714286 0.528521 0.028 -0.00719286 0.542807 0.028 -0.00719286 0.528571 0.028 0.05 0.5 0.028 0.0357143 0.571429 0.028 -0.00714286 0.585714 0.028 0.00714286 0.528521 0.028 0.00714286 0.514286 0.028 0.00714286 0.557043 0.028 0.00709286 0.571429 0.028 -0.00714286 0.514286 0.028 -0.0214286 0.528571 0.028 -0.05 0.5 0.028 0.00714286 0.571479 0.028 0.00709286 0.557043 0.028 -0.0357143 0.557143 0.028 -0.0214286 0.557143 0.028 -0.0357143 0.585714 0.028 -0.00714286 0.571429 0.028 0.0357143 0.528571 0.025 -0.00714286 0.528521 0.025 0.00714286 0.528521 0.028 0.00714286 0.528521 0.028 -0.00714286 0.528521 0.028 0.00714286 0.542807 0.025 -0.00719286 0.542807 0.028 -0.00719286 0.542807 0.025 0.00714286 0.542807 0.028 -0.00719286 0.542807 0.025 -0.00719286 0.528571 0.028 -0.00719286 0.528571 0.025 -0.00719286 0.542807 0.025 0.0214286 0.571479 0.028 0.00714286 0.571479 0.028 0.0214286 0.571479 0.025 0.00714286 0.571479 0.025 0.00709286 0.571429 0.028 0.00709286 0.557043 0.028 0.00709286 0.571429 0.025 0.00709286 0.557043 0.025 0.00714286 0.557043 0.028 0.00714286 0.557043 0.028 0.00709286 0.557043 0.025 0.00709286 0.557043 0.025 0.0214786 0.557043 0.028 0.0214786 0.557043 0.028 0.0214286 0.557043 0.025 0.0214286 0.557043 0.028 0.0214786 0.557043 0.025 0.0214786 0.571429 0.028 0.0214786 0.571429 0.025 0.0214786 0.557043</float_array>
          <technique_common>
            <accessor count="956" source="#ID5" stride="3">
              <param name="X" type="float"/>
              <param name="Y" type="float"/>
              <param name="Z" type="float"/>
            </accessor>
          </technique_common>
        </source>
        <source id="ID6">
          <float_array count="2868" id="ID7">0 0 1 0 0 1 0 0 1 0 0 1 0 -1 0 0 -1 0 0 -1 0 0 -1 0 0 1 0 0 1 0 0 1 0 0 1 0 -0 -0 -1 -0 -0 -1 -0 -0 -1 -0 -0 -1 -0 -0 -1 -0 -0 -1 -0 -0 -1 -0 -0 -1 -0 -0 -1 -0 -0 -1 -0 -0 -1 -0 -0 -1 0 0 1 0 0 1 0 0 1 0 0 1 0 0 1 0 0 1 0 0 1 0 0 1 -1 -0 -1.11022e-16 -1 -0 -1.11022e-16 -1 -0 -1.11022e-16 -1 -0 -1.11022e-16 -1 -0 -1.11022e-16 -1 -0 -1.11022e-16 -1 -0 -1.11022e-16 -1 -0 -1.11022e-16 -1 -0 -1.11022e-16 -1 -0 -1.11022e-16 -1 -0 -1.11022e-16 -1 -0 -1.11022e-16 -1 -0 -1.11022e-16 -1 -0 -1.11022e-16 -1 -0 -1.11022e-16 -1 -0 -1.11022e-16 -1 -0 -1.11022e-16 -1 -0 -1.11022e-16 1 0 1.11022e-16 1 0 1.11022e-16 1 0 1.11022e-16 1 0 1.11022e-16 1 0 1.11022e-16 1 0 1.11022e-16 1 0 1.11022e-16 1 0 1.11022e-16 1 0 1.11022e-16 1 0 1.11022e-16 1 0 1.11022e-16 1 0 1.11022e-16 1 0 1.11022e-16 1 0 1.11022e-16 0 -1 0 0 -1 0 0 -1 0 0 -1 0 0 1 0 0 1 0 0 1 0 0 1 0 6.87637e-17 0.785101 -0.619368 6.87637e-17 0.785101 -0.619368 8.25624e-17 0.668562 -0.743656 9.39645e-17 0.532615 -0.846357 9.39645e-17 0.532616 -0.846357 8.25625e-17 0.668562 -0.743657 3.56363e-17 0.947085 -0.320983 1.72693e-17 0.987828 -0.155548 1.72693e-17 0.987828 -0.155548 3.56363e-17 0.947085 -0.320983 5.29688e-17 0.878849 -0.4771 5.29688e-17 0.878849 -0.4771 -3.865e-17 0.937447 0.348128 -3.865e-17 0.937447 0.348128 -2.04209e-17 0.982938 0.183935 -2.04209e-17 0.982938 0.183935 -1.59899e-18 0.999896 0.0144024 -1.59899e-18 0.999896 0.0144024 -8.46661e-17 0.646866 0.762604 -7.12457e-17 0.766936 0.641724 -8.46661e-17 0.646866 0.762604 -5.57571e-17 0.864743 0.502215 -5.57571e-17 0.864743 0.502215 -7.12457e-17 0.766936 0.641724 -1.03815e-16 0.354423 0.935085 -1.08988e-16 0.190539 0.98168 -1.08988e-16 0.190539 0.98168 -9.56287e-17 0.508018 0.861347 -1.03815e-16 0.354423 0.935085 -9.56287e-17 0.508018 0.861347 -1.05385e-16 -0.314609 0.949221 -1.05385e-16 -0.314609 0.949221 -1.09785e-16 -0.148903 0.988852 -1.09785e-16 -0.148903 0.988852 -1.10998e-16 0.0211247 0.999777 -1.10998e-16 0.0211245 0.999777 -7.47787e-17 -0.739145 0.673546 -8.7624e-17 -0.614076 0.789247 -7.47787e-17 -0.739145 0.673546 -9.79257e-17 -0.471181 0.882036 -9.79257e-17 -0.471181 0.882036 -8.7624e-17 -0.614076 0.789247 -4.30117e-17 -0.921905 0.387415 -2.50122e-17 -0.974292 0.22529 -2.50122e-17 -0.974292 0.22529 -5.97626e-17 -0.842757 0.538294 -4.30117e-17 -0.921906 0.387415 -5.97626e-17 -0.842757 0.538294 -6.28666e-18 -0.998396 0.0566252 -6.28666e-18 -0.998396 0.0566252 1.26214e-17 -0.993517 -0.113683 1.26214e-17 -0.993517 -0.113683 3.11631e-17 -0.959798 -0.280692 3.11631e-17 -0.959798 -0.280692 4.88001e-17 -0.898217 -0.439552 4.88001e-17 -0.898217 -0.439552 6.50206e-17 -0.810562 -0.585653 6.50206e-17 -0.810562 -0.585653 7.93535e-17 -0.699377 -0.714753 7.93535e-17 -0.699377 -0.714753 9.13829e-17 -0.56789 -0.823104 9.13829e-17 -0.56789 -0.823104 -9.16815e-18 0.996584 0.0825794 9.16816e-18 0.996584 -0.0825794 9.16816e-18 0.996584 -0.0825794 -1.11022e-16 8.74228e-08 1 -1.09508e-16 -0.164595 0.986361 -1.11022e-16 8.74228e-08 1 2.72543e-17 0.9694 -0.245485 2.72544e-17 0.9694 -0.245486 4.45971e-17 0.915773 -0.401695 4.45971e-17 0.915773 -0.401695 6.07234e-17 0.837166 -0.546948 6.07234e-17 0.837166 -0.546948 7.51934e-17 0.735724 -0.677282 7.51934e-17 0.735724 -0.677282 8.76122e-17 0.614213 -0.78914 8.76122e-17 0.614213 -0.789141 9.76412e-17 0.475947 -0.879474 9.76412e-17 0.475948 -0.879474 1.05007e-16 0.324699 -0.945817 1.05007e-16 0.3247 -0.945817 1.09508e-16 0.164595 -0.986361 1.09508e-16 0.164595 -0.986361 1.11022e-16 -1.74846e-07 -1 1.11022e-16 3.01992e-07 -1 -9.16815e-18 0.996584 0.0825794 -2.72544e-17 0.9694 0.245486 -2.72544e-17 0.9694 0.245486 -4.45971e-17 0.915773 0.401695 -4.45971e-17 0.915773 0.401695 -6.07234e-17 0.837167 0.546948 -6.07234e-17 0.837167 0.546948 -7.51934e-17 0.735724 0.677282 -7.51934e-17 0.735724 0.677282 -8.76122e-17 0.614213 0.78914 -8.76122e-17 0.614213 0.78914 -9.76412e-17 0.475947 0.879474 -9.76412e-17 0.475947 0.879474 -1.05007e-16 0.324699 0.945817 -1.05007e-16 0.324699 0.945817 -1.09508e-16 0.164595 0.986361 -1.09508e-16 0.164595 0.986361 -1.05007e-16 -0.3247 0.945817 -1.05007e-16 -0.324699 0.945817 -1.09508e-16 -0.164595 0.986361 -7.51934e-17 -0.735724 0.677282 -7.51934e-17 -0.735724 0.677282 -8.76122e-17 -0.614213 0.789141 -9.76412e-17 -0.475947 0.879474 -8.76122e-17 -0.614213 0.78914 -9.76412e-17 -0.475947 0.879474 -4.45971e-17 -0.915773 0.401695 -2.72544e-17 -0.9694 0.245485 -2.72544e-17 -0.9694 0.245485 -6.07235e-17 -0.837166 0.546948 -6.07235e-17 -0.837166 0.546948 -4.45971e-17 -0.915773 0.401695 2.72544e-17 -0.9694 -0.245485 9.16815e-18 -0.996584 -0.0825794 2.72544e-17 -0.9694 -0.245485 9.16815e-18 -0.996584 -0.0825794 -9.16813e-18 -0.996584 0.0825792 -9.16816e-18 -0.996584 0.0825794 7.51934e-17 -0.735724 -0.677282 7.51934e-17 -0.735724 -0.677282 6.07234e-17 -0.837166 -0.546948 4.45972e-17 -0.915773 -0.401695 6.07234e-17 -0.837166 -0.546948 4.45972e-17 -0.915773 -0.401695 9.76412e-17 -0.475947 -0.879474 8.76122e-17 -0.614213 -0.789141 8.76122e-17 -0.614213 -0.789141 9.76412e-17 -0.475947 -0.879474 1.05007e-16 -0.324699 -0.945817 1.05007e-16 -0.324699 -0.945817 1.09508e-16 -0.164595 -0.986361 1.09508e-16 -0.164595 -0.986361 1 0 1.11022e-16 1 0 1.11022e-16 1 0 1.11022e-16 1 0 1.11022e-16 1 0 1.11022e-16 1 0 1.11022e-16 1 0 1.11022e-16 1 0 1.11022e-16 1 0 1.11022e-16 1 0 1.11022e-16 1 0 1.11022e-16 1 0 1.11022e-16 1 0 1.11022e-16 1 0 1.11022e-16 1 0 1.11022e-16 1 0 1.11022e-16 1 0 1.11022e-16 1 0 1.11022e-16 1 0 1.11022e-16 1 0 1.11022e-16 1 0 1.11022e-16 1 0 1.11022e-16 1 0 1.11022e-16 1 0 1.11022e-16 1 0 1.11022e-16 1 0 1.11022e-16 1 0 1.11022e-16 1 0 1.11022e-16 1 0 1.11022e-16 1 0 1.11022e-16 1 0 1.11022e-16 1 0 1.11022e-16 1 0 1.11022e-16 1 0 1.11022e-16 1 0 1.11022e-16 1 0 1.11022e-16 1 0 1.11022e-16 1 0 1.11022e-16 1 0 1.11022e-16 1 0 1.11022e-16 1 0 1.11022e-16 1 0 1.11022e-16 1 0 1.11022e-16 1 0 1.11022e-16 1 0 1.11022e-16 1 0 1.11022e-16 1 0 1.11022e-16 1 0 1.11022e-16 1 0 1.11022e-16 1 0 1.11022e-16 1 0 1.11022e-16 1 0 1.11022e-16 1 0 1.11022e-16 1 0 1.11022e-16 1 0 1.11022e-16 1 0 1.11022e-16 1 0 1.11022e-16 1 0 1.11022e-16 1 0 1.11022e-16 1 0 1.11022e-16 1 0 1.11022e-16 1 0 1.11022e-16 1 0 1.11022e-16 1 0 1.11022e-16 1 0 1.11022e-16 1 0 1.11022e-16 1 0 1.11022e-16 1 0 1.11022e-16 1 0 1.11022e-16 1 0 1.11022e-16 1 0 1.11022e-16 1 0 1.11022e-16 1 0 1.11022e-16 1 0 1.11022e-16 1 0 1.11022e-16 -1 0 -1.11022e-16 -1 0 -1.11022e-16 -1 0 -1.11022e-16 -1 0 -1.11022e-16 -1 0 -1.11022e-16 -1 0 -1.11022e-16 -1 0 -1.11022e-16 -1 0 -1.11022e-16 -1 0 -1.11022e-16 -1 0 -1.11022e-16 -1 0 -1.11022e-16 -1 0 -1.11022e-16 -1 0 -1.11022e-16 -1 0 -1.11022e-16 -1 0 -1.11022e-16 -1 0 -1.11022e-16 -1 0 -1.11022e-16 -1 0 -1.11022e-16 -1 0 -1.11022e-16 -1 0 -1.11022e-16 -1 0 -1.11022e-16 -1 0 -1.11022e-16 -1 0 -1.11022e-16 -1 0 -1.11022e-16 -1 0 -1.11022e-16 -1 0 -1.11022e-16 -1 0 -1.11022e-16 -1 0 -1.11022e-16 -1 0 -1.11022e-16 -1 0 -1.11022e-16 -1 0 -1.11022e-16 -1 0 -1.11022e-16 -1 0 -1.11022e-16 -1 0 -1.11022e-16 -1 0 -1.11022e-16 -1 0 -1.11022e-16 -1 0 -1.11022e-16 -1 0 -1.11022e-16 -1 0 -1.11022e-16 -1 0 -1.11022e-16 -1 0 -1.11022e-16 -1 0 -1.11022e-16 -1 0 -1.11022e-16 -1 0 -1.11022e-16 -1 0 -1.11022e-16 -1 0 -1.11022e-16 -1 0 -1.11022e-16 -1 0 -1.11022e-16 -1 0 -1.11022e-16 -1 0 -1.11022e-16 -1 0 -1.11022e-16 -1 0 -1.11022e-16 -1 0 -1.11022e-16 -1 0 -1.11022e-16 -1 0 -1.11022e-16 -1 0 -1.11022e-16 -1 0 -1.11022e-16 -1 0 -1.11022e-16 -1 0 -1.11022e-16 -1 0 -1.11022e-16 -1 0 -1.11022e-16 -1 0 -1.11022e-16 -1 0 -1.11022e-16 -1 0 -1.11022e-16 -1 0 -1.11022e-16 -1 0 -1.11022e-16 -1 0 -1.11022e-16 -1 0 -1.11022e-16 -1 0 -1.11022e-16 -1 0 -1.11022e-16 -1 0 -1.11022e-16 -1 0 -1.11022e-16 -1 0 -1.11022e-16 -1 0 -1.11022e-16 -1 0 -1.11022e-16 -1.10418e-16 0.104196 0.994557 -1.10808e-16 -0.062093 0.99807 -1.10808e-16 -0.062093 0.99807 -1.08133e-16 -0.226664 0.973973 -1.08133e-16 -0.226664 0.973973 -1.02466e-16 -0.384965 0.922931 -1.02466e-16 -0.384965 0.922931 -9.39645e-17 -0.532616 0.846357 -9.39645e-17 -0.532616 0.846357 -1.10418e-16 0.104196 0.994557 -1.06973e-16 0.267602 0.963529 -1.06973e-16 0.267602 0.963529 -1.00569e-16 0.423606 0.905847 -1.00569e-16 0.423606 0.905847 -9.13829e-17 0.56789 0.823104 -9.13829e-17 0.56789 0.823104 0 -1 0 0 -1 0 0 -1 0 0 -1 0 0 -1 0 0 -1 0 -1.08133e-16 -0.226664 0.973973 -1.02466e-16 -0.384965 0.922931 -1.08133e-16 -0.226664 0.973973 -9.39645e-17 -0.532616 0.846357 -1.02466e-16 -0.384965 0.922931 -9.39645e-17 -0.532616 0.846357 -1.10418e-16 0.104196 0.994557 -1.06973e-16 0.267602 0.963529 -1.06973e-16 0.267602 0.963529 -1.10418e-16 0.104196 0.994557 -1.10808e-16 -0.062093 0.99807 -1.10808e-16 -0.062093 0.99807 -1.00569e-16 0.423606 0.905847 -9.13829e-17 0.56789 0.823104 -1.00569e-16 0.423606 0.905847 -9.13829e-17 0.56789 0.823104 0 1 0 0 1 0 0 1 0 0 1 0 0 1 0 0 1 0 -0 -1 -6.07153e-17 -0 -1 -6.07153e-17 -0 -1 -6.07153e-17 -0 -1 -6.07153e-17 0 0 1 0 0 1 0 0 1 0 0 1 -0 -0 -1 -0 -0 -1 -0 -0 -1 -0 -0 -1 0 1 6.07153e-17 0 1 6.07153e-17 0 1 6.07153e-17 0 1 6.07153e-17 -0 -1 -2.42861e-16 -0 -1 -2.42861e-16 -0 -1 -2.42861e-16 -0 -1 -2.42861e-16 1 0 0 1 0 0 1 0 0 1 0 0 1 0 0 1 0 0 1 0 0 1 0 0 1 0 0 1 0 0 1 0 0 1 0 0 1 0 0 1 0 0 1 0 0 1 0 0 1 0 0 1 0 0 1 0 0 1 0 0 1 0 0 1 0 0 1 0 0 1 0 0 1 0 0 1 0 0 0 1 1.38778e-16 0 1 1.38778e-16 0 1 1.38778e-16 0 1 1.38778e-16 0 0 1 0 0 1 0 0 1 0 0 1 -0 -1 -2.08167e-16 -0 -1 -2.08167e-16 -0 -1 -2.08167e-16 -0 -1 -2.08167e-16 0 0 -1 0 0 -1 0 0 -1 0 0 -1 0 0 1 0 0 1 0 0 1 0 0 1 1 0 0 1 0 0 1 0 0 1 0 0 -0 -0 -1 -0 -0 -1 -0 -0 -1 -0 -0 -1 0 1 0 0 1 0 0 1 0 0 1 0 0 0 1 0 0 1 0 0 1 0 0 1 -0 -1 -0 -0 -1 -0 -0 -1 -0 -0 -1 -0 0 0 -1 0 0 -1 0 0 -1 0 0 -1 0 1 0 0 1 0 0 1 0 0 1 0 0 0 1 0 0 1 0 0 1 0 0 1 -0 -1 -0 -0 -1 -0 -0 -1 -0 -0 -1 -0 0 0 -1 0 0 -1 0 0 -1 0 0 -1 1 0 0 1 0 0 1 0 0 1 0 0 1 0 0 1 0 0 1 0 0 1 0 0 1 0 0 1 0 0 1 0 0 1 0 0 1 0 0 1 0 0 1 0 0 1 0 0 1 0 0 1 0 0 1 0 0 1 0 0 0.756711 0 -0.65375 0.756711 0 -0.65375 0.756711 0 -0.65375 0.756711 0 -0.65375 -1 0 0 -1 0 0 -1 0 0 -1 0 0 -1 0 0 -1 0 0 -1 0 0 -1 0 0 -0.756711 0 0.65375 -0.756711 0 0.65375 -0.756711 0 0.65375 -0.756711 0 0.65375 0 0 1 0 0 1 0 0 1 0 0 1 -1.21353e-16 0 1 -1.21353e-16 0 1 -1.21353e-16 0 1 -1.21353e-16 0 1 0 -1 0 0 -1 0 0 -1 0 0 -1 0 0 -1 0 0 -1 0 0 -1 0 0 -1 0 0 1 0 0 1 0 0 1 0 0 1 0 0 1 0 0 1 0 0 1 0 0 1 0 0 -1 0 0 -1 0 0 -1 0 0 -1 0 0 0 1 0 0 1 0 0 1 0 0 1 -0 -1 -6.07153e-17 -0 -1 -6.07153e-17 -0 -1 -6.07153e-17 -0 -1 -6.07153e-17 0 0 1 0 0 1 0 0 1 0 0 1 0 1 2.42861e-16 0 1 2.42861e-16 0 1 2.42861e-16 0 1 2.42861e-16 0 0 1 0 0 1 0 0 1 0 0 1 0 1 0 0 1 0 0 1 0 0 1 0 -0 -0 -1 -0 -0 -1 -0 -0 -1 -0 -0 -1 -0 -1 -0 -0 -1 -0 -0 -1 -0 -0 -1 -0 -0 -0 -1 -0 -0 -1 -0 -0 -1 -0 -0 -1 0 1 6.07153e-17 0 1 6.07153e-17 0 1 6.07153e-17 0 1 6.07153e-17 0 0 1 0 0 1 0 0 1 0 0 1 0 1 2.42861e-16 0 1 2.42861e-16 0 1 2.42861e-16 0 1 2.42861e-16 -0 -0 -1 -0 -0 -1 -0 -0 -1 -0 -0 -1 -0 -1 -6.07153e-17 -0 -1 -6.07153e-17 -0 -1 -6.07153e-17 -0 -1 -6.07153e-17 -0 -0 -1 -0 -0 -1 -0 -0 -1 -0 -0 -1 0 1 0 0 1 0 0 1 0 0 1 0 -0 -0 -1 -0 -0 -1 -0 -0 -1 -0 -0 -1 1 0 0 1 0 0 1 0 0 1 0 0 1 0 0 1 0 0 1 0 0 1 0 0 1 0 0 1 0 0 1 0 0 1 0 0 1 0 0 1 0 0 1 0 0 1 0 0 1 0 0 1 0 0 1 0 0 1 0 0 1 0 0 1 0 0 1 0 0 1 0 0 1 0 0 1 0 0 1 0 0 1 0 0 1 0 0 1 0 0 1 0 0 1 0 0 1 0 0 1 0 0 1 0 0 1 0 0 1 0 0 1 0 0 1 0 0 1 0 0 1 0 0 1 0 0 1 0 0 1 0 0 0 0 1 0 0 1 0 0 1 0 0 1 -0 -1 -1.21431e-16 -0 -1 -1.21431e-16 -0 -1 -1.21431e-16 -0 -1 -1.21431e-16 -0 -0 -1 -0 -0 -1 -0 -0 -1 -0 -0 -1 0 1 0 0 1 0 0 1 0 0 1 0 1 0 0 1 0 0 1 0 0 1 0 0 0 0 1 0 0 1 0 0 1 0 0 1 0 1 2.42861e-16 0 1 2.42861e-16 0 1 2.42861e-16 0 1 2.42861e-16 -0 -0 -1 -0 -0 -1 -0 -0 -1 -0 -0 -1 0 0 1 0 0 1 0 0 1 0 0 1 0 1 0 0 1 0 0 1 0 0 1 0 0 1 1.21431e-16 0 1 1.21431e-16 0 1 1.21431e-16 0 1 1.21431e-16 -0 -0 -1 -0 -0 -1 -0 -0 -1 -0 -0 -1 -0 -1 -6.07153e-17 -0 -1 -6.07153e-17 -0 -1 -6.07153e-17 -0 -1 -6.07153e-17 0 0 1 0 0 1 0 0 1 0 0 1 -0 -1 -6.07153e-17 -0 -1 -6.07153e-17 -0 -1 -6.07153e-17 -0 -1 -6.07153e-17 0 0 1 0 0 1 0 0 1 0 0 1 0 1 0 0 1 0 0 1 0 0 1 0 0 0 1 0 0 1 0 0 1 0 0 1 0 1 2.42861e-16 0 1 2.42861e-16 0 1 2.42861e-16 0 1 2.42861e-16 -0 -0 -1 -0 -0 -1 -0 -0 -1 -0 -0 -1 0 -1 0 0 -1 0 0 -1 0 0 -1 0 -0 -1 -6.07153e-17 -0 -1 -6.07153e-17 -0 -1 -6.07153e-17 -0 -1 -6.07153e-17 0 -1 0 0 -1 0 0 -1 0 0 -1 0 0 1 0 0 1 0 0 1 0 0 1 0 0 0 1 0 0 1 0 0 1 0 0 1 1 0 0 1 0 0 1 0 0 1 0 0 1 0 0 1 0 0 1 0 0 1 0 0 1 0 0 1 0 0 1 0 0 1 0 0 1 0 0 1 0 0 1 0 0 1 0 0 1 0 0 1 0 0 1 0 0 1 0 0 1 0 0 1 0 0 1 0 0 1 0 0 1 0 0 1 0 0 1 0 0 1 0 0 1 0 0 1 0 0 1 0 0 1 0 0 1 0 0 1 0 0 1 0 0 1 0 0 1 0 0 1 0 0 1 0 0 1 0 0 1 0 0 1 0 0 1 0 0 1 0 0 1 0 0 1 0 0 1 0 0 1 0 0 -0 -1 -2.26233e-16 -0 -1 -2.26233e-16 -0 -1 -2.26233e-16 -0 -1 -2.26233e-16 0 0 -1 0 0 -1 0 0 -1 0 0 -1 0 -1 -4.85723e-16 0 -1 -4.85723e-16 0 -1 -4.85723e-16 0 -1 -4.85723e-16 0 0 1 0 0 1 0 0 1 0 0 1 0 1 0 0 1 0 0 1 0 0 1 0 -0 -1 -6.07153e-17 -0 -1 -6.07153e-17 -0 -1 -6.07153e-17 -0 -1 -6.07153e-17 0 0 1 0 0 1 0 0 1 0 0 1 0 1 6.07153e-17 0 1 6.07153e-17 0 1 6.07153e-17 0 1 6.07153e-17 0 1 0 0 1 0 0 1 0 0 1 0 0 0 1 0 0 1 0 0 1 0 0 1 0 1 0 0 1 0 0 1 0 0 1 0 -0 -0 -1 -0 -0 -1 -0 -0 -1 -0 -0 -1 -0 -1 -6.07153e-17 -0 -1 -6.07153e-17 -0 -1 -6.07153e-17 -0 -1 -6.07153e-17 -0 -0 -1 -0 -0 -1 -0 -0 -1 -0 -0 -1 -0 -0 -1 -0 -0 -1 -0 -0 -1 -0 -0 -1 1 0 0 1 0 0 1 0 0 1 0 0 1 0 0 1 0 0 1 0 0 1 0 0 1 0 0 1 0 0 1 0 0 1 0 0 1 0 0 1 0 0 1 0 0 1 0 0 1 0 0 1 0 0 1 0 0 1 0 0 1 0 0 1 0 0 1 0 0 1 0 0 1 0 0 1 0 0 1 0 0 1 0 0 1 0 0 1 0 0 0 0 -1 0 0 -1 0 0 -1 0 0 -1 0 0 1 0 0 1 0 0 1 0 0 1 0 -1 -1.82146e-16 0 -1 -1.82146e-16 0 -1 -1.82146e-16 0 -1 -1.82146e-16 0 0 1 0 0 1 0 0 1 0 0 1 -0 -1 -6.00844e-17 -0 -1 -6.00844e-17 -0 -1 -6.00844e-17 -0 -1 -6.00844e-17 -0 -0 -1 -0 -0 -1 -0 -0 -1 -0 -0 -1 -0 -0 -1 -0 -0 -1 -0 -0 -1 -0 -0 -1 0 1 0 0 1 0 0 1 0 0 1 0</float_array>
          <technique_common>
            <accessor count="956" source="#ID7" stride="3">
              <param name="X" type="float"/>
              <param name="Y" type="float"/>
              <param name="Z" type="float"/>
            </accessor>
          </technique_common>
        </source>
        <vertices id="ID8">
          <input semantic="POSITION" source="#ID4"/>
          <input semantic="NORMAL" source="#ID6"/>
        </vertices>
        <triangles count="96" material="ID9">
          <input offset="0" semantic="VERTEX" source="#ID8"/>
          <p>642 643 644 642 645 643 646 647 648 649 650 647 651 652 653 642 654 655 656 657 658 642 655 645 656 659 655 659 645 655 659 658 660 656 658 659 659 660 648 661 644 643 653 662 663 663 651 653 648 660 652 653 652 660 652 646 648 648 647 643 647 650 661 643 647 661 702 703 704 702 704 705 786 787 788 789 790 791 792 793 794 795 793 796 795 797 798 795 796 797 799 798 800 801 802 803 803 795 799 791 803 802 804 805 794 802 806 807 805 808 809 809 808 798 800 810 799 798 788 800 803 799 801 798 799 795 791 790 794 793 791 794 791 802 811 802 807 811 791 811 789 806 812 807 806 786 812 786 806 787 807 812 790 813 809 796 786 788 808 798 808 788 813 805 809 796 793 813 794 812 804 804 808 805 812 794 790 813 793 792 894 895 896 897 895 898 899 900 901 902 903 894 904 905 906 907 901 908 909 900 899 901 900 902 905 904 910 897 911 907 912 895 913 907 911 914 915 904 906 907 914 916 909 917 900 898 905 910 895 917 913 910 911 897 912 913 918 919 915 920 915 914 904 914 915 916 899 916 919 915 919 916 919 921 899 922 913 909 899 921 909 909 913 917 895 912 898 910 897 898 917 895 894 908 923 907 894 908 902 894 903 917 908 901 902 897 907 923</p>
        </triangles>
        <triangles count="286" material="ID10">
          <input offset="0" semantic="VERTEX" source="#ID8"/>
          <p>72 73 74 75 76 77 78 79 80 81 82 83 84 85 86 87 88 89 90 91 92 93 94 95 96 97 98 99 100 101 102 103 104 105 106 107 108 109 110 111 112 113 114 115 116 117 118 119 120 116 121 115 121 116 122 123 120 120 121 122 123 124 125 124 123 122 126 125 127 124 127 125 128 129 126 126 127 128 129 130 131 130 129 128 132 131 133 130 133 131 119 118 114 114 118 115 117 108 110 119 108 117 113 109 111 110 109 113 102 112 103 112 111 103 106 105 104 105 102 104 98 97 107 98 107 106 96 101 100 96 100 97 99 90 92 101 90 99 95 91 93 92 91 95 84 94 85 94 93 85 88 87 86 87 84 86 80 79 89 80 89 88 78 82 81 78 81 79 83 73 72 82 73 83 77 74 75 72 74 77 134 135 136 137 138 139 140 141 135 136 135 141 142 140 143 140 142 141 143 144 145 145 142 143 146 147 144 145 144 147 148 146 149 146 148 147 149 150 151 151 148 149 152 153 150 151 150 153 154 152 155 152 154 153 156 154 155 156 155 157 136 158 134 159 158 160 158 159 134 160 161 162 162 159 160 163 164 161 162 161 164 165 163 166 163 165 164 166 167 168 168 165 166 169 170 167 168 167 170 171 169 172 169 171 170 172 173 174 174 171 172 174 173 139 175 176 177 173 137 139 178 179 180 181 182 183 184 185 186 187 188 189 190 191 192 193 194 195 196 197 198 199 200 201 202 203 204 196 204 203 202 205 206 205 202 204 207 208 206 206 205 207 157 208 209 207 209 208 156 157 209 198 197 200 196 203 197 199 201 192 198 200 199 190 193 191 201 190 192 194 185 195 193 195 191 189 184 186 186 185 194 178 188 187 188 184 189 180 179 182 178 187 179 181 183 175 180 182 181 176 138 177 183 176 175 137 177 138 210 211 212 212 213 214 214 215 216 217 218 210 219 216 220 221 217 222 222 223 224 223 225 226 219 227 228 229 230 225 231 228 232 233 234 229 235 231 236 233 237 238 239 235 240 241 242 243 244 245 240 246 244 247 248 249 247 250 241 251 252 253 254 255 248 256 254 257 252 258 259 260 261 262 263 264 263 265 266 267 264 268 261 269 270 271 272 273 259 267 274 275 276 277 274 258 278 257 279 276 280 256 250 281 279 272 282 270 282 283 284 269 271 268 272 271 269 261 268 262 263 262 265 264 265 266 267 266 273 259 273 260 258 260 277 274 277 275 276 275 280 256 280 255 248 255 249 247 249 246 244 246 245 240 245 239 240 235 236 236 231 232 232 228 227 227 219 220 220 216 215 215 214 213 213 212 211 211 210 218 218 217 221 221 222 224 224 223 226 226 225 230 230 229 234 234 233 238 242 237 243 238 237 242 241 243 251 250 251 281 279 281 278 257 278 252 254 253 283 282 284 270 283 253 284 285 286 287 288 289 290 291 292 293 294 295 296 297 298 299 300 301 302 303 304 305 306 307 285 308 309 310 311 312 313 314 315 316 317 318 312 314 319 313 318 320 306 309 321 322 315 322 323 301 287 324 305 325 326 310 325 327 328 295 329 300 330 331 298 332 333 334 332 304 335 336 337 336 338 296 297 339 340 341 293 342 340 343 342 344 292 345 346 347 348 349 350 344 290 289 337 351 352 350 353 354 355 353 352 356 348 347 357 357 358 359 355 354 346 348 355 346 353 356 354 352 351 356 350 349 351 344 345 349 292 291 345 293 341 291 342 343 341 340 339 343 297 299 339 298 333 299 332 334 333 304 303 334 305 326 303 305 327 325 327 308 310 308 321 309 321 323 322 323 316 315 316 319 314 319 311 313 311 317 312 317 320 318 320 307 306 307 286 285 286 324 287 324 302 301 302 330 300 328 329 331 330 328 331 295 294 329 296 338 294 336 335 338 337 289 335 290 359 288 357 347 358 359 358 288</p>
        </triangles>
        <triangles count="308" material="ID11">
          <input offset="0" semantic="VERTEX" source="#ID8"/>
          <p>0 1 2 0 2 3 4 5 6 4 6 7 8 9 10 10 11 8 12 13 14 15 16 17 18 19 13 12 18 13 20 17 16 21 22 15 16 15 22 22 19 16 18 23 19 19 22 13 24 25 26 25 24 27 28 29 30 28 30 31 32 33 34 35 32 36 35 33 32 35 37 33 33 38 34 39 32 34 40 38 33 41 42 40 40 33 41 41 43 44 42 41 44 45 43 46 43 41 46 46 47 48 46 41 47 41 49 47 50 51 52 53 54 52 52 54 50 55 50 54 56 57 58 55 56 50 59 60 58 61 58 57 62 60 59 61 59 58 60 63 58 56 58 50 64 65 66 64 66 67 68 69 70 70 71 68 360 361 362 363 364 361 362 361 364 365 363 366 363 365 364 367 365 366 367 366 368 362 369 360 370 369 371 369 370 360 371 372 373 373 370 371 373 372 374 372 375 374 376 377 378 376 379 377 376 380 379 379 380 381 382 383 384 385 386 387 388 389 390 391 392 393 394 395 396 396 389 394 391 388 390 394 397 395 389 396 390 393 392 384 388 391 393 382 386 383 392 382 384 385 383 386 398 399 400 401 399 402 403 401 402 402 399 398 404 405 406 406 407 404 408 409 410 408 410 411 412 413 414 414 415 412 416 417 418 416 418 419 420 421 422 422 423 420 450 451 452 451 450 453 454 455 456 454 457 455 458 459 460 458 461 459 462 463 464 463 462 465 466 467 468 466 468 469 474 475 476 476 477 474 478 479 480 479 478 481 482 483 484 482 485 483 486 487 488 486 489 487 490 491 492 491 490 493 494 495 496 495 494 497 498 499 500 498 501 499 502 503 504 502 505 503 506 507 508 507 506 509 510 511 512 513 510 514 515 512 511 516 517 518 515 513 519 520 521 522 510 523 514 524 522 517 525 516 526 525 524 517 513 514 519 512 523 510 522 524 520 527 510 520 517 516 525 512 515 519 526 516 528 520 524 527 527 529 510 526 529 527 526 528 529 516 513 528 513 515 528 529 511 510 530 531 532 532 533 530 534 535 536 534 536 537 538 539 540 538 540 541 542 543 544 542 544 545 546 547 548 546 548 549 550 551 552 552 553 550 554 555 556 554 557 555 554 558 557 554 559 560 559 557 560 554 560 558 561 557 558 560 557 561 562 563 564 565 563 562 566 562 567 567 562 568 564 568 562 564 567 569 564 569 568 564 566 567 570 571 572 571 570 573 574 575 576 575 574 577 578 579 580 578 581 579 582 583 584 583 582 585 586 587 588 587 586 589 590 591 592 591 590 593 594 595 596 594 597 595 598 599 600 600 601 598 602 603 604 602 605 603 606 607 608 608 609 606 610 611 612 611 610 613 614 615 616 615 614 617 618 619 620 619 618 621 622 623 624 624 625 622 626 627 628 626 629 627 630 631 632 632 633 630 634 635 636 635 634 637 638 639 640 640 641 638 686 687 688 687 686 689 690 691 692 690 693 691 694 695 696 696 697 694 698 699 700 699 698 701 706 707 708 707 706 709 710 711 712 711 710 713 714 715 716 716 717 714 718 719 720 719 718 721 722 723 724 722 724 725 726 727 728 727 726 729 730 731 732 732 733 730 734 735 736 734 737 735 738 739 740 739 738 741 742 743 744 742 745 743 746 747 748 747 746 749 750 751 752 751 750 753 754 755 756 755 754 757 758 759 760 759 758 761 762 763 764 764 765 762 766 767 768 767 766 769 770 771 772 770 773 771 774 775 776 775 774 777 778 779 780 778 781 779 782 783 784 783 782 785 834 835 836 836 837 834 838 839 840 838 840 841 842 843 844 843 842 845 846 847 848 847 846 849 850 851 852 850 852 853 854 855 856 856 857 854 858 859 860 859 858 861 862 863 864 862 864 865 866 867 868 867 866 869 870 871 872 871 870 873 874 875 876 874 877 875 878 879 880 880 881 878 882 883 884 882 885 883 886 887 888 888 889 886 890 891 892 890 893 891 924 925 926 924 926 927 928 929 930 928 931 929 932 933 934 933 932 935 936 937 938 937 936 939 940 941 942 940 943 941 944 945 946 946 947 944 948 949 950 950 951 948 952 953 954 953 952 955</p>
        </triangles>
        <triangles count="54" material="ID12">
          <input offset="0" semantic="VERTEX" source="#ID8"/>
          <p>424 425 426 425 424 427 428 429 430 431 432 430 432 433 430 433 428 430 434 435 436 434 436 437 438 439 440 441 442 443 443 440 444 443 442 440 445 446 447 440 442 445 448 438 445 440 445 438 446 445 442 448 449 438 470 471 472 470 472 473 664 665 666 667 668 669 670 671 672 666 673 674 672 675 670 667 676 668 677 678 679 669 668 680 668 674 681 682 677 683 682 683 684 684 683 685 677 679 666 683 677 674 681 674 673 677 666 674 680 681 675 681 680 668 670 675 664 680 675 672 664 675 665 666 665 673 814 815 816 815 814 817 818 819 820 818 821 819 822 823 821 818 824 821 821 823 819 825 820 819 826 827 828 826 828 829 830 831 832 831 830 833</p>
        </triangles>
      </mesh>
    </geometry>
  </library_geometries>

  <library_visual_scenes>
    <visual_scene id="ID1">
      <node id="ID2">
        <instance_geometry url="#ID3">
          <bind_material>
            <technique_common>
              <instance_material symbol="ID9" target="#ID9"/>
              <instance_material symbol="ID10" target="#ID10"/>
              <instance_material symbol="ID11" target="#ID11"/>
              <instance_material symbol="ID12" target="#ID12"/>
            </technique_common>
          </bind_material>
        </instance_geometry>
      </node>
    </visual_scene>
  </library_visual_scenes>

  <scene>
    <instance_visual_scene url="#ID1"/>
  </scene>

  <library_nodes/>

</COLLADA>
