<?xml version="1.0" encoding="UTF-8" standalone="no" ?>
<COLLADA version="1.4.1" xmlns="http://www.collada.org/2005/11/COLLADASchema">

  <asset>
    <contributor>
      <authoring_tool>ONSHAPE BY PTC INC, 1.214</authoring_tool>
    </contributor>
    <created>2026-05-02T22:05:45</created>
    <modified>2026-05-02T22:05:45</modified>
    <unit meter="1" name="meters"/>
    <up_axis>Z_UP</up_axis>
  </asset>

  <library_materials>
    <material id="ID9" name="ID9">
      <instance_effect url="#ID9-fx"/>
    </material>
    <material id="ID10" name="ID10">
      <instance_effect url="#ID10-fx"/>
    </material>
    <material id="ID11" name="ID11">
      <instance_effect url="#ID11-fx"/>
    </material>
  </library_materials>

  <library_effects>
    <effect id="ID9-fx" name="ID9">
      <profile_COMMON>
        <technique sid="COMMON">
          <lambert>
            <diffuse>
              <color sid="diffuse">0 0 1 1</color>
            </diffuse>
            <transparent opaque="A_ONE">
              <color sid="transparent">1 1 1 1</color>
            </transparent>
            <transparency>
              <float sid="transparency">1</float>
            </transparency>
          </lambert>
        </technique>
        <extra>
          <technique profile="OTHER">
            <double_sided>1</double_sided>
          </technique>
        </extra>
      </profile_COMMON>
    </effect>
    <effect id="ID10-fx" name="ID10">
      <profile_COMMON>
        <technique sid="COMMON">
          <lambert>
            <diffuse>
              <color sid="diffuse">0.6 0.352941 0.0509804 1</color>
            </diffuse>
            <transparent opaque="A_ONE">
              <color sid="transparent">1 1 1 1</color>
            </transparent>
            <transparency>
              <float sid="transparency">1</float>
            </transparency>
          </lambert>
        </technique>
        <extra>
          <technique profile="OTHER">
            <double_sided>1</double_sided>
          </technique>
        </extra>
      </profile_COMMON>
    </effect>
    <effect id="ID11-fx" name="ID11">
      <profile_COMMON>
        <technique sid="COMMON">
          <lambert>
            <diffuse>
              <color sid="diffuse">0.647059 0.647059 0.647059 1</color>
            </diffuse>
            <transparent opaque="A_ONE">
              <color sid="transparent">1 1 1 1</color>
            </transparent>
            <transparency>
              <float sid="transparency">1</float>
            </transparency>
          </lambert>
        </technique>
        <extra>
          <technique profile="OTHER">
            <double_sided>1</double_sided>
          </technique>
        </extra>
      </profile_COMMON>
    </effect>
  </library_effects>

  <library_geometries>
    <geometry id="ID3">
      <mesh>
        <source id="ID4">
          <float_array count="3984" id="ID5">-1.02318e-15 0.45 1.02168 -9.66338e-16 -0.45 1.02168 -0.914525 -0.45 0.03 -0.914525 0.45 0.03 0 0.45 0.03 0 -0.45 0.03 -9.66338e-16 -0.45 1.02168 -1.02318e-15 0.45 1.02168 0 0.45 1.06593 0 -0.45 1.06593 0 -0.45 2.5 0 0.45 2.5 0 0.45 1.06593 -0.983 0.45 1.13687e-16 -0.983 -0.45 1.13687e-16 0 -0.45 1.06593 -0.983 0.45 1.13687e-16 0.03 0.45 0 0.03 -0.45 0 -0.983 -0.45 1.13687e-16 0.03 0.45 0 0.03 0.45 2.5 0.03 0.0498292 1.29587 0.03 -0.016235 1.34729 0.03 -0.00822973 1.34932 0.03 -0.45 2.5 0.03 0.0418583 1.32735 0.03 0.0367862 1.33386 0.03 -0.45 0 0.03 -1.7053e-16 1.25 0.03 0.016235 1.25271 0.03 0.00822973 1.25068 0.03 0.0307106 1.26054 0.03 0.0237974 1.25603 0.03 0.0418583 1.27265 0.03 0.0367862 1.26614 0.03 0.04847 1.28773 0.03 0.0457887 1.27992 0.03 0.04847 1.31227 0.03 0.0498292 1.30413 0.03 0.0457887 1.32008 0.03 0.0237974 1.34397 0.03 0.0307106 1.33946 0.03 0.00822973 1.34932 0.03 0.016235 1.34729 0.03 -2.27374e-16 1.35 0.03 -0.0498292 1.29587 0.03 -0.0498292 1.30413 0.03 -0.0307106 1.33946 0.03 -0.0237974 1.34397 0.03 -0.0418583 1.32735 0.03 -0.0367862 1.33386 0.03 -0.04847 1.31227 0.03 -0.0457887 1.32008 0.03 -0.04847 1.28773 0.03 -0.0418583 1.27265 0.03 -0.0457887 1.27992 0.03 -0.0307106 1.26054 0.03 -0.0367862 1.26614 0.03 -0.016235 1.25271 0.03 -0.0237974 1.25603 0.03 -0.00822973 1.25068 0.03 0.45 2.5 0 0.45 2.5 0 -0.45 2.5 0.03 -0.45 2.5 0 0.45 0.03 -0.914525 0.45 0.03 -0.914525 -0.45 0.03 0 -0.45 0.03 0 -0.45 1.06593 0.03 -0.45 2.5 0 -0.45 2.5 0.03 -0.45 0 -9.66338e-16 -0.45 1.02168 -0.983 -0.45 1.13687e-16 -0.914525 -0.45 0.03 0 -0.45 0.03 0 0.45 1.06593 0.03 0.45 2.5 0.03 0.45 0 0 0.45 2.5 -0.983 0.45 1.13687e-16 -0.914525 0.45 0.03 -1.02318e-15 0.45 1.02168 0 0.45 0.03 0.189 0.276063 1.71304 0.219 0.265516 1.68616 0.189 0.265516 1.68616 0.189 0.286215 1.74006 0.219 0.276063 1.71304 0.219 0.286215 1.74006 0.189 0.295949 1.76724 0.189 0.305242 1.79458 0.219 0.295949 1.76724 0.189 0.314038 1.82207 0.219 0.305242 1.79458 0.219 0.314038 1.82207 0.189 0.322299 1.84973 0.189 0.329975 1.87756 0.219 0.322299 1.84973 0.189 0.33695 1.90558 0.219 0.329975 1.87756 0.219 0.343147 1.93377 0.219 0.33695 1.90558 0.189 0.343147 1.93377 0.219 0.348451 1.96215 0.189 0.348451 1.96215 0.219 0.352583 1.99072 0.219 0.355354 2.01945 0.189 0.352583 1.99072 0.189 0.355354 2.01945 0.219 0.356448 2.0483 0.189 0.356448 2.0483 0.219 0.354937 2.07709 0.219 0.350173 2.10546 0.189 0.354937 2.07709 0.189 0.340991 2.1329 0.189 0.350173 2.10546 0.219 0.340991 2.1329 0.219 0.254601 1.65944 0.219 0.243328 1.63286 0.189 0.254601 1.65944 0.219 0.231709 1.60643 0.189 0.243328 1.63286 0.189 0.231709 1.60643 0.219 0.219752 1.58016 0.219 0.207459 1.55403 0.189 0.219752 1.58016 0.219 0.194832 1.52807 0.189 0.207459 1.55403 0.189 0.194832 1.52807 0.219 0.181864 1.50228 0.219 0.168549 1.47666 0.189 0.181864 1.50228 0.219 0.154877 1.45124 0.189 0.168549 1.47666 0.189 0.154877 1.45124 0.219 0.140821 1.42602 0.219 0.126369 1.40103 0.189 0.140821 1.42602 0.189 0.126369 1.40103 0.189 0.111486 1.37628 0.189 0.0960974 1.35186 0.219 0.111486 1.37628 0.219 0.0960974 1.35186 0.189 0.0801891 1.32776 0.219 0.0801891 1.32776 0.189 0.0635807 1.30416 0.219 0.0635807 1.30416 0.219 0.0462723 1.28106 0.189 0.0462723 1.28106 0.219 0.315194 2.11981 0.219 0.340991 2.1329 0.189 0.340991 2.1329 0.219 0.251058 2.06229 0.219 0.270623 2.08349 0.189 0.251058 2.06229 0.219 0.291737 2.10334 0.189 0.291737 2.10334 0.189 0.270623 2.08349 0.189 0.19975 1.99252 0.189 0.184421 1.96804 0.219 0.19975 1.99252 0.219 0.232944 2.03976 0.189 0.215904 2.01644 0.219 0.215904 2.01644 0.189 0.142214 1.89242 0.219 0.142214 1.89242 0.189 0.155709 1.91795 0.189 0.169765 1.94317 0.219 0.155709 1.91795 0.219 0.169765 1.94317 0.219 0.10455 1.81444 0.189 0.10455 1.81444 0.219 0.0928351 1.78805 0.219 0.116663 1.84065 0.189 0.12921 1.86665 0.189 0.116663 1.84065 0.219 0.0599473 1.70794 0.219 0.0705483 1.73479 0.189 0.0705483 1.73479 0.189 0.0815052 1.7615 0.219 0.0815052 1.7615 0.189 0.0928351 1.78805 0.189 0.0397992 1.65383 0.219 0.0302468 1.62659 0.219 0.0397992 1.65383 0.189 0.0599473 1.70794 0.189 0.0496991 1.68095 0.219 0.0496991 1.68095 0.189 0.0210469 1.59922 0.189 0.0122041 1.57174 0.219 0.0122041 1.57174 0.219 0.0210469 1.59922 0.189 0.0302468 1.62659 0.189 0.0037359 1.54414 0.219 -0.00434303 1.51643 0.219 0.0037359 1.54414 0.219 -0.012013 1.48859 0.189 -0.00434303 1.51643 0.189 -0.012013 1.48859 0.219 -0.0192248 1.46064 0.189 -0.0259476 1.43256 0.189 -0.0192248 1.46064 0.219 -0.0259476 1.43256 0.189 -0.0321304 1.40436 0.189 -0.037643 1.37603 0.219 -0.0321304 1.40436 0.189 -0.0424064 1.34755 0.219 -0.037643 1.37603 0.219 -0.0462723 1.31894 0.219 -0.0424064 1.34755 0.189 -0.0462723 1.31894 0.219 0.12921 1.86665 0.219 0.184421 1.96804 0.189 0.232944 2.03976 0.189 0.315194 2.11981 0.216 0.342967 2.04366 0.219 0.342967 2.03705 0.219 0.342967 2.04366 0.219 0.29652 2.0009 0.219 0.303104 2.00036 0.216 0.303104 2.00036 0.219 0.34188 2.05018 0.216 0.34188 2.05018 0.219 0.339734 2.05642 0.216 0.339734 2.05642 0.216 0.33659 2.06223 0.219 0.33659 2.06223 0.219 0.332532 2.06745 0.216 0.332532 2.06745 0.219 0.327672 2.07192 0.216 0.327672 2.07192 0.216 0.322141 2.07554 0.219 0.322141 2.07554 0.219 0.316092 2.07819 0.216 0.316092 2.07819 0.219 0.309687 2.07981 0.216 0.309687 2.07981 0.216 0.303104 2.08036 0.219 0.303104 2.08036 0.216 0.342967 2.03705 0.219 0.34188 2.03054 0.216 0.34188 2.03054 0.216 0.339734 2.02429 0.219 0.339734 2.02429 0.216 0.33659 2.01848 0.219 0.33659 2.01848 0.219 0.332532 2.01327 0.216 0.332532 2.01327 0.216 0.327672 2.00879 0.219 0.327672 2.00879 0.216 0.322141 2.00518 0.219 0.322141 2.00518 0.219 0.316092 2.00252 0.216 0.316092 2.00252 0.216 0.309687 2.0009 0.219 0.309687 2.0009 0.219 0.278535 2.00879 0.219 0.284066 2.00518 0.216 0.284066 2.00518 0.219 0.290116 2.00252 0.216 0.29652 2.0009 0.216 0.290116 2.00252 0.216 0.269617 2.01848 0.219 0.266473 2.02429 0.219 0.269617 2.01848 0.216 0.278535 2.00879 0.216 0.273675 2.01327 0.219 0.273675 2.01327 0.219 0.26324 2.03705 0.216 0.26324 2.03705 0.219 0.26324 2.04366 0.219 0.264328 2.03054 0.216 0.266473 2.02429 0.216 0.264328 2.03054 0.219 0.269617 2.06223 0.219 0.266473 2.05642 0.216 0.266473 2.05642 0.216 0.264328 2.05018 0.219 0.264328 2.05018 0.216 0.26324 2.04366 0.216 0.278535 2.07192 0.219 0.278535 2.07192 0.216 0.273675 2.06745 0.216 0.269617 2.06223 0.219 0.273675 2.06745 0.219 0.284066 2.07554 0.216 0.284066 2.07554 0.216 0.290116 2.07819 0.219 0.290116 2.07819 0.216 0.29652 2.07981 0.219 0.29652 2.07981 0.216 0.172471 1.62721 0.219 0.172471 1.6206 0.219 0.172471 1.62721 0.219 0.126024 1.58445 0.219 0.132608 1.58391 0.216 0.132608 1.58391 0.219 0.171384 1.63373 0.216 0.171384 1.63373 0.219 0.169239 1.63997 0.216 0.169239 1.63997 0.216 0.166094 1.64578 0.219 0.166094 1.64578 0.219 0.162037 1.651 0.216 0.162037 1.651 0.219 0.157176 1.65547 0.216 0.157176 1.65547 0.216 0.151646 1.65909 0.219 0.151646 1.65909 0.219 0.145596 1.66174 0.216 0.145596 1.66174 0.219 0.139192 1.66336 0.216 0.139192 1.66336 0.216 0.132608 1.66391 0.219 0.132608 1.66391 0.216 0.172471 1.6206 0.219 0.171384 1.61409 0.216 0.171384 1.61409 0.216 0.169239 1.60784 0.219 0.169239 1.60784 0.216 0.166094 1.60203 0.219 0.166094 1.60203 0.219 0.162037 1.59681 0.216 0.162037 1.59681 0.216 0.157176 1.59234 0.219 0.157176 1.59234 0.216 0.151646 1.58873 0.219 0.151646 1.58873 0.219 0.145596 1.58607 0.216 0.145596 1.58607 0.216 0.139192 1.58445 0.219 0.139192 1.58445 0.219 0.108039 1.59234 0.219 0.11357 1.58873 0.216 0.11357 1.58873 0.219 0.11962 1.58607 0.216 0.126024 1.58445 0.216 0.11962 1.58607 0.216 0.0991211 1.60203 0.219 0.0959769 1.60784 0.219 0.0991211 1.60203 0.216 0.108039 1.59234 0.216 0.103179 1.59681 0.219 0.103179 1.59681 0.219 0.0927444 1.6206 0.216 0.0927444 1.6206 0.219 0.0927444 1.62721 0.219 0.0938318 1.61409 0.216 0.0959769 1.60784 0.216 0.0938318 1.61409 0.219 0.0991211 1.64578 0.219 0.0959769 1.63997 0.216 0.0959769 1.63997 0.216 0.0938318 1.63373 0.219 0.0938318 1.63373 0.216 0.0927444 1.62721 0.216 0.108039 1.65547 0.219 0.108039 1.65547 0.216 0.103179 1.651 0.216 0.0991211 1.64578 0.219 0.103179 1.651 0.219 0.11357 1.65909 0.216 0.11357 1.65909 0.216 0.11962 1.66174 0.219 0.11962 1.66174 0.216 0.126024 1.66336 0.219 0.126024 1.66336 0.219 -0.132608 0.936094 0.219 -0.139192 0.936639 0.219 -0.10455 0.785561 0.219 0.157176 1.65547 0.219 0.12921 1.86665 0.219 0.151646 1.65909 0.219 0.232944 2.03976 0.219 0.264328 2.03054 0.219 0.26324 2.03705 0.219 -0.309687 0.520189 0.219 -0.316092 0.52181 0.219 -0.315194 0.480192 0.219 -0.34188 0.549824 0.219 -0.342967 0.55634 0.219 -0.356509 0.55167 0.219 0.265516 1.68616 0.219 0.169765 1.94317 0.219 0.155709 1.91795 0.219 0.139192 1.66336 0.219 0.116663 1.84065 0.219 0.10455 1.81444 0.219 -0.343236 0.666227 0.219 -0.348498 0.637841 0.219 -0.322141 0.594822 0.219 -0.322341 0.750271 0.219 -0.290116 0.597476 0.219 -0.314061 0.777931 0.219 0.295949 1.76724 0.219 0.19975 1.99252 0.219 0.286215 1.74006 0.219 0.184421 1.96804 0.219 0.276063 1.71304 0.219 -0.184421 0.631958 0.219 -0.169765 0.656835 0.219 -0.276073 0.886964 0.219 -0.12921 0.733353 0.219 -0.145596 0.938261 0.219 -0.151646 0.940915 0.219 0.314038 1.82207 0.219 0.284066 2.00518 0.219 0.278535 2.00879 0.219 -0.155709 0.682051 0.219 -0.142214 0.707577 0.219 -0.162037 0.949003 0.219 -0.116663 0.759354 0.219 0.34188 2.03054 0.219 0.339734 2.02429 0.219 0.355354 2.01945 0.219 0.303104 2.00036 0.219 0.329975 1.87756 0.219 0.33695 1.90558 0.219 -0.219756 1.01984 0.219 -0.231716 0.993568 0.219 -0.172471 0.972791 0.219 -0.171384 0.985913 0.219 -0.169239 0.992162 0.219 -0.207461 1.04596 0.219 0.309687 2.07981 0.219 0.316092 2.07819 0.219 0.315194 2.11981 0.219 0.291737 2.10334 0.219 0.290116 2.07819 0.219 0.29652 2.07981 0.219 -0.166094 0.997972 0.219 -0.162037 1.00319 0.219 -0.194831 1.07192 0.219 -0.0991211 0.997972 0.219 -0.0122041 1.02826 0.219 -0.096091 1.24813 0.219 0.303104 2.08036 0.219 0.322141 2.07554 0.219 -0.126024 1.01555 0.219 -0.140818 1.17398 0.219 -0.154868 1.14876 0.219 -0.0037359 1.05586 0.219 0.350173 2.10546 0.219 0.33659 2.06223 0.219 0.354937 2.07709 0.219 0.269617 2.06223 0.219 0.273675 2.06745 0.219 0.270623 2.08349 0.219 0.356448 2.0483 0.219 0.34188 2.05018 0.219 0.342967 2.04366 0.219 0.29652 2.0009 0.219 0.273675 2.01327 0.219 0.269617 2.01848 0.219 0.215904 2.01644 0.219 0.322299 1.84973 0.219 0.290116 2.00252 0.219 0.305242 1.79458 0.219 0.254601 1.65944 0.219 0.145596 1.66174 0.219 0.0928351 1.78805 0.219 0.126024 1.66336 0.219 0.132608 1.66391 0.219 0.169239 1.63997 0.219 0.166094 1.64578 0.219 0.11962 1.66174 0.219 0.103179 1.651 0.219 0.0705483 1.73479 0.219 0.0991211 1.64578 0.219 0.0815052 1.7615 0.219 0.11357 1.65909 0.219 0.0959769 1.63997 0.219 0.0599473 1.70794 0.219 0.0938318 1.63373 0.219 0.171384 1.63373 0.219 0.243328 1.63286 0.219 0.0496991 1.68095 0.219 0.0927444 1.62721 0.219 0.219752 1.58016 0.219 0.231709 1.60643 0.219 0.172471 1.62721 0.219 0.0938318 1.61409 0.219 0.0927444 1.6206 0.219 0.0302468 1.62659 0.219 0.0397992 1.65383 0.219 -0.139192 1.01555 0.219 -0.132608 1.01609 0.219 0.145596 1.58607 0.219 0.139192 1.58445 0.219 0.168549 1.47666 0.219 0.132608 1.58391 0.219 0.126024 1.58445 0.219 0.154877 1.45124 0.219 0.0959769 1.60784 0.219 0.0210469 1.59922 0.219 0.0122041 1.57174 0.219 0.140821 1.42602 0.219 0.0960974 1.35186 0.219 0.0991211 1.60203 0.219 0.11962 1.58607 0.219 0.103179 1.59681 0.219 0.111486 1.37628 0.219 0.108039 1.59234 0.219 0.126369 1.40103 0.219 0.11357 1.58873 0.219 0.0037359 1.54414 0.219 -0.00434303 1.51643 0.219 0.0801891 1.32776 0.219 0.0635807 1.30416 0.219 -0.012013 1.48859 0.219 0.0462723 1.28106 0.219 -0.0192248 1.46064 0.219 -0.0321304 1.40436 0.219 -0.0259476 1.43256 0.219 -0.0424064 1.34755 0.219 -0.037643 1.37603 0.219 -0.108039 1.00766 0.219 -0.11146 1.22369 0.219 -0.126356 1.19896 0.219 -0.0462723 1.31894 0.219 0.0424064 1.25245 0.219 -0.0397992 0.94617 0.219 -0.0927444 0.979397 0.219 -0.0927444 0.972791 0.219 -0.0959769 0.992162 0.219 -0.0210469 1.00078 0.219 -0.166094 0.954216 0.219 -0.169239 0.960026 0.219 -0.25461 0.940564 0.219 -0.171384 0.966274 0.219 -0.243337 0.967141 0.219 -0.157176 0.944528 0.219 -0.265529 0.913839 0.219 -0.286224 0.859939 0.219 -0.278535 0.591209 0.219 -0.305256 0.805426 0.219 -0.295967 0.832761 0.219 -0.19975 0.607483 0.219 -0.303104 0.599643 0.219 -0.29652 0.599098 0.219 -0.330003 0.722436 0.219 -0.264328 0.569463 0.219 -0.26324 0.562946 0.219 -0.232944 0.560237 0.219 -0.316092 0.597476 0.219 -0.332532 0.586734 0.219 -0.352704 0.609267 0.219 -0.33659 0.581521 0.219 -0.291737 0.496662 0.219 -0.303104 0.519643 0.219 -0.322141 0.524464 0.219 -0.339734 0.575711 0.219 -0.350201 0.494524 0.219 -0.33659 0.537765 0.219 -0.355373 0.522715 0.219 -0.337001 0.694425 0.219 -0.309687 0.599098 0.219 -0.327672 0.591209 0.219 -0.273675 0.586734 0.219 -0.181862 1.09772 0.219 -0.11962 0.938261 0.219 -0.126024 0.936639 0.219 -0.0928351 0.811947 0.219 -0.0938318 0.985913 0.219 -0.0302468 0.973412 0.219 -0.172471 0.979397 0.219 -0.151646 1.01127 0.219 -0.168545 1.12333 0.219 -0.11357 1.01127 0.219 -0.11962 1.01393 0.219 -0.0801497 1.2722 0.219 0.00434303 1.08357 0.219 -0.0635796 1.29584 0.219 0.012013 1.11141 0.219 0.0192248 1.13936 0.219 0.0259476 1.16744 0.219 0.0321304 1.19564 0.219 0.037643 1.22397 0.219 -0.103179 0.949003 0.219 -0.108039 0.944528 0.219 -0.0815052 0.838499 0.219 -0.0938318 0.966274 0.219 -0.0599473 0.892061 0.219 -0.0496991 0.91905 0.219 -0.157176 1.00766 0.219 -0.145596 1.01393 0.219 -0.103179 1.00319 0.219 -0.0959769 0.960026 0.219 -0.0705483 0.865209 0.219 -0.0991211 0.954216 0.219 -0.11357 0.940915 0.219 -0.270623 0.516508 0.219 -0.269617 0.537765 0.219 -0.273675 0.532552 0.219 -0.355586 0.580507 0.219 -0.342967 0.562946 0.219 -0.327672 0.528078 0.219 -0.340991 0.467099 0.219 -0.332532 0.532552 0.219 -0.34188 0.569463 0.219 -0.339734 0.543575 0.219 -0.269617 0.581521 0.219 -0.215904 0.583557 0.219 -0.284066 0.594822 0.219 -0.266473 0.543575 0.219 -0.251058 0.537712 0.219 -0.266473 0.575711 0.219 -0.26324 0.55634 0.219 -0.264328 0.549824 0.219 -0.278535 0.528078 0.219 -0.284066 0.524464 0.219 -0.29652 0.520189 0.219 -0.290116 0.52181 0.219 0.162037 1.59681 0.219 0.181864 1.50228 0.219 0.194832 1.52807 0.219 0.172471 1.6206 0.219 0.207459 1.55403 0.219 0.108039 1.65547 0.219 0.169239 1.60784 0.219 0.171384 1.61409 0.219 0.162037 1.651 0.219 0.142214 1.89242 0.219 0.166094 1.60203 0.219 0.157176 1.59234 0.219 0.151646 1.58873 0.219 0.322141 2.00518 0.219 0.316092 2.00252 0.219 0.343147 1.93377 0.219 0.352583 1.99072 0.219 0.332532 2.01327 0.219 0.348451 1.96215 0.219 0.284066 2.07554 0.219 0.278535 2.07192 0.219 0.266473 2.05642 0.219 0.251058 2.06229 0.219 0.266473 2.02429 0.219 0.26324 2.04366 0.219 0.264328 2.05018 0.219 0.342967 2.03705 0.219 0.327672 2.07192 0.219 0.340991 2.1329 0.219 0.332532 2.06745 0.219 0.339734 2.05642 0.219 0.33659 2.01848 0.219 0.327672 2.00879 0.219 0.309687 2.0009 0.189 0.265516 1.68616 0.189 0.254601 1.65944 0.189 0.142214 1.89242 0.189 0.355354 2.01945 0.189 0.352583 1.99072 0.189 0.291737 2.10334 0.189 0.219752 1.58016 0.189 0.116663 1.84065 0.189 0.231709 1.60643 0.189 0.243328 1.63286 0.189 0.12921 1.86665 0.189 0.207459 1.55403 0.189 0.0815052 1.7615 0.189 0.0928351 1.78805 0.189 0.10455 1.81444 0.189 0.0397992 1.65383 0.189 0.0496991 1.68095 0.189 0.154877 1.45124 0.189 0.168549 1.47666 0.189 0.0599473 1.70794 0.189 0.181864 1.50228 0.189 0.0210469 1.59922 0.189 0.0302468 1.62659 0.189 0.126369 1.40103 0.189 0.0635807 1.30416 0.189 0.0497439 1.30505 0.189 0.0482606 1.31307 0.189 0.111486 1.37628 0.189 0.0122041 1.57174 0.189 0.0801891 1.32776 0.189 0.0454935 1.32074 0.189 0.0037359 1.54414 0.189 0.0364346 1.33424 0.189 0.0960974 1.35186 0.189 0.0303836 1.33971 0.189 0.0235245 1.34412 0.189 -0.00434303 1.51643 0.189 0.0160395 1.34736 0.189 0.00812786 1.34933 0.189 -0.0192248 1.46064 0.189 -0.012013 1.48859 0.189 -0.00840428 1.34929 0.189 -0.0165694 1.34717 0.189 -0.0321304 1.40436 0.189 -0.0259476 1.43256 0.189 -1.88166e-16 1.35 0.189 -0.0373799 1.33321 0.189 -0.0424297 1.32645 0.189 -0.0424064 1.34755 0.189 -0.037643 1.37603 0.189 -0.0242631 1.34372 0.189 -0.0312663 1.33902 0.189 -0.0462723 1.31894 0.189 0.194832 1.52807 0.189 0.0705483 1.73479 0.189 0.0415163 1.32786 0.189 0.140821 1.42602 0.189 0.0499039 1.2969 0.189 0.0487363 1.28883 0.189 0.0462723 1.28106 0.189 0.155709 1.91795 0.189 0.169765 1.94317 0.189 0.276063 1.71304 0.189 0.286215 1.74006 0.189 0.184421 1.96804 0.189 0.19975 1.99252 0.189 0.295949 1.76724 0.189 0.215904 2.01644 0.189 0.305242 1.79458 0.189 0.314038 1.82207 0.189 0.232944 2.03976 0.189 0.322299 1.84973 0.189 0.329975 1.87756 0.189 0.251058 2.06229 0.189 0.33695 1.90558 0.189 0.343147 1.93377 0.189 0.270623 2.08349 0.189 0.348451 1.96215 0.189 0.315194 2.11981 0.189 0.356448 2.0483 0.189 0.354937 2.07709 0.189 0.350173 2.10546 0.189 0.340991 2.1329 0.216 0.132608 1.66391 0.216 0.169239 1.60784 0.216 0.171384 1.61409 0.216 0.145596 1.66174 0.216 0.172471 1.6206 0.216 0.172471 1.62721 0.216 0.171384 1.63373 0.216 0.151646 1.65909 0.216 0.139192 1.66336 0.216 0.169239 1.63997 0.216 0.166094 1.64578 0.216 0.162037 1.651 0.216 0.157176 1.65547 0.216 0.126024 1.66336 0.216 0.166094 1.60203 0.216 0.162037 1.59681 0.216 0.11962 1.66174 0.216 0.11357 1.65909 0.216 0.157176 1.59234 0.216 0.108039 1.65547 0.216 0.151646 1.58873 0.216 0.145596 1.58607 0.216 0.103179 1.651 0.216 0.0991211 1.64578 0.216 0.139192 1.58445 0.216 0.0959769 1.63997 0.216 0.0938318 1.63373 0.216 0.132608 1.58391 0.216 0.11962 1.58607 0.216 0.0927444 1.6206 0.216 0.11357 1.58873 0.216 0.0927444 1.62721 0.216 0.126024 1.58445 0.216 0.103179 1.59681 0.216 0.0959769 1.60784 0.216 0.0991211 1.60203 0.216 0.108039 1.59234 0.216 0.0938318 1.61409 0.216 0.303104 2.08036 0.216 0.339734 2.02429 0.216 0.34188 2.03054 0.216 0.316092 2.07819 0.216 0.342967 2.03705 0.216 0.342967 2.04366 0.216 0.34188 2.05018 0.216 0.322141 2.07554 0.216 0.309687 2.07981 0.216 0.339734 2.05642 0.216 0.33659 2.06223 0.216 0.332532 2.06745 0.216 0.327672 2.07192 0.216 0.29652 2.07981 0.216 0.33659 2.01848 0.216 0.332532 2.01327 0.216 0.290116 2.07819 0.216 0.284066 2.07554 0.216 0.327672 2.00879 0.216 0.278535 2.07192 0.216 0.322141 2.00518 0.216 0.316092 2.00252 0.216 0.273675 2.06745 0.216 0.269617 2.06223 0.216 0.309687 2.0009 0.216 0.266473 2.05642 0.216 0.264328 2.05018 0.216 0.303104 2.00036 0.216 0.290116 2.00252 0.216 0.26324 2.03705 0.216 0.284066 2.00518 0.216 0.26324 2.04366 0.216 0.29652 2.0009 0.216 0.273675 2.01327 0.216 0.266473 2.02429 0.216 0.269617 2.01848 0.216 0.278535 2.00879 0.216 0.264328 2.03054 0.189 -0.276063 0.886962 0.219 -0.265529 0.913839 0.189 -0.265516 0.913837 0.189 -0.286215 0.859938 0.219 -0.276073 0.886964 0.219 -0.286224 0.859939 0.189 -0.295949 0.832759 0.189 -0.305242 0.805425 0.219 -0.295967 0.832761 0.189 -0.314038 0.777929 0.219 -0.305256 0.805426 0.219 -0.314061 0.777931 0.189 -0.322299 0.750267 0.189 -0.329975 0.722435 0.219 -0.322341 0.750271 0.189 -0.33695 0.694423 0.219 -0.330003 0.722436 0.219 -0.343236 0.666227 0.219 -0.337001 0.694425 0.189 -0.343147 0.666228 0.219 -0.348498 0.637841 0.189 -0.348451 0.637846 0.219 -0.352704 0.609267 0.219 -0.355586 0.580507 0.189 -0.352583 0.609279 0.189 -0.355354 0.580552 0.219 -0.356509 0.55167 0.189 -0.356448 0.551696 0.219 -0.355373 0.522715 0.219 -0.350201 0.494524 0.189 -0.354937 0.522914 0.189 -0.340991 0.467099 0.189 -0.350173 0.494545 0.219 -0.340991 0.467099 0.219 -0.25461 0.940564 0.219 -0.243337 0.967141 0.189 -0.254601 0.940563 0.219 -0.231716 0.993568 0.189 -0.243328 0.96714 0.189 -0.231709 0.993568 0.219 -0.219756 1.01984 0.219 -0.207461 1.04596 0.189 -0.219752 1.01984 0.219 -0.194831 1.07192 0.189 -0.207459 1.04597 0.189 -0.194832 1.07193 0.219 -0.181862 1.09772 0.219 -0.168545 1.12333 0.189 -0.181864 1.09772 0.219 -0.154868 1.14876 0.189 -0.168549 1.12334 0.189 -0.154877 1.14876 0.219 -0.140818 1.17398 0.219 -0.126356 1.19896 0.189 -0.140821 1.17398 0.189 -0.126369 1.19897 0.189 -0.111486 1.22372 0.189 -0.0960974 1.24814 0.219 -0.11146 1.22369 0.219 -0.096091 1.24813 0.189 -0.0801891 1.27224 0.219 -0.0801497 1.2722 0.189 -0.0635807 1.29584 0.219 -0.0635796 1.29584 0.219 -0.0462723 1.31894 0.189 -0.0462723 1.31894 0.219 -0.315194 0.480192 0.219 -0.340991 0.467099 0.189 -0.340991 0.467099 0.219 -0.251058 0.537712 0.219 -0.270623 0.516508 0.189 -0.251058 0.537712 0.219 -0.291737 0.496662 0.189 -0.291737 0.496662 0.189 -0.270623 0.516508 0.189 -0.19975 0.607483 0.189 -0.184421 0.631958 0.219 -0.19975 0.607483 0.219 -0.232944 0.560237 0.189 -0.215904 0.583557 0.219 -0.215904 0.583557 0.189 -0.142214 0.707577 0.219 -0.142214 0.707577 0.189 -0.155709 0.682051 0.189 -0.169765 0.656835 0.219 -0.155709 0.682051 0.219 -0.169765 0.656835 0.219 -0.10455 0.785561 0.189 -0.10455 0.785561 0.219 -0.0928351 0.811947 0.219 -0.116663 0.759354 0.189 -0.12921 0.733353 0.189 -0.116663 0.759354 0.219 -0.0599473 0.892061 0.219 -0.0705483 0.865209 0.189 -0.0705483 0.865209 0.189 -0.0815052 0.838499 0.219 -0.0815052 0.838499 0.189 -0.0928351 0.811947 0.189 -0.0397992 0.94617 0.219 -0.0302468 0.973412 0.219 -0.0397992 0.94617 0.189 -0.0599473 0.892061 0.189 -0.0496991 0.91905 0.219 -0.0496991 0.91905 0.189 -0.0210469 1.00078 0.189 -0.0122041 1.02826 0.219 -0.0122041 1.02826 0.219 -0.0210469 1.00078 0.189 -0.0302468 0.973412 0.189 -0.0037359 1.05586 0.219 0.00434303 1.08357 0.219 -0.0037359 1.05586 0.219 0.012013 1.11141 0.189 0.00434303 1.08357 0.189 0.012013 1.11141 0.219 0.0192248 1.13936 0.189 0.0259476 1.16744 0.189 0.0192248 1.13936 0.219 0.0259476 1.16744 0.189 0.0321304 1.19564 0.189 0.037643 1.22397 0.219 0.0321304 1.19564 0.189 0.0424064 1.25245 0.219 0.037643 1.22397 0.219 0.0462723 1.28106 0.219 0.0424064 1.25245 0.189 0.0462723 1.28106 0.219 -0.12921 0.733353 0.219 -0.184421 0.631958 0.189 -0.232944 0.560237 0.189 -0.315194 0.480192 0.216 -0.26324 0.562946 0.219 -0.26324 0.55634 0.219 -0.26324 0.562946 0.219 -0.309687 0.520189 0.219 -0.303104 0.519643 0.216 -0.303104 0.519643 0.219 -0.264328 0.569463 0.216 -0.264328 0.569463 0.219 -0.266473 0.575711 0.216 -0.266473 0.575711 0.216 -0.269617 0.581521 0.219 -0.269617 0.581521 0.219 -0.273675 0.586734 0.216 -0.273675 0.586734 0.219 -0.278535 0.591209 0.216 -0.278535 0.591209 0.216 -0.284066 0.594822 0.219 -0.284066 0.594822 0.219 -0.290116 0.597476 0.216 -0.290116 0.597476 0.219 -0.29652 0.599098 0.216 -0.29652 0.599098 0.216 -0.303104 0.599643 0.219 -0.303104 0.599643 0.216 -0.26324 0.55634 0.219 -0.264328 0.549824 0.216 -0.264328 0.549824 0.216 -0.266473 0.543575 0.219 -0.266473 0.543575 0.216 -0.269617 0.537765 0.219 -0.269617 0.537765 0.219 -0.273675 0.532552 0.216 -0.273675 0.532552 0.216 -0.278535 0.528078 0.219 -0.278535 0.528078 0.216 -0.284066 0.524464 0.219 -0.284066 0.524464 0.219 -0.290116 0.52181 0.216 -0.290116 0.52181 0.216 -0.29652 0.520189 0.219 -0.29652 0.520189 0.219 -0.327672 0.528078 0.219 -0.322141 0.524464 0.216 -0.322141 0.524464 0.219 -0.316092 0.52181 0.216 -0.309687 0.520189 0.216 -0.316092 0.52181 0.216 -0.33659 0.537765 0.219 -0.339734 0.543575 0.219 -0.33659 0.537765 0.216 -0.327672 0.528078 0.216 -0.332532 0.532552 0.219 -0.332532 0.532552 0.219 -0.342967 0.55634 0.216 -0.342967 0.55634 0.219 -0.342967 0.562946 0.219 -0.34188 0.549824 0.216 -0.339734 0.543575 0.216 -0.34188 0.549824 0.219 -0.33659 0.581521 0.219 -0.339734 0.575711 0.216 -0.339734 0.575711 0.216 -0.34188 0.569463 0.219 -0.34188 0.569463 0.216 -0.342967 0.562946 0.216 -0.327672 0.591209 0.219 -0.327672 0.591209 0.216 -0.332532 0.586734 0.216 -0.33659 0.581521 0.219 -0.332532 0.586734 0.219 -0.322141 0.594822 0.216 -0.322141 0.594822 0.216 -0.316092 0.597476 0.219 -0.316092 0.597476 0.216 -0.309687 0.599098 0.219 -0.309687 0.599098 0.216 -0.0927444 0.979397 0.219 -0.0927444 0.972791 0.219 -0.0927444 0.979397 0.219 -0.139192 0.936639 0.219 -0.132608 0.936094 0.216 -0.132608 0.936094 0.219 -0.0938318 0.985913 0.216 -0.0938318 0.985913 0.219 -0.0959769 0.992162 0.216 -0.0959769 0.992162 0.216 -0.0991211 0.997972 0.219 -0.0991211 0.997972 0.219 -0.103179 1.00319 0.216 -0.103179 1.00319 0.219 -0.108039 1.00766 0.216 -0.108039 1.00766 0.216 -0.11357 1.01127 0.219 -0.11357 1.01127 0.219 -0.11962 1.01393 0.216 -0.11962 1.01393 0.219 -0.126024 1.01555 0.216 -0.126024 1.01555 0.216 -0.132608 1.01609 0.219 -0.132608 1.01609 0.216 -0.0927444 0.972791 0.219 -0.0938318 0.966274 0.216 -0.0938318 0.966274 0.216 -0.0959769 0.960026 0.219 -0.0959769 0.960026 0.216 -0.0991211 0.954216 0.219 -0.0991211 0.954216 0.219 -0.103179 0.949003 0.216 -0.103179 0.949003 0.216 -0.108039 0.944528 0.219 -0.108039 0.944528 0.216 -0.11357 0.940915 0.219 -0.11357 0.940915 0.219 -0.11962 0.938261 0.216 -0.11962 0.938261 0.216 -0.126024 0.936639 0.219 -0.126024 0.936639 0.219 -0.157176 0.944528 0.219 -0.151646 0.940915 0.216 -0.151646 0.940915 0.219 -0.145596 0.938261 0.216 -0.139192 0.936639 0.216 -0.145596 0.938261 0.216 -0.166094 0.954216 0.219 -0.169239 0.960026 0.219 -0.166094 0.954216 0.216 -0.157176 0.944528 0.216 -0.162037 0.949003 0.219 -0.162037 0.949003 0.219 -0.172471 0.972791 0.216 -0.172471 0.972791 0.219 -0.172471 0.979397 0.219 -0.171384 0.966274 0.216 -0.169239 0.960026 0.216 -0.171384 0.966274 0.219 -0.166094 0.997972 0.219 -0.169239 0.992162 0.216 -0.169239 0.992162 0.216 -0.171384 0.985913 0.219 -0.171384 0.985913 0.216 -0.172471 0.979397 0.216 -0.157176 1.00766 0.219 -0.157176 1.00766 0.216 -0.162037 1.00319 0.216 -0.166094 0.997972 0.219 -0.162037 1.00319 0.219 -0.151646 1.01127 0.216 -0.151646 1.01127 0.216 -0.145596 1.01393 0.219 -0.145596 1.01393 0.216 -0.139192 1.01555 0.219 -0.139192 1.01555 0.189 -0.254601 0.940563 0.189 -0.142214 0.707577 0.189 -0.265516 0.913837 0.189 0.0316789 1.26132 0.189 0.037614 1.26706 0.189 0.0424064 1.25245 0.189 -0.116663 0.759354 0.189 -0.231709 0.993568 0.189 -0.219752 1.01984 0.189 -0.243328 0.96714 0.189 -0.12921 0.733353 0.189 -0.0815052 0.838499 0.189 -0.0928351 0.811947 0.189 -0.207459 1.04597 0.189 -0.10455 0.785561 0.189 -0.0496991 0.91905 0.189 -0.154877 1.14876 0.189 -0.0397992 0.94617 0.189 -0.0599473 0.892061 0.189 -0.181864 1.09772 0.189 -0.168549 1.12334 0.189 -0.0302468 0.973412 0.189 -0.126369 1.19897 0.189 -0.0210469 1.00078 0.189 -0.140821 1.17398 0.189 -0.0122041 1.02826 0.189 -0.111486 1.22372 0.189 -0.0037359 1.05586 0.189 -0.0960974 1.24814 0.189 -0.0359358 1.26523 0.189 -0.0411678 1.27162 0.189 -0.0801891 1.27224 0.189 -0.0452769 1.27879 0.189 -0.0297235 1.25979 0.189 -0.0227004 1.25545 0.189 -0.0150581 1.25232 0.189 0.012013 1.11141 0.189 0.00434303 1.08357 0.189 0.00123899 1.25002 0.189 0.00944929 1.2509 0.189 0.0259476 1.16744 0.189 0.0192248 1.13936 0.189 -0.00700511 1.25049 0.189 0.0248797 1.25663 0.189 0.037643 1.22397 0.189 0.0321304 1.19564 0.189 0.0174018 1.25313 0.189 0.0425231 1.2737 0.189 0.0462723 1.28106 0.189 -0.0635807 1.29584 0.189 -0.048151 1.28653 0.189 -0.0497116 1.29464 0.189 -0.0705483 0.865209 0.189 -0.194832 1.07193 0.189 -0.0499162 1.30289 0.189 -0.0462723 1.31894 0.189 -0.0487593 1.31107 0.189 -0.155709 0.682051 0.189 -0.169765 0.656835 0.189 -0.276063 0.886962 0.189 -0.286215 0.859938 0.189 -0.184421 0.631958 0.189 -0.19975 0.607483 0.189 -0.295949 0.832759 0.189 -0.215904 0.583557 0.189 -0.305242 0.805425 0.189 -0.314038 0.777929 0.189 -0.232944 0.560237 0.189 -0.322299 0.750267 0.189 -0.329975 0.722435 0.189 -0.251058 0.537712 0.189 -0.33695 0.694423 0.189 -0.343147 0.666228 0.189 -0.270623 0.516508 0.189 -0.348451 0.637846 0.189 -0.291737 0.496662 0.189 -0.352583 0.609279 0.189 -0.355354 0.580552 0.189 -0.315194 0.480192 0.189 -0.356448 0.551696 0.189 -0.350173 0.494545 0.189 -0.354937 0.522914 0.189 -0.340991 0.467099 0.216 -0.132608 1.01609 0.216 -0.0959769 0.960026 0.216 -0.0938318 0.966274 0.216 -0.11962 1.01393 0.216 -0.0927444 0.972791 0.216 -0.0927444 0.979397 0.216 -0.0938318 0.985913 0.216 -0.11357 1.01127 0.216 -0.126024 1.01555 0.216 -0.0959769 0.992162 0.216 -0.0991211 0.997972 0.216 -0.103179 1.00319 0.216 -0.108039 1.00766 0.216 -0.139192 1.01555 0.216 -0.0991211 0.954216 0.216 -0.103179 0.949003 0.216 -0.145596 1.01393 0.216 -0.151646 1.01127 0.216 -0.108039 0.944528 0.216 -0.157176 1.00766 0.216 -0.11357 0.940915 0.216 -0.11962 0.938261 0.216 -0.162037 1.00319 0.216 -0.166094 0.997972 0.216 -0.126024 0.936639 0.216 -0.169239 0.992162 0.216 -0.171384 0.985913 0.216 -0.132608 0.936094 0.216 -0.145596 0.938261 0.216 -0.172471 0.972791 0.216 -0.151646 0.940915 0.216 -0.172471 0.979397 0.216 -0.139192 0.936639 0.216 -0.162037 0.949003 0.216 -0.169239 0.960026 0.216 -0.166094 0.954216 0.216 -0.157176 0.944528 0.216 -0.171384 0.966274 0.216 -0.303104 0.599643 0.216 -0.266473 0.543575 0.216 -0.264328 0.549824 0.216 -0.290116 0.597476 0.216 -0.26324 0.55634 0.216 -0.26324 0.562946 0.216 -0.264328 0.569463 0.216 -0.284066 0.594822 0.216 -0.29652 0.599098 0.216 -0.266473 0.575711 0.216 -0.269617 0.581521 0.216 -0.273675 0.586734 0.216 -0.278535 0.591209 0.216 -0.309687 0.599098 0.216 -0.269617 0.537765 0.216 -0.273675 0.532552 0.216 -0.316092 0.597476 0.216 -0.322141 0.594822 0.216 -0.278535 0.528078 0.216 -0.327672 0.591209 0.216 -0.284066 0.524464 0.216 -0.290116 0.52181 0.216 -0.332532 0.586734 0.216 -0.33659 0.581521 0.216 -0.29652 0.520189 0.216 -0.339734 0.575711 0.216 -0.34188 0.569463 0.216 -0.303104 0.519643 0.216 -0.316092 0.52181 0.216 -0.342967 0.55634 0.216 -0.322141 0.524464 0.216 -0.342967 0.562946 0.216 -0.309687 0.520189 0.216 -0.332532 0.532552 0.216 -0.339734 0.543575 0.216 -0.33659 0.537765 0.216 -0.327672 0.528078 0.216 -0.34188 0.549824 0.03 -0.0307106 1.33946 0.189 -0.0242631 1.34372 0.03 -0.0237974 1.34397 0.189 -0.0462723 1.31894 0.03 -0.0457887 1.32008 0.03 -0.04847 1.31227 0.03 -0.016235 1.34729 0.189 -0.0165694 1.34717 0.189 -0.00840428 1.34929 0.03 -0.00822973 1.34932 0.189 -1.88166e-16 1.35 0.03 -2.27374e-16 1.35 0.189 -0.0312663 1.33902 0.03 -0.0367862 1.33386 0.189 -0.0373799 1.33321 0.03 -0.0418583 1.32735 0.189 -0.0424297 1.32645 0.189 -0.0499162 1.30289 0.189 -0.0487593 1.31107 0.03 -0.0498292 1.30413 0.189 -0.0452769 1.27879 0.189 -0.048151 1.28653 0.03 -0.0457887 1.27992 0.189 -0.0497116 1.29464 0.03 -0.0498292 1.29587 0.03 -0.04847 1.28773 0.189 -0.0359358 1.26523 0.03 -0.0307106 1.26054 0.189 -0.0297235 1.25979 0.03 -0.0418583 1.27265 0.03 -0.0367862 1.26614 0.189 -0.0411678 1.27162 0.03 -0.00822973 1.25068 0.189 -0.00700511 1.25049 0.189 -0.0150581 1.25232 0.03 -0.016235 1.25271 0.189 -0.0227004 1.25545 0.03 -0.0237974 1.25603 0.189 0.0174018 1.25313 0.189 0.00944929 1.2509 0.03 0.016235 1.25271 0.189 0.00123899 1.25002 0.03 -1.7053e-16 1.25 0.03 0.00822973 1.25068 0.189 0.0316789 1.26132 0.03 0.0367862 1.26614 0.189 0.037614 1.26706 0.03 0.0237974 1.25603 0.03 0.0307106 1.26054 0.189 0.0248797 1.25663 0.03 0.0457887 1.27992 0.189 0.0425231 1.2737 0.03 0.0418583 1.27265 0.03 0.0498292 1.30413 0.189 0.0499039 1.2969 0.03 0.0498292 1.29587 0.189 0.0487363 1.28883 0.189 0.0462723 1.28106 0.03 0.04847 1.28773 0.189 0.0454935 1.32074 0.189 0.0482606 1.31307 0.03 0.0457887 1.32008 0.189 0.0497439 1.30505 0.03 0.04847 1.31227 0.03 0.0418583 1.32735 0.189 0.0415163 1.32786 0.03 0.0367862 1.33386 0.189 0.0364346 1.33424 0.189 0.0303836 1.33971 0.03 0.0307106 1.33946 0.03 0.0237974 1.34397 0.189 0.0235245 1.34412 0.03 0.016235 1.34729 0.189 0.0160395 1.34736 0.189 0.00812786 1.34933 0.03 0.00822973 1.34932</float_array>
          <technique_common>
            <accessor count="1328" source="#ID5" stride="3">
              <param name="X" type="float"/>
              <param name="Y" type="float"/>
              <param name="Z" type="float"/>
            </accessor>
          </technique_common>
        </source>
        <source id="ID6">
          <float_array count="3984" id="ID7">0.735125 0 -0.677931 0.735125 0 -0.677931 0.735125 0 -0.677931 0.735125 0 -0.677931 -1 0 0 -1 0 0 -1 0 0 -1 0 0 -1 0 0 -1 0 0 -1 0 0 -1 0 0 -0.735125 0 0.677931 -0.735125 0 0.677931 -0.735125 0 0.677931 -0.735125 0 0.677931 -0 -0 -1 -0 -0 -1 -0 -0 -1 -0 -0 -1 1 0 0 1 0 0 1 0 0 1 0 0 1 0 0 1 0 0 1 0 0 1 0 0 1 0 0 1 0 0 1 0 0 1 0 0 1 0 0 1 0 0 1 0 0 1 0 0 1 0 0 1 0 0 1 0 0 1 0 0 1 0 0 1 0 0 1 0 0 1 0 0 1 0 0 1 0 0 1 0 0 1 0 0 1 0 0 1 0 0 1 0 0 1 0 0 1 0 0 1 0 0 1 0 0 1 0 0 1 0 0 1 0 0 1 0 0 1 0 0 1 0 0 1 0 0 0 0 1 0 0 1 0 0 1 0 0 1 -1.21399e-16 0 1 -1.21399e-16 0 1 -1.21399e-16 0 1 -1.21399e-16 0 1 0 -1 0 0 -1 0 0 -1 0 0 -1 0 0 -1 0 0 -1 0 0 -1 0 0 -1 0 0 1 0 0 1 0 0 1 0 0 1 0 0 1 0 0 1 0 0 1 0 0 1 0 0 0.933494 -0.358594 0 0.928308 -0.371811 0 0.928323 -0.371775 0 0.938734 -0.344644 0 0.933484 -0.358618 0 0.938727 -0.344662 0 0.944077 -0.329724 0 0.949556 -0.313597 0 0.944067 -0.329752 0 0.955208 -0.295936 0 0.949548 -0.313622 0 0.955195 -0.295978 0 0.961055 -0.276357 0 0.96711 -0.254358 0 0.961034 -0.276431 0 0.973385 -0.229174 0 0.967094 -0.254418 0 0.97979 -0.200029 0 0.973362 -0.229276 0 0.979826 -0.199855 0 0.986272 -0.165129 0 0.98629 -0.16502 0 0.992453 -0.122628 0 0.997602 -0.0692137 0 0.992486 -0.122356 0 0.997639 -0.0686783 0 0.999999 0.00108918 0 0.999999 0.00121929 0 0.995351 0.0963149 0 0.972099 0.234571 0 0.995235 0.0975034 0 0.901091 0.43363 0 0.972069 0.234696 0 0.901091 0.43363 0 0.923166 -0.384402 0 0.91801 -0.396557 0 0.923178 -0.384372 0 0.912803 -0.4084 0 0.918024 -0.396524 0 0.91282 -0.408363 0 0.9075 -0.420053 0 0.90204 -0.431652 0 0.907512 -0.420026 0 0.896367 -0.443313 0 0.902053 -0.431625 0 0.89638 -0.443286 0 0.890407 -0.455165 0 0.884056 -0.46738 0 0.890413 -0.455153 0 0.877204 -0.480117 0 0.884067 -0.467359 0 0.877225 -0.48008 0 0.869699 -0.493582 0 0.861309 -0.508081 0 0.869713 -0.493557 0 0.861341 -0.508027 0 0.851803 -0.523863 0 0.840614 -0.541634 0 0.851749 -0.52395 0 0.840588 -0.541675 0 0.827171 -0.56195 0 0.827076 -0.56209 0 0.810152 -0.58622 0 0.810137 -0.58624 0 0.787832 -0.615891 0 0.787832 -0.615891 0 -0.528514 0.848925 0 -0.338299 0.941039 0 -0.338299 0.941039 0 -0.759728 0.650241 0 -0.712137 0.702041 0 -0.759379 0.650648 0 -0.642044 0.766668 0 -0.641128 0.767434 0 -0.712045 0.702134 0 -0.838669 0.544641 0 -0.854639 0.519223 0 -0.838766 0.544492 0 -0.793515 0.608551 0 -0.81885 0.574008 0 -0.818913 0.573918 0 -0.888498 0.458881 0 -0.888518 0.458842 0 -0.878936 0.476939 0 -0.867826 0.496868 0 -0.878973 0.476871 0 -0.867857 0.496815 0 -0.910918 0.412587 0 -0.91091 0.412604 0 -0.916968 0.398961 0 -0.90427 0.426961 0 -0.896854 0.442327 0 -0.904257 0.426988 0 -0.932541 0.361063 0 -0.927693 0.373343 0 -0.927681 0.373374 0 -0.922515 0.385962 0 -0.92253 0.385926 0 -0.916958 0.398984 0 -0.941515 0.33697 0 -0.945767 0.324844 0 -0.941526 0.336942 0 -0.932529 0.361096 0 -0.93712 0.349006 0 -0.937135 0.348968 0 -0.949891 0.312581 0 -0.953959 0.299936 0 -0.953963 0.299924 0 -0.9499 0.312553 0 -0.945758 0.324872 0 -0.957995 0.286785 0 -0.962049 0.272877 0 -0.958002 0.286762 0 -0.966141 0.258014 0 -0.962038 0.272917 0 -0.966134 0.258042 0 -0.970328 0.241794 0 -0.974617 0.223877 0 -0.970312 0.241855 0 -0.97464 0.223778 0 -0.979104 0.203362 0 -0.983767 0.179452 0 -0.979113 0.203315 0 -0.988653 0.150214 0 -0.983797 0.179285 0 -0.993548 0.11341 0 -0.988657 0.15019 0 -0.993548 0.11341 0 -0.896866 0.442303 0 -0.854693 0.519134 0 -0.793348 0.608768 0 -0.528405 0.848993 -0 -0.996584 -0.0825794 0 -0.996584 0.0825794 -0 -0.996584 -0.0825794 0 0.164595 0.986361 0 8.74228e-08 1 0 8.74228e-08 1 -0 -0.9694 -0.245485 -0 -0.9694 -0.245485 -0 -0.915773 -0.401695 -0 -0.915773 -0.401695 -0 -0.837166 -0.546948 -0 -0.837166 -0.546948 -0 -0.735724 -0.677282 -0 -0.735724 -0.677282 -0 -0.614213 -0.789141 -0 -0.614213 -0.789141 -0 -0.475947 -0.879474 -0 -0.475947 -0.879474 -0 -0.324699 -0.945817 -0 -0.324699 -0.945817 -0 -0.164595 -0.986361 -0 -0.164595 -0.986361 0 1.37149e-11 -1 0 3.04531e-27 -1 0 -0.996584 0.0825792 0 -0.9694 0.245485 0 -0.9694 0.245485 0 -0.915773 0.401695 0 -0.915773 0.401695 0 -0.837166 0.546948 0 -0.837166 0.546948 0 -0.735724 0.677282 0 -0.735724 0.677282 0 -0.614213 0.78914 0 -0.614213 0.789141 0 -0.475947 0.879474 0 -0.475947 0.879474 0 -0.3247 0.945817 0 -0.324699 0.945817 0 -0.164595 0.986361 0 -0.164595 0.986361 0 0.614213 0.78914 0 0.475947 0.879474 0 0.475947 0.879474 0 0.324699 0.945817 0 0.164595 0.986361 0 0.324699 0.945817 0 0.837167 0.546948 0 0.915773 0.401695 0 0.837167 0.546948 0 0.614213 0.78914 0 0.735724 0.677282 0 0.735724 0.677282 0 0.996584 0.0825794 0 0.996584 0.0825794 0 0.996584 -0.0825794 0 0.9694 0.245486 0 0.915773 0.401695 0 0.9694 0.245486 0 0.837166 -0.546948 0 0.915773 -0.401695 0 0.915773 -0.401695 0 0.9694 -0.245485 0 0.9694 -0.245486 0 0.996584 -0.0825794 0 0.614213 -0.789141 0 0.614213 -0.78914 0 0.735724 -0.677282 0 0.837166 -0.546948 0 0.735724 -0.677282 0 0.475948 -0.879474 0 0.475947 -0.879474 0 0.324699 -0.945817 0 0.3247 -0.945817 0 0.164595 -0.986361 0 0.164595 -0.986361 -0 -0.996584 -0.0825794 0 -0.996584 0.0825794 -0 -0.996584 -0.0825794 0 0.164595 0.986361 0 8.74228e-08 1 0 8.74228e-08 1 -0 -0.9694 -0.245485 -0 -0.9694 -0.245485 -0 -0.915773 -0.401695 -0 -0.915773 -0.401695 -0 -0.837166 -0.546948 -0 -0.837166 -0.546948 -0 -0.735724 -0.677282 -0 -0.735724 -0.677282 -0 -0.614213 -0.789141 -0 -0.614213 -0.789141 -0 -0.475947 -0.879474 -0 -0.475947 -0.879474 -0 -0.324699 -0.945817 -0 -0.324699 -0.945817 -0 -0.164595 -0.986361 -0 -0.164595 -0.986361 0 1.37149e-11 -1 0 3.04531e-27 -1 0 -0.996584 0.0825792 0 -0.9694 0.245485 0 -0.9694 0.245485 0 -0.915773 0.401695 0 -0.915773 0.401695 0 -0.837166 0.546948 0 -0.837166 0.546948 0 -0.735724 0.677282 0 -0.735724 0.677282 0 -0.614213 0.78914 0 -0.614213 0.789141 0 -0.475947 0.879474 0 -0.475947 0.879474 0 -0.3247 0.945817 0 -0.324699 0.945817 0 -0.164595 0.986361 0 -0.164595 0.986361 0 0.614213 0.78914 0 0.475947 0.879474 0 0.475947 0.879474 0 0.324699 0.945817 0 0.164595 0.986361 0 0.324699 0.945817 0 0.837167 0.546948 0 0.915773 0.401695 0 0.837167 0.546948 0 0.614213 0.78914 0 0.735724 0.677282 0 0.735724 0.677282 0 0.996584 0.0825794 0 0.996584 0.0825794 0 0.996584 -0.0825794 0 0.9694 0.245486 0 0.915773 0.401695 0 0.9694 0.245486 0 0.837166 -0.546948 0 0.915773 -0.401695 0 0.915773 -0.401695 0 0.9694 -0.245485 0 0.9694 -0.245486 0 0.996584 -0.0825794 0 0.614213 -0.789141 0 0.614213 -0.78914 0 0.735724 -0.677282 0 0.837166 -0.546948 0 0.735724 -0.677282 0 0.475948 -0.879474 0 0.475947 -0.879474 0 0.324699 -0.945817 0 0.3247 -0.945817 0 0.164595 -0.986361 0 0.164595 -0.986361 1 0 0 1 0 0 1 0 0 1 0 0 1 0 0 1 0 0 1 0 0 1 0 0 1 0 0 1 0 0 1 0 0 1 0 0 1 0 0 1 0 0 1 0 0 1 0 0 1 0 0 1 0 0 1 0 0 1 0 0 1 0 0 1 0 0 1 0 0 1 0 0 1 0 0 1 0 0 1 0 0 1 0 0 1 0 0 1 0 0 1 0 0 1 0 0 1 0 0 1 0 0 1 0 0 1 0 0 1 0 0 1 0 0 1 0 0 1 0 0 1 0 0 1 0 0 1 0 0 1 0 0 1 0 0 1 0 0 1 0 0 1 0 0 1 0 0 1 0 0 1 0 0 1 0 0 1 0 0 1 0 0 1 0 0 1 0 0 1 0 0 1 0 0 1 0 0 1 0 0 1 0 0 1 0 0 1 0 0 1 0 0 1 0 0 1 0 0 1 0 0 1 0 0 1 0 0 1 0 0 1 0 0 1 0 0 1 0 0 1 0 0 1 0 0 1 0 0 1 0 0 1 0 0 1 0 0 1 0 0 1 0 0 1 0 0 1 0 0 1 0 0 1 0 0 1 0 0 1 0 0 1 0 0 1 0 0 1 0 0 1 0 0 1 0 0 1 0 0 1 0 0 1 0 0 1 0 0 1 0 0 1 0 0 1 0 0 1 0 0 1 0 0 1 0 0 1 0 0 1 0 0 1 0 0 1 0 0 1 0 0 1 0 0 1 0 0 1 0 0 1 0 0 1 0 0 1 0 0 1 0 0 1 0 0 1 0 0 1 0 0 1 0 0 1 0 0 1 0 0 1 0 0 1 0 0 1 0 0 1 0 0 1 0 0 1 0 0 1 0 0 1 0 0 1 0 0 1 0 0 1 0 0 1 0 0 1 0 0 1 0 0 1 0 0 1 0 0 1 0 0 1 0 0 1 0 0 1 0 0 1 0 0 1 0 0 1 0 0 1 0 0 1 0 0 1 0 0 1 0 0 1 0 0 1 0 0 1 0 0 1 0 0 1 0 0 1 0 0 1 0 0 1 0 0 1 0 0 1 0 0 1 0 0 1 0 0 1 0 0 1 0 0 1 0 0 1 0 0 1 0 0 1 0 0 1 0 0 1 0 0 1 0 0 1 0 0 1 0 0 1 0 0 1 0 0 1 0 0 1 0 0 1 0 0 1 0 0 1 0 0 1 0 0 1 0 0 1 0 0 1 0 0 1 0 0 1 0 0 1 0 0 1 0 0 1 0 0 1 0 0 1 0 0 1 0 0 1 0 0 1 0 0 1 0 0 1 0 0 1 0 0 1 0 0 1 0 0 1 0 0 1 0 0 1 0 0 1 0 0 1 0 0 1 0 0 1 0 0 1 0 0 1 0 0 1 0 0 1 0 0 1 0 0 1 0 0 1 0 0 1 0 0 1 0 0 1 0 0 1 0 0 1 0 0 1 0 0 1 0 0 1 0 0 1 0 0 1 0 0 1 0 0 1 0 0 1 0 0 1 0 0 1 0 0 1 0 0 1 0 0 1 0 0 1 0 0 1 0 0 1 0 0 1 0 0 1 0 0 1 0 0 1 0 0 1 0 0 1 0 0 1 0 0 1 0 0 1 0 0 1 0 0 1 0 0 1 0 0 1 0 0 1 0 0 1 0 0 1 0 0 1 0 0 1 0 0 1 0 0 1 0 0 1 0 0 1 0 0 1 0 0 1 0 0 1 0 0 1 0 0 1 0 0 1 0 0 1 0 0 1 0 0 1 0 0 1 0 0 1 0 0 1 0 0 1 0 0 1 0 0 1 0 0 1 0 0 1 0 0 1 0 0 1 0 0 1 0 0 1 0 0 1 0 0 1 0 0 1 0 0 1 0 0 1 0 0 1 0 0 -1 -0 -0 -1 -0 -0 -1 -0 -0 -1 -0 -0 -1 -0 -0 -1 -0 -0 -1 -0 -0 -1 -0 -0 -1 -0 -0 -1 -0 -0 -1 -0 -0 -1 -0 -0 -1 -0 -0 -1 -0 -0 -1 -0 -0 -1 -0 -0 -1 -0 -0 -1 -0 -0 -1 -0 -0 -1 -0 -0 -1 -0 -0 -1 -0 -0 -1 -0 -0 -1 -0 -0 -1 -0 -0 -1 -0 -0 -1 -0 -0 -1 -0 -0 -1 -0 -0 -1 -0 -0 -1 -0 -0 -1 -0 -0 -1 -0 -0 -1 -0 -0 -1 -0 -0 -1 -0 -0 -1 -0 -0 -1 -0 -0 -1 -0 -0 -1 -0 -0 -1 -0 -0 -1 -0 -0 -1 -0 -0 -1 -0 -0 -1 -0 -0 -1 -0 -0 -1 -0 -0 -1 -0 -0 -1 -0 -0 -1 -0 -0 -1 -0 -0 -1 -0 -0 -1 -0 -0 -1 -0 -0 -1 -0 -0 -1 -0 -0 -1 -0 -0 -1 -0 -0 -1 -0 -0 -1 -0 -0 -1 -0 -0 -1 -0 -0 -1 -0 -0 -1 -0 -0 -1 -0 -0 -1 -0 -0 -1 -0 -0 -1 -0 -0 -1 -0 -0 -1 -0 -0 -1 -0 -0 -1 -0 -0 -1 -0 -0 -1 -0 -0 -1 -0 -0 -1 -0 -0 -1 -0 -0 -1 -0 -0 -1 -0 -0 -1 -0 -0 -1 -0 -0 -1 -0 -0 -1 -0 -0 1 0 0 1 0 0 1 0 0 1 0 0 1 0 0 1 0 0 1 0 0 1 0 0 1 0 0 1 0 0 1 0 0 1 0 0 1 0 0 1 0 0 1 0 0 1 0 0 1 0 0 1 0 0 1 0 0 1 0 0 1 0 0 1 0 0 1 0 0 1 0 0 1 0 0 1 0 0 1 0 0 1 0 0 1 0 0 1 0 0 1 0 0 1 0 0 1 0 0 1 0 0 1 0 0 1 0 0 1 0 0 1 0 0 1 0 0 1 0 0 1 0 0 1 0 0 1 0 0 1 0 0 1 0 0 1 0 0 1 0 0 1 0 0 1 0 0 1 0 0 1 0 0 1 0 0 1 0 0 1 0 0 1 0 0 1 0 0 1 0 0 1 0 0 1 0 0 1 0 0 1 0 0 1 0 0 1 0 0 1 0 0 1 0 0 1 0 0 1 0 0 1 0 0 1 0 0 1 0 0 1 0 0 1 0 0 1 0 0 1 0 0 1 0 0 1 0 0 0 -0.933494 0.358594 0 -0.928308 0.371811 0 -0.928323 0.371775 0 -0.938734 0.344644 0 -0.933484 0.358618 0 -0.938727 0.344662 0 -0.944077 0.329724 0 -0.949556 0.313597 0 -0.944067 0.329752 0 -0.955208 0.295936 0 -0.949548 0.313622 0 -0.955195 0.295978 0 -0.961055 0.276357 0 -0.96711 0.254358 0 -0.961034 0.276431 0 -0.973385 0.229174 0 -0.967094 0.254418 0 -0.97979 0.200029 0 -0.973362 0.229276 0 -0.979826 0.199855 0 -0.986272 0.165129 0 -0.98629 0.16502 0 -0.992453 0.122628 0 -0.997602 0.0692137 0 -0.992486 0.122356 0 -0.997639 0.0686783 -0 -0.999999 -0.00108918 -0 -0.999999 -0.00121929 -0 -0.995351 -0.0963149 -0 -0.972099 -0.234571 -0 -0.995235 -0.0975034 -0 -0.901091 -0.43363 -0 -0.972069 -0.234696 -0 -0.901091 -0.43363 0 -0.923166 0.384402 0 -0.91801 0.396557 0 -0.923178 0.384372 0 -0.912803 0.4084 0 -0.918024 0.396524 0 -0.91282 0.408363 0 -0.9075 0.420053 0 -0.90204 0.431652 0 -0.907512 0.420026 0 -0.896367 0.443313 0 -0.902053 0.431625 0 -0.89638 0.443286 0 -0.890407 0.455165 0 -0.884056 0.46738 0 -0.890413 0.455153 0 -0.877204 0.480117 0 -0.884067 0.467359 0 -0.877225 0.48008 0 -0.869699 0.493582 0 -0.861309 0.508081 0 -0.869713 0.493557 0 -0.861341 0.508027 0 -0.851803 0.523863 0 -0.840614 0.541634 0 -0.851749 0.52395 0 -0.840588 0.541675 0 -0.827171 0.56195 0 -0.827076 0.56209 0 -0.810152 0.58622 0 -0.810137 0.58624 0 -0.787832 0.615891 0 -0.787832 0.615891 0 0.528514 -0.848925 0 0.338299 -0.941039 0 0.338299 -0.941039 0 0.759728 -0.650241 0 0.712137 -0.702041 0 0.759379 -0.650648 0 0.642044 -0.766668 0 0.641128 -0.767434 0 0.712045 -0.702134 0 0.838669 -0.544641 0 0.854639 -0.519223 0 0.838766 -0.544492 0 0.793515 -0.608551 0 0.81885 -0.574008 0 0.818913 -0.573918 0 0.888498 -0.458881 0 0.888518 -0.458842 0 0.878936 -0.476939 0 0.867826 -0.496868 0 0.878973 -0.476871 0 0.867857 -0.496815 0 0.910918 -0.412587 0 0.91091 -0.412604 0 0.916968 -0.398961 0 0.90427 -0.426961 0 0.896854 -0.442327 0 0.904257 -0.426988 0 0.932541 -0.361063 0 0.927693 -0.373343 0 0.927681 -0.373374 0 0.922515 -0.385962 0 0.92253 -0.385926 0 0.916958 -0.398984 0 0.941515 -0.33697 0 0.945767 -0.324844 0 0.941526 -0.336942 0 0.932529 -0.361096 0 0.93712 -0.349006 0 0.937135 -0.348968 0 0.949891 -0.312581 0 0.953959 -0.299936 0 0.953963 -0.299924 0 0.9499 -0.312553 0 0.945758 -0.324872 0 0.957995 -0.286785 0 0.962049 -0.272877 0 0.958002 -0.286762 0 0.966141 -0.258014 0 0.962038 -0.272917 0 0.966134 -0.258042 0 0.970328 -0.241794 0 0.974617 -0.223877 0 0.970312 -0.241855 0 0.97464 -0.223778 0 0.979104 -0.203362 0 0.983767 -0.179452 0 0.979113 -0.203315 0 0.988653 -0.150214 0 0.983797 -0.179285 0 0.993548 -0.11341 0 0.988657 -0.15019 0 0.993548 -0.11341 0 0.896866 -0.442303 0 0.854693 -0.519134 0 0.793348 -0.608768 0 0.528405 -0.848993 -0 -0.996584 -0.0825794 0 -0.996584 0.0825794 -0 -0.996584 -0.0825794 0 0.164595 0.986361 0 8.74228e-08 1 0 8.74228e-08 1 -0 -0.9694 -0.245485 -0 -0.9694 -0.245485 -0 -0.915773 -0.401695 -0 -0.915773 -0.401695 -0 -0.837166 -0.546948 -0 -0.837166 -0.546948 -0 -0.735724 -0.677282 -0 -0.735724 -0.677282 -0 -0.614213 -0.789141 -0 -0.614213 -0.789141 -0 -0.475947 -0.879474 -0 -0.475947 -0.879474 -0 -0.324699 -0.945817 -0 -0.324699 -0.945817 -0 -0.164595 -0.986361 -0 -0.164595 -0.986361 0 1.37155e-11 -1 0 7.02591e-24 -1 0 -0.996584 0.0825792 0 -0.9694 0.245485 0 -0.9694 0.245485 0 -0.915773 0.401695 0 -0.915773 0.401695 0 -0.837166 0.546948 0 -0.837166 0.546948 0 -0.735724 0.677282 0 -0.735724 0.677282 0 -0.614213 0.78914 0 -0.614213 0.789141 0 -0.475947 0.879474 0 -0.475947 0.879474 0 -0.3247 0.945817 0 -0.324699 0.945817 0 -0.164595 0.986361 0 -0.164595 0.986361 0 0.614213 0.78914 0 0.475947 0.879474 0 0.475947 0.879474 0 0.324699 0.945817 0 0.164595 0.986361 0 0.324699 0.945817 0 0.837167 0.546948 0 0.915773 0.401695 0 0.837167 0.546948 0 0.614213 0.78914 0 0.735724 0.677282 0 0.735724 0.677282 0 0.996584 0.0825794 0 0.996584 0.0825794 0 0.996584 -0.0825794 0 0.9694 0.245486 0 0.915773 0.401695 0 0.9694 0.245486 0 0.837166 -0.546948 0 0.915773 -0.401695 0 0.915773 -0.401695 0 0.9694 -0.245485 0 0.9694 -0.245486 0 0.996584 -0.0825794 0 0.614213 -0.789141 0 0.614213 -0.78914 0 0.735724 -0.677282 0 0.837166 -0.546948 0 0.735724 -0.677282 0 0.475948 -0.879474 0 0.475947 -0.879474 0 0.324699 -0.945817 0 0.3247 -0.945817 0 0.164595 -0.986361 0 0.164595 -0.986361 -0 -0.996584 -0.0825794 0 -0.996584 0.0825794 -0 -0.996584 -0.0825794 0 0.164595 0.986361 0 8.74228e-08 1 0 8.74228e-08 1 -0 -0.9694 -0.245485 -0 -0.9694 -0.245485 -0 -0.915773 -0.401695 -0 -0.915773 -0.401695 -0 -0.837166 -0.546948 -0 -0.837166 -0.546948 -0 -0.735724 -0.677282 -0 -0.735724 -0.677282 -0 -0.614213 -0.789141 -0 -0.614213 -0.789141 -0 -0.475947 -0.879474 -0 -0.475947 -0.879474 -0 -0.324699 -0.945817 -0 -0.324699 -0.945817 -0 -0.164595 -0.986361 -0 -0.164595 -0.986361 0 1.37155e-11 -1 0 7.02591e-24 -1 0 -0.996584 0.0825792 0 -0.9694 0.245485 0 -0.9694 0.245485 0 -0.915773 0.401695 0 -0.915773 0.401695 0 -0.837166 0.546948 0 -0.837166 0.546948 0 -0.735724 0.677282 0 -0.735724 0.677282 0 -0.614213 0.78914 0 -0.614213 0.789141 0 -0.475947 0.879474 0 -0.475947 0.879474 0 -0.3247 0.945817 0 -0.324699 0.945817 0 -0.164595 0.986361 0 -0.164595 0.986361 0 0.614213 0.78914 0 0.475947 0.879474 0 0.475947 0.879474 0 0.324699 0.945817 0 0.164595 0.986361 0 0.324699 0.945817 0 0.837167 0.546948 0 0.915773 0.401695 0 0.837167 0.546948 0 0.614213 0.78914 0 0.735724 0.677282 0 0.735724 0.677282 0 0.996584 0.0825794 0 0.996584 0.0825794 0 0.996584 -0.0825794 0 0.9694 0.245486 0 0.915773 0.401695 0 0.9694 0.245486 0 0.837166 -0.546948 0 0.915773 -0.401695 0 0.915773 -0.401695 0 0.9694 -0.245485 0 0.9694 -0.245486 0 0.996584 -0.0825794 0 0.614213 -0.789141 0 0.614213 -0.78914 0 0.735724 -0.677282 0 0.837166 -0.546948 0 0.735724 -0.677282 0 0.475948 -0.879474 0 0.475947 -0.879474 0 0.324699 -0.945817 0 0.3247 -0.945817 0 0.164595 -0.986361 0 0.164595 -0.986361 -1 -0 -0 -1 -0 -0 -1 -0 -0 -1 -0 -0 -1 -0 -0 -1 -0 -0 -1 -0 -0 -1 -0 -0 -1 -0 -0 -1 -0 -0 -1 -0 -0 -1 -0 -0 -1 -0 -0 -1 -0 -0 -1 -0 -0 -1 -0 -0 -1 -0 -0 -1 -0 -0 -1 -0 -0 -1 -0 -0 -1 -0 -0 -1 -0 -0 -1 -0 -0 -1 -0 -0 -1 -0 -0 -1 -0 -0 -1 -0 -0 -1 -0 -0 -1 -0 -0 -1 -0 -0 -1 -0 -0 -1 -0 -0 -1 -0 -0 -1 -0 -0 -1 -0 -0 -1 -0 -0 -1 -0 -0 -1 -0 -0 -1 -0 -0 -1 -0 -0 -1 -0 -0 -1 -0 -0 -1 -0 -0 -1 -0 -0 -1 -0 -0 -1 -0 -0 -1 -0 -0 -1 -0 -0 -1 -0 -0 -1 -0 -0 -1 -0 -0 -1 -0 -0 -1 -0 -0 -1 -0 -0 -1 -0 -0 -1 -0 -0 -1 -0 -0 -1 -0 -0 -1 -0 -0 -1 -0 -0 -1 -0 -0 -1 -0 -0 -1 -0 -0 -1 -0 -0 -1 -0 -0 -1 -0 -0 -1 -0 -0 -1 -0 -0 -1 -0 -0 -1 -0 -0 -1 -0 -0 -1 -0 -0 -1 -0 -0 -1 -0 -0 -1 -0 -0 -1 -0 -0 -1 -0 -0 -1 -0 -0 -1 -0 -0 -1 -0 -0 -1 -0 -0 -1 -0 -0 -1 -0 -0 1 0 0 1 0 0 1 0 0 1 0 0 1 0 0 1 0 0 1 0 0 1 0 0 1 0 0 1 0 0 1 0 0 1 0 0 1 0 0 1 0 0 1 0 0 1 0 0 1 0 0 1 0 0 1 0 0 1 0 0 1 0 0 1 0 0 1 0 0 1 0 0 1 0 0 1 0 0 1 0 0 1 0 0 1 0 0 1 0 0 1 0 0 1 0 0 1 0 0 1 0 0 1 0 0 1 0 0 1 0 0 1 0 0 1 0 0 1 0 0 1 0 0 1 0 0 1 0 0 1 0 0 1 0 0 1 0 0 1 0 0 1 0 0 1 0 0 1 0 0 1 0 0 1 0 0 1 0 0 1 0 0 1 0 0 1 0 0 1 0 0 1 0 0 1 0 0 1 0 0 1 0 0 1 0 0 1 0 0 1 0 0 1 0 0 1 0 0 1 0 0 1 0 0 1 0 0 1 0 0 1 0 0 1 0 0 1 0 0 1 0 0 1 0 0 1 0 0 0 -0.614213 0.789141 0 -0.485261 0.874369 0 -0.475947 0.879474 0 -0.925446 0.378879 0 -0.915773 0.401695 0 -0.9694 0.245485 0 -0.324699 0.945817 0 -0.331388 0.943494 0 -0.168086 0.985772 0 -0.164595 0.986361 0 1.74846e-07 1 0 -3.01992e-07 1 0 -0.625326 0.780364 0 -0.735724 0.677282 0 -0.747597 0.664153 0 -0.837166 0.546948 0 -0.848595 0.529043 0 -0.998325 0.057859 0 -0.975186 0.221388 0 -0.996584 0.0825794 -0 -0.905538 -0.424264 -0 -0.963019 -0.269432 -0 -0.915773 -0.401695 -0 -0.994232 -0.107249 -0 -0.996584 -0.0825794 -0 -0.9694 -0.245486 -0 -0.718715 -0.695305 -0 -0.614213 -0.78914 -0 -0.59447 -0.804118 -0 -0.837167 -0.546948 -0 -0.735724 -0.677282 -0 -0.823356 -0.567525 -0 -0.164595 -0.986361 -0 -0.140102 -0.990137 -0 -0.301163 -0.953573 -0 -0.324699 -0.945817 -0 -0.454008 -0.890998 -0 -0.475947 -0.879474 0 0.348037 -0.937481 0 0.188986 -0.98198 0 0.324699 -0.945817 0 0.0247798 -0.999693 -0 -8.74228e-08 -1 0 0.164595 -0.986361 0 0.633579 -0.773678 0 0.735724 -0.677282 0 0.752281 -0.658843 0 0.475947 -0.879474 0 0.614213 -0.78914 0 0.497594 -0.86741 0 0.915773 -0.401695 0 0.850463 -0.526035 0 0.837166 -0.546948 0 0.996584 0.0825794 0 0.998077 -0.0619818 0 0.996584 -0.0825792 0 0.974726 -0.223402 0 0.925446 -0.378879 0 0.9694 -0.245485 0 0.909871 0.414892 0 0.965212 0.261467 0 0.915773 0.401695 0 0.994878 0.101087 0 0.9694 0.245485 0 0.837166 0.546948 0 0.830325 0.557279 0 0.735724 0.677282 0 0.728691 0.684842 0 0.607673 0.794187 0 0.614213 0.789141 0 0.475947 0.879474 0 0.470489 0.882406 0 0.324699 0.945817 0 0.32079 0.94715 0 0.162557 0.986699 0 0.164595 0.986361</float_array>
          <technique_common>
            <accessor count="1328" source="#ID7" stride="3">
              <param name="X" type="float"/>
              <param name="Y" type="float"/>
              <param name="Z" type="float"/>
            </accessor>
          </technique_common>
        </source>
        <vertices id="ID8">
          <input semantic="POSITION" source="#ID4"/>
          <input semantic="NORMAL" source="#ID6"/>
        </vertices>
        <triangles count="42" material="ID9">
          <input offset="0" semantic="VERTEX" source="#ID8"/>
          <p>20 21 22 23 24 25 26 21 27 28 20 29 30 31 20 20 31 29 32 33 20 20 33 30 34 35 20 20 35 32 36 37 20 20 37 34 20 22 36 38 39 21 21 39 22 21 26 40 21 40 38 21 41 42 27 21 42 21 43 44 41 21 44 25 45 21 43 21 45 46 47 25 25 24 45 48 49 25 25 49 23 50 51 25 25 51 48 52 53 25 25 53 50 25 47 52 54 46 28 25 28 46 55 56 28 28 56 54 57 58 28 28 58 55 59 60 28 28 60 57 29 61 28 28 61 59</p>
        </triangles>
        <triangles count="144" material="ID10">
          <input offset="0" semantic="VERTEX" source="#ID8"/>
          <p>733 734 735 736 737 738 739 740 738 736 741 737 742 743 744 745 742 744 740 739 745 745 739 742 741 735 737 740 736 738 733 735 741 734 746 747 734 733 746 748 747 749 746 749 747 750 751 748 748 749 750 752 751 750 752 753 751 754 753 755 752 755 753 754 755 756 757 756 758 756 757 754 759 760 758 757 758 760 761 762 763 759 764 765 766 767 768 767 769 770 763 770 769 769 767 766 761 764 762 763 762 770 759 765 760 761 765 764 771 772 773 774 775 776 777 778 776 774 779 775 780 781 782 783 780 782 778 777 783 783 777 780 779 773 775 778 774 776 771 773 779 772 784 785 772 771 784 786 785 787 784 787 785 788 789 786 786 787 788 790 789 788 790 791 789 792 791 793 790 793 791 792 793 794 795 794 796 794 795 792 797 798 796 795 796 798 799 800 801 797 802 803 804 805 806 805 807 808 801 808 807 807 805 804 799 802 800 801 800 808 797 803 798 799 803 802 1176 1177 1178 1179 1180 1181 1182 1183 1181 1179 1184 1180 1185 1186 1187 1188 1185 1187 1183 1182 1188 1188 1182 1185 1184 1178 1180 1183 1179 1181 1176 1178 1184 1177 1189 1190 1177 1176 1189 1191 1190 1192 1189 1192 1190 1193 1194 1191 1191 1192 1193 1195 1194 1193 1195 1196 1194 1197 1196 1198 1195 1198 1196 1197 1198 1199 1200 1199 1201 1199 1200 1197 1202 1203 1201 1200 1201 1203 1204 1205 1206 1202 1207 1208 1209 1210 1211 1210 1212 1213 1206 1213 1212 1212 1210 1209 1204 1207 1205 1206 1205 1213 1202 1208 1203 1204 1208 1207 1214 1215 1216 1217 1218 1219 1220 1221 1219 1217 1222 1218 1223 1224 1225 1226 1223 1225 1221 1220 1226 1226 1220 1223 1222 1216 1218 1221 1217 1219 1214 1216 1222 1215 1227 1228 1215 1214 1227 1229 1228 1230 1227 1230 1228 1231 1232 1229 1229 1230 1231 1233 1232 1231 1233 1234 1232 1235 1234 1236 1233 1236 1234 1235 1236 1237 1238 1237 1239 1237 1238 1235 1240 1241 1239 1238 1239 1241 1242 1243 1244 1240 1245 1246 1247 1248 1249 1248 1250 1251 1244 1251 1250 1250 1248 1247 1242 1245 1243 1244 1243 1251 1240 1246 1241 1242 1246 1245</p>
        </triangles>
        <triangles count="1114" material="ID11">
          <input offset="0" semantic="VERTEX" source="#ID8"/>
          <p>0 1 2 0 2 3 4 5 6 4 6 7 8 9 10 8 10 11 12 13 14 14 15 12 16 17 18 18 19 16 62 63 64 64 65 62 66 67 68 68 69 66 70 71 72 70 73 71 70 74 73 70 75 76 75 73 76 70 76 74 77 73 74 76 73 77 78 79 80 81 79 78 82 78 83 83 78 84 80 84 78 80 83 85 80 85 84 80 82 83 86 87 88 86 89 90 90 87 86 91 89 92 89 91 90 93 94 92 91 92 94 93 95 96 96 94 93 97 95 98 95 97 96 99 100 98 97 98 100 99 101 102 102 100 99 103 104 101 101 104 102 105 106 103 103 101 105 106 107 108 107 106 105 109 108 110 107 110 108 111 112 109 109 110 111 112 113 114 113 112 111 115 114 116 113 116 114 117 115 118 115 116 118 119 115 117 120 88 87 121 122 120 88 120 122 121 123 124 124 122 121 125 123 126 123 125 124 127 128 126 125 126 128 127 129 130 130 128 127 131 129 132 129 131 130 133 134 132 131 132 134 133 135 136 136 134 133 137 135 138 135 137 136 139 140 138 137 138 140 141 139 142 141 140 139 143 142 144 139 144 142 145 146 143 143 144 145 146 147 148 147 146 145 148 149 150 147 149 148 148 150 151 152 153 154 155 156 157 158 159 160 161 162 163 164 165 166 167 168 169 170 171 172 173 174 175 176 177 178 179 180 181 182 183 184 185 186 187 188 189 190 191 192 193 194 195 191 196 197 198 198 192 196 199 197 200 196 200 197 199 201 202 201 199 200 203 202 204 202 201 204 205 203 206 203 205 202 206 207 208 208 205 206 209 210 207 208 207 210 211 212 209 209 212 210 213 211 209 194 191 193 193 192 198 185 195 186 186 195 194 189 187 190 189 185 187 188 179 181 188 190 179 180 183 182 181 180 182 175 174 184 183 175 184 176 178 173 173 178 174 167 177 214 214 177 176 169 168 171 167 214 168 170 172 162 169 171 170 162 215 163 172 215 162 165 161 166 166 161 163 216 164 155 216 165 164 157 156 160 216 155 157 158 152 159 156 158 160 154 217 152 152 217 159 218 219 220 221 222 223 220 224 225 225 218 220 226 227 224 225 224 227 228 226 229 226 228 227 229 230 231 231 228 229 232 233 230 231 230 233 234 232 235 232 234 233 235 236 237 237 234 235 238 239 236 237 236 239 240 238 241 238 240 239 218 242 219 243 242 244 242 243 219 244 245 246 246 243 244 247 248 245 246 245 248 249 247 250 247 249 248 250 251 252 252 249 250 253 254 251 252 251 254 255 253 256 253 255 254 256 257 258 258 255 256 258 257 222 257 223 222 259 260 261 262 263 264 265 266 267 268 269 270 271 272 273 274 275 276 277 278 279 280 281 282 283 284 285 286 285 287 288 283 289 283 288 284 289 290 291 291 288 289 292 293 290 291 290 293 241 292 240 292 241 293 277 286 287 285 284 287 279 278 280 286 277 279 281 273 282 278 281 280 271 276 272 273 272 282 266 275 274 274 276 271 269 265 267 265 275 266 268 270 259 269 267 270 261 260 264 268 259 261 262 221 263 260 262 264 223 263 221 294 295 296 297 298 299 296 300 301 301 294 296 302 303 300 301 300 303 304 302 305 302 304 303 305 306 307 307 304 305 308 309 306 307 306 309 310 308 311 308 310 309 311 312 313 313 310 311 314 315 312 313 312 315 316 314 317 314 316 315 294 318 295 319 318 320 318 319 295 320 321 322 322 319 320 323 324 321 322 321 324 325 323 326 323 325 324 326 327 328 328 325 326 329 330 327 328 327 330 331 329 332 329 331 330 332 333 334 334 331 332 334 333 298 333 299 298 335 336 337 338 339 340 341 342 343 344 345 346 347 348 349 350 351 352 353 354 355 356 357 358 359 360 361 362 361 363 364 359 365 359 364 360 365 366 367 367 364 365 368 369 366 367 366 369 317 368 316 368 317 369 353 362 363 361 360 363 355 354 356 362 353 355 357 349 358 354 357 356 347 352 348 349 348 358 342 351 350 350 352 347 345 341 343 341 351 342 344 346 335 345 343 346 337 336 340 344 335 337 338 297 339 336 338 340 299 339 297 370 371 372 373 374 375 376 377 378 379 380 381 382 383 384 385 386 387 388 389 390 391 392 393 394 395 396 397 398 399 400 386 401 402 403 404 405 406 407 408 409 410 411 412 413 372 371 414 415 416 417 418 419 420 421 422 423 424 425 426 427 428 429 430 431 432 433 434 435 436 437 438 429 439 427 428 440 429 441 442 443 438 437 444 445 446 447 448 449 450 451 452 453 419 418 454 455 456 457 458 454 459 458 419 454 455 398 397 410 460 408 401 399 400 400 399 398 385 387 461 386 385 401 462 375 374 463 464 390 388 390 465 466 461 467 468 464 463 469 470 471 463 472 473 474 475 476 477 478 466 479 480 476 481 482 483 484 485 486 480 487 485 488 489 443 490 491 492 493 494 495 496 497 498 495 494 499 498 500 501 499 494 502 503 504 505 506 507 505 474 471 470 508 500 498 504 506 505 508 509 510 510 500 508 511 509 512 509 511 510 513 511 514 512 514 511 515 513 516 513 514 516 517 513 518 513 515 518 519 520 521 517 522 523 524 525 526 527 528 437 529 530 531 530 532 533 407 534 405 406 414 371 403 411 535 404 536 402 404 403 535 537 538 396 539 540 536 541 542 543 394 542 395 544 545 546 393 547 391 548 549 550 381 551 552 552 379 381 381 380 553 550 549 554 555 556 557 558 547 559 548 560 392 540 539 561 558 541 543 535 411 531 540 402 536 434 562 435 563 564 565 566 525 567 568 426 421 562 569 570 443 570 488 571 442 572 573 438 444 519 521 571 573 574 575 574 573 444 576 575 574 575 576 577 522 575 577 522 578 579 577 578 522 522 580 523 579 580 522 523 513 517 581 582 583 584 585 586 412 405 534 406 405 414 433 435 425 413 412 534 529 531 411 529 411 413 530 533 531 532 423 422 532 422 533 423 568 421 568 424 426 425 435 426 587 569 562 587 562 434 588 570 569 584 586 526 488 570 588 441 443 489 520 519 589 572 442 441 571 521 442 438 520 436 520 589 436 527 437 436 566 567 528 566 528 527 525 524 567 526 586 524 590 585 584 591 590 592 590 591 585 583 591 581 592 581 591 582 593 583 563 565 593 583 593 565 565 564 372 370 372 564 594 595 596 597 384 598 599 600 381 599 381 553 600 601 555 601 600 599 554 597 602 601 556 555 557 603 382 556 603 557 557 382 384 383 598 384 598 602 597 554 549 597 393 392 560 548 392 549 541 558 559 547 558 391 561 604 605 606 537 396 542 394 543 395 606 396 538 561 539 538 537 561 561 605 540 607 594 608 546 605 609 604 609 605 546 609 544 610 608 545 546 545 608 608 611 607 608 610 611 596 612 594 594 607 595 551 594 613 612 613 594 614 551 615 551 613 615 552 551 614 616 617 618 481 619 620 507 506 499 507 499 502 500 504 501 504 503 501 496 498 501 484 486 497 484 497 496 485 487 486 480 479 487 476 475 479 474 470 475 472 470 469 621 473 472 621 472 469 468 463 473 622 620 623 624 387 625 465 390 464 389 462 374 462 389 388 625 374 373 624 625 373 467 461 387 467 387 624 466 478 461 477 483 482 477 482 478 483 619 481 619 623 620 618 622 626 622 618 620 616 627 617 626 616 618 492 617 628 627 628 617 492 491 495 492 628 490 493 495 491 629 630 631 632 633 634 459 409 408 459 408 458 450 635 430 636 450 449 460 455 397 460 410 455 455 457 398 637 450 638 376 457 639 456 639 457 376 639 377 640 638 378 376 378 638 638 641 637 638 640 641 450 637 448 636 635 450 432 439 430 430 635 431 417 451 642 430 439 429 643 644 429 643 429 440 644 645 445 645 644 643 645 446 445 447 646 452 446 646 447 447 452 451 453 642 451 416 632 417 642 415 417 632 647 633 416 647 632 633 648 634 631 634 629 648 629 634 631 630 420 418 420 649 420 630 649 650 651 652 653 654 655 656 657 658 652 659 660 661 662 663 656 664 657 665 666 667 668 669 670 671 672 673 674 675 676 677 678 671 679 674 680 681 678 677 682 683 679 683 684 681 684 685 686 684 683 682 687 688 689 690 685 687 691 692 693 694 695 691 696 697 698 699 700 701 701 696 698 702 698 697 692 700 699 701 698 699 691 693 694 692 699 693 694 689 688 694 688 695 690 687 689 662 703 704 685 690 686 679 705 682 684 686 681 681 677 683 705 679 680 676 680 674 673 672 706 673 677 671 665 667 706 672 665 706 669 668 666 668 667 666 704 703 670 670 669 704 675 674 707 662 661 703 708 674 709 708 707 674 664 656 661 664 661 663 660 659 658 657 660 658 650 652 710 651 659 652 711 712 710 650 710 712 713 711 714 711 713 712 714 715 716 716 713 714 717 718 715 716 715 718 719 717 720 717 719 718 721 720 722 721 719 720 723 724 722 722 720 723 725 724 726 723 726 724 727 726 655 726 727 725 728 653 655 654 727 655 729 728 730 729 653 728 730 728 731 728 732 731 809 810 811 809 812 813 813 810 809 814 812 815 812 814 813 816 817 815 814 815 817 816 818 819 819 817 816 820 818 821 818 820 819 822 823 821 820 821 823 822 824 825 825 823 822 826 827 824 824 827 825 828 829 826 826 824 828 829 830 831 830 829 828 832 831 833 830 833 831 834 835 832 832 833 834 835 836 837 836 835 834 838 837 839 836 839 837 840 838 841 838 839 841 842 838 840 843 811 810 844 845 843 811 843 845 844 846 847 847 845 844 848 846 849 846 848 847 850 851 849 848 849 851 850 852 853 853 851 850 854 852 855 852 854 853 856 857 855 854 855 857 856 858 859 859 857 856 860 858 861 858 860 859 862 863 861 860 861 863 864 862 865 864 863 862 866 865 867 862 867 865 868 869 866 866 867 868 869 870 871 870 869 868 871 872 873 870 872 871 871 873 874 875 876 877 878 879 880 881 882 883 884 885 886 887 888 889 890 891 892 893 894 895 896 897 898 899 900 901 902 903 904 905 906 907 908 909 910 911 912 913 914 915 916 917 918 914 919 920 921 921 915 919 922 920 923 919 923 920 922 924 925 924 922 923 926 925 927 925 924 927 928 926 929 926 928 925 929 930 931 931 928 929 932 933 930 931 930 933 934 935 932 932 935 933 936 934 932 917 914 916 916 915 921 908 918 909 909 918 917 912 910 913 912 908 910 911 902 904 911 913 902 903 906 905 904 903 905 898 897 907 906 898 907 899 901 896 896 901 897 890 900 937 937 900 899 892 891 894 890 937 891 893 895 885 892 894 893 885 938 886 895 938 885 888 884 889 889 884 886 939 887 878 939 888 887 880 879 883 939 878 880 881 875 882 879 881 883 877 940 875 875 940 882 941 942 943 944 945 946 943 947 948 948 941 943 949 950 947 948 947 950 951 949 952 949 951 950 952 953 954 954 951 952 955 956 953 954 953 956 957 955 958 955 957 956 958 959 960 960 957 958 961 962 959 960 959 962 963 961 964 961 963 962 941 965 942 966 965 967 965 966 942 967 968 969 969 966 967 970 971 968 969 968 971 972 970 973 970 972 971 973 974 975 975 972 973 976 977 974 975 974 977 978 976 979 976 978 977 979 980 981 981 978 979 981 980 945 980 946 945 982 983 984 985 986 987 988 989 990 991 992 993 994 995 996 997 998 999 1000 1001 1002 1003 1004 1005 1006 1007 1008 1009 1008 1010 1011 1006 1012 1006 1011 1007 1012 1013 1014 1014 1011 1012 1015 1016 1013 1014 1013 1016 964 1015 963 1015 964 1016 1000 1009 1010 1008 1007 1010 1002 1001 1003 1009 1000 1002 1004 996 1005 1001 1004 1003 994 999 995 996 995 1005 989 998 997 997 999 994 992 988 990 988 998 989 991 993 982 992 990 993 984 983 987 991 982 984 985 944 986 983 985 987 946 986 944 1017 1018 1019 1020 1021 1022 1019 1023 1024 1024 1017 1019 1025 1026 1023 1024 1023 1026 1027 1025 1028 1025 1027 1026 1028 1029 1030 1030 1027 1028 1031 1032 1029 1030 1029 1032 1033 1031 1034 1031 1033 1032 1034 1035 1036 1036 1033 1034 1037 1038 1035 1036 1035 1038 1039 1037 1040 1037 1039 1038 1017 1041 1018 1042 1041 1043 1041 1042 1018 1043 1044 1045 1045 1042 1043 1046 1047 1044 1045 1044 1047 1048 1046 1049 1046 1048 1047 1049 1050 1051 1051 1048 1049 1052 1053 1050 1051 1050 1053 1054 1052 1055 1052 1054 1053 1055 1056 1057 1057 1054 1055 1057 1056 1021 1056 1022 1021 1058 1059 1060 1061 1062 1063 1064 1065 1066 1067 1068 1069 1070 1071 1072 1073 1074 1075 1076 1077 1078 1079 1080 1081 1082 1083 1084 1085 1084 1086 1087 1082 1088 1082 1087 1083 1088 1089 1090 1090 1087 1088 1091 1092 1089 1090 1089 1092 1040 1091 1039 1091 1040 1092 1076 1085 1086 1084 1083 1086 1078 1077 1079 1085 1076 1078 1080 1072 1081 1077 1080 1079 1070 1075 1071 1072 1071 1081 1065 1074 1073 1073 1075 1070 1068 1064 1066 1064 1074 1065 1067 1069 1058 1068 1066 1069 1060 1059 1063 1067 1058 1060 1061 1020 1062 1059 1061 1063 1022 1062 1020 1093 1094 1095 1096 1097 1098 1099 1100 1101 1102 1103 1094 1104 1105 1106 1107 1099 1101 1108 1109 1110 1111 1112 1113 1114 1115 1116 1117 1115 1114 1118 1119 1120 1119 1118 1116 1120 1121 1122 1123 1124 1125 1122 1126 1120 1124 1122 1121 1127 1128 1129 1130 1126 1127 1131 1132 1133 1134 1128 1135 1136 1096 1137 1138 1132 1139 1098 1140 1141 1098 1097 1140 1137 1139 1136 1098 1137 1096 1133 1132 1138 1138 1139 1137 1135 1133 1134 1131 1133 1135 1127 1129 1130 1134 1129 1128 1123 1122 1124 1107 1106 1105 1126 1130 1120 1120 1119 1121 1125 1124 1142 1115 1119 1116 1142 1143 1125 1110 1117 1114 1144 1143 1142 1113 1109 1108 1109 1117 1110 1112 1111 1145 1113 1108 1111 1104 1146 1145 1112 1145 1146 1144 1142 1147 1104 1106 1146 1148 1149 1142 1149 1147 1142 1099 1103 1100 1101 1106 1107 1093 1102 1094 1102 1100 1103 1150 1095 1094 1151 1152 1150 1095 1150 1152 1153 1151 1154 1151 1153 1152 1154 1155 1156 1156 1153 1154 1157 1158 1155 1156 1155 1158 1159 1157 1160 1157 1159 1158 1161 1160 1162 1161 1159 1160 1163 1164 1162 1162 1160 1163 1165 1164 1166 1163 1166 1164 1167 1166 1168 1166 1167 1165 1169 1168 1170 1169 1167 1168 1171 1172 1170 1170 1168 1171 1171 1173 1174 1172 1171 1174 1171 1175 1173 1252 1253 1254 1255 1256 1257 1258 1254 1259 1253 1259 1254 1260 1261 1258 1258 1259 1260 1262 1261 1260 1262 1263 1261 1253 1252 1264 1265 1266 1264 1264 1252 1265 1266 1267 1268 1267 1266 1265 1255 1268 1256 1267 1256 1268 1269 1270 1271 1272 1273 1274 1275 1276 1277 1278 1279 1280 1281 1282 1283 1284 1285 1286 1287 1288 1289 1290 1291 1292 1293 1294 1295 1296 1297 1298 1299 1300 1301 1302 1303 1304 1305 1306 1307 1308 1309 1310 1311 1312 1313 1314 1315 1312 1316 1317 1311 1311 1313 1316 1317 1318 1319 1318 1317 1316 1320 1319 1321 1318 1321 1319 1322 1323 1320 1320 1321 1322 1323 1324 1325 1324 1323 1322 1326 1325 1327 1324 1327 1325 1263 1262 1326 1326 1327 1263 1314 1305 1315 1312 1315 1313 1306 1308 1307 1314 1306 1305 1310 1309 1302 1307 1308 1310 1304 1303 1298 1302 1309 1303 1300 1297 1296 1297 1304 1298 1290 1292 1299 1301 1300 1296 1290 1299 1301 1291 1293 1295 1291 1295 1292 1294 1285 1284 1293 1285 1294 1287 1286 1288 1284 1286 1287 1279 1289 1280 1289 1288 1280 1283 1282 1278 1282 1279 1278 1272 1274 1281 1272 1281 1283 1273 1275 1277 1273 1277 1274 1276 1269 1271 1275 1269 1276 1257 1270 1255 1271 1270 1257</p>
        </triangles>
      </mesh>
    </geometry>
  </library_geometries>

  <library_visual_scenes>
    <visual_scene id="ID1">
      <node id="ID2">
        <instance_geometry url="#ID3">
          <bind_material>
            <technique_common>
              <instance_material symbol="ID9" target="#ID9"/>
              <instance_material symbol="ID10" target="#ID10"/>
              <instance_material symbol="ID11" target="#ID11"/>
            </technique_common>
          </bind_material>
        </instance_geometry>
      </node>
    </visual_scene>
  </library_visual_scenes>

  <scene>
    <instance_visual_scene url="#ID1"/>
  </scene>

  <library_nodes/>

</COLLADA>
